<svg width="1825" height="1097" viewBox="0 0 1825 1097" fill="none" xmlns="http://www.w3.org/2000/svg">
<path opacity="0.0144928" d="M617.897 1246.19C607.591 1249.8 596.142 1246.15 589.822 1237.25L362.446 916.897C358.708 911.631 357.201 905.103 358.251 898.732L448.986 348.254C449.812 343.243 452.175 338.613 455.747 335.004L800.44 -13.2637C806.917 -19.8079 816.516 -22.1681 825.289 -19.3734L1152.65 84.9083C1161.43 87.703 1167.89 95.1806 1169.39 104.265L1249.13 587.737C1249.96 592.747 1249.21 597.891 1246.98 602.456L1002.6 1103.99C999.771 1109.79 994.765 1114.25 988.671 1116.38L617.897 1246.19Z" stroke="url(#paint0_linear_2093_50)"/>
<path opacity="0.0289855" d="M678.482 1253.74C668.399 1257.85 656.811 1254.82 650.038 1246.29L407.448 940.855C403.426 935.791 401.569 929.343 402.282 922.915L463.258 373.469C463.82 368.407 465.945 363.646 469.339 359.848L793.041 -2.42441C799.168 -9.28149 808.618 -12.1302 817.514 -9.80153L1147.93 76.6933C1156.83 79.022 1163.67 86.1359 1165.65 95.1157L1270.34 569.526C1271.43 574.5 1270.95 579.692 1268.96 584.381L1052.91 1093.23C1050.38 1099.18 1045.6 1103.89 1039.61 1106.34L678.482 1253.74Z" stroke="url(#paint1_linear_2093_50)"/>
<path opacity="0.0434783" d="M738.887 1259.39C729.054 1264 717.359 1261.58 710.155 1253.45L453.285 963.632C448.99 958.785 446.788 952.435 447.161 945.969L478.736 399.148C479.03 394.048 480.912 389.167 484.117 385.189L786.313 10.1453C792.075 2.99421 801.352 -0.333867 810.346 1.52362L1142.86 70.199C1151.86 72.0565 1159.06 78.7876 1161.51 87.6363L1290.41 551.712C1291.77 556.635 1291.57 561.862 1289.82 566.662L1102.18 1081.25C1099.96 1087.33 1095.42 1092.29 1089.56 1095.04L738.887 1259.39Z" stroke="url(#paint2_linear_2093_50)"/>
<path opacity="0.057971" d="M799.009 1263.16C789.448 1268.25 777.681 1266.45 770.07 1258.75L499.886 985.194C495.328 980.579 492.786 974.345 492.817 967.859L495.435 425.222C495.459 420.097 497.091 415.109 500.099 410.96L780.343 24.3925C785.726 16.9671 794.806 13.1701 803.872 14.5525L1137.54 65.4271C1146.6 66.8095 1154.14 73.1398 1157.06 81.832L1309.37 534.352C1311 539.209 1311.07 544.456 1309.57 549.356L1150.35 1068.12C1148.45 1074.32 1144.17 1079.51 1138.44 1082.56L799.009 1263.16Z" stroke="url(#paint3_linear_2093_50)"/>
<path opacity="0.0724638" d="M858.748 1265.09C849.482 1270.64 837.676 1269.47 829.682 1262.2L547.179 1005.51C542.371 1001.14 539.495 995.044 539.183 988.555L513.369 451.62C513.122 446.485 514.497 441.403 517.298 437.092L775.219 40.2599C780.21 32.5807 789.067 28.3265 798.181 29.2312L1132.04 62.3744C1141.16 63.2792 1149.01 69.1918 1152.39 77.7025L1327.26 517.498C1329.16 522.276 1329.51 527.529 1328.25 532.515L1197.38 1053.9C1195.8 1060.2 1191.78 1065.61 1186.2 1068.95L858.748 1265.09Z" stroke="url(#paint4_linear_2093_50)"/>
<path opacity="0.0869565" d="M918.003 1265.22C909.056 1271.21 897.244 1270.66 888.893 1263.86L595.09 1024.56C590.045 1020.45 586.842 1014.5 586.187 1008.03L532.545 478.274C532.026 473.143 533.139 467.979 535.725 463.517L771.02 57.6864C775.608 49.7741 784.22 45.0758 793.356 45.5017L1126.48 61.0326C1135.62 61.4586 1143.76 66.9379 1147.59 75.2426L1344.1 501.205C1346.26 505.888 1346.89 511.134 1345.9 516.194L1243.2 1038.66C1241.94 1045.05 1238.2 1050.67 1232.8 1054.29L918.003 1265.22Z" stroke="url(#paint5_linear_2093_50)"/>
<path opacity="0.101449" d="M976.687 1263.59C968.08 1270.01 956.294 1270.08 947.613 1263.75L643.551 1042.32C638.284 1038.48 634.761 1032.71 633.763 1026.27L552.975 505.115C552.182 500.002 553.029 494.77 555.393 490.167L767.83 76.6073C772.003 68.4834 780.349 63.3549 789.482 63.3022L1120.95 61.389C1130.08 61.3363 1138.49 66.3679 1142.75 74.4433L1359.95 485.523C1362.37 490.098 1363.27 495.32 1362.54 500.442L1287.77 1022.49C1286.85 1028.94 1283.4 1034.76 1278.17 1038.66L976.687 1263.59Z" stroke="url(#paint6_linear_2093_50)"/>
<path opacity="0.115942" d="M1034.7 1260.25C1026.46 1267.07 1014.73 1267.76 1005.75 1261.93L692.485 1058.77C687.009 1055.22 683.177 1049.63 681.837 1043.24L574.655 532.072C573.59 526.992 574.166 521.704 576.3 516.972L765.718 96.9523C769.468 88.6386 777.524 83.0956 786.629 82.5658L1115.53 63.4244C1124.64 62.8946 1133.28 67.4656 1137.97 75.2882L1374.83 470.5C1377.5 474.952 1378.69 480.137 1378.22 485.307L1331.06 1005.46C1330.47 1011.96 1327.31 1017.96 1322.28 1022.12L1034.7 1260.25Z" stroke="url(#paint7_linear_2093_50)"/>
<path opacity="0.130435" d="M1091.97 1255.25C1084.1 1262.46 1072.46 1263.76 1063.21 1258.44L741.819 1073.9C736.151 1070.65 732.018 1065.26 730.34 1058.95L597.585 559.078C596.248 554.045 596.55 548.716 598.447 543.865L764.756 118.65C768.073 110.169 775.82 104.227 784.871 103.223L1110.32 67.1163C1119.37 66.1122 1128.23 70.2111 1133.33 77.7586L1388.8 456.181C1391.71 460.498 1393.17 465.631 1392.97 470.835L1373.01 987.645C1372.76 994.177 1369.91 1000.34 1365.09 1004.76L1091.97 1255.25Z" stroke="url(#paint8_linear_2093_50)"/>
<path opacity="0.144928" d="M1148.39 1248.65C1140.92 1256.23 1129.41 1258.12 1119.91 1253.33L791.48 1087.71C785.634 1084.76 781.211 1079.6 779.198 1073.37L621.757 586.064C620.15 581.091 620.176 575.735 621.83 570.778L765.006 141.623C767.883 132.997 775.301 126.675 784.274 125.201L1105.4 72.4366C1114.38 70.9624 1123.43 74.5787 1128.91 81.83L1401.88 442.61C1405.04 446.778 1406.77 451.844 1406.84 457.069L1413.6 969.129C1413.69 975.675 1411.15 981.984 1406.56 986.648L1148.39 1248.65Z" stroke="url(#paint9_linear_2093_50)"/>
<path opacity="0.15942" d="M1203.9 1240.52C1196.84 1248.44 1185.49 1250.93 1175.77 1246.67L841.394 1100.18C835.387 1097.55 830.686 1092.62 828.343 1086.5L647.165 612.961C645.291 608.063 645.038 602.694 646.443 597.642L766.53 165.792C768.962 157.044 776.033 150.359 784.902 148.421L1100.87 79.3517C1109.74 77.4128 1118.95 80.5379 1124.81 87.4724L1414.14 429.826C1417.52 433.831 1419.53 438.817 1419.87 444.049L1452.81 949.991C1453.23 956.535 1451.02 962.976 1446.66 967.874L1203.9 1240.52Z" stroke="url(#paint10_linear_2093_50)"/>
<path opacity="0.173913" d="M1258.42 1230.91C1251.79 1239.16 1240.62 1242.22 1230.72 1238.51L891.49 1111.32C885.339 1109.02 880.372 1104.34 877.704 1098.34L673.794 639.703C671.656 634.895 671.123 629.527 672.274 624.392L769.384 191.075C771.366 182.23 778.071 175.201 786.813 172.805L1096.79 87.8257C1105.53 85.429 1114.89 88.0554 1121.1 94.6535L1425.61 417.868C1429.22 421.698 1431.5 426.588 1432.11 431.814L1490.6 930.314C1491.36 936.838 1489.47 943.396 1485.36 948.516L1258.42 1230.91Z" stroke="url(#paint11_linear_2093_50)"/>
<path opacity="0.188406" d="M1311.87 1219.91C1305.69 1228.45 1294.73 1232.08 1284.68 1228.92L941.691 1121.14C935.415 1119.16 930.195 1114.75 927.207 1108.89L701.625 666.225C699.227 661.52 698.414 656.167 699.306 650.962L773.614 217.388C775.143 208.468 781.465 201.117 790.057 198.27L1093.26 97.8165C1101.85 94.97 1111.31 97.092 1117.86 103.335L1436.35 406.77C1440.17 410.412 1442.72 415.192 1443.6 420.398L1526.95 910.183C1528.06 916.669 1526.5 923.327 1522.65 928.657L1311.87 1219.91Z" stroke="url(#paint12_linear_2093_50)"/>
<path opacity="0.202899" d="M1364.19 1207.57C1358.47 1216.39 1347.76 1220.57 1337.58 1217.96L991.933 1129.63C985.547 1127.99 980.089 1123.86 976.79 1118.15L730.643 692.462C727.99 687.874 726.896 682.55 727.525 677.288L779.27 244.645C780.343 235.673 786.268 228.02 794.685 224.733L1090.34 109.279C1098.76 105.993 1108.3 107.606 1115.17 113.476L1446.41 396.564C1450.44 400.007 1453.24 404.663 1454.4 409.834L1561.86 889.68C1563.3 896.111 1562.09 902.851 1558.5 908.379L1364.19 1207.57Z" stroke="url(#paint13_linear_2093_50)"/>
<path opacity="0.217391" d="M1415.32 1193.98C1410.06 1203.05 1399.63 1207.76 1389.36 1205.72L1042.14 1136.81C1035.66 1135.52 1029.98 1131.68 1026.38 1126.14L760.818 718.352C757.915 713.895 756.542 708.615 756.905 703.308L786.387 272.758C787.003 263.758 792.515 255.825 800.735 252.108L1088.11 122.166C1096.33 118.449 1105.93 119.55 1113.1 125.032L1455.83 387.279C1460.06 390.511 1463.12 395.029 1464.55 400.152L1595.32 868.889C1597.09 875.248 1596.23 882.054 1592.91 887.765L1415.32 1193.98Z" stroke="url(#paint14_linear_2093_50)"/>
<path opacity="0.231884" d="M1465.2 1179.22C1460.42 1188.51 1450.29 1193.74 1439.95 1192.27L1092.24 1142.69C1085.69 1141.76 1079.8 1138.22 1075.9 1132.87L792.125 743.833C788.979 739.52 787.328 734.298 787.422 728.961L794.999 301.636C795.159 292.631 800.246 284.44 808.246 280.305L1086.65 136.422C1094.65 132.287 1104.27 132.875 1111.71 137.953L1464.68 378.94C1469.09 381.95 1472.4 386.318 1474.1 391.378L1627.32 847.895C1629.42 854.164 1628.9 861.018 1625.87 866.898L1465.2 1179.22Z" stroke="url(#paint15_linear_2093_50)"/>
<path opacity="0.246377" d="M1513.78 1163.37C1509.49 1172.85 1499.68 1178.59 1489.32 1177.68L1142.17 1147.3C1135.57 1146.72 1129.49 1143.5 1125.31 1138.36L824.535 768.847C821.153 764.692 819.226 759.542 819.05 754.186L805.137 331.188C804.842 322.203 809.492 313.777 817.252 309.237L1086.01 151.993C1093.77 147.452 1103.4 147.527 1111.08 152.188L1473.01 371.572C1477.59 374.349 1481.14 378.552 1483.1 383.537L1657.85 826.78C1660.28 832.943 1660.11 839.827 1657.38 845.863L1513.78 1163.37Z" stroke="url(#paint16_linear_2093_50)"/>
<path opacity="0.26087" d="M1561.01 1146.51C1557.21 1156.15 1547.76 1162.37 1537.4 1162.03L1191.87 1150.65C1185.23 1150.43 1178.97 1147.53 1174.52 1142.62L858.015 793.336C854.404 789.35 852.204 784.287 851.756 778.927L816.825 361.323C816.077 352.379 820.279 343.742 827.778 338.811L1086.27 168.818C1093.76 163.886 1103.36 163.45 1111.28 167.68L1480.87 365.192C1485.62 367.727 1489.39 371.753 1491.62 376.648L1686.94 805.627C1689.69 811.666 1689.87 818.563 1687.44 824.739L1561.01 1146.51Z" stroke="url(#paint17_linear_2093_50)"/>
<path opacity="0.275362" d="M1606.84 1128.72C1603.55 1138.51 1594.48 1145.19 1584.15 1145.41L1241.26 1152.78C1234.62 1152.92 1228.2 1150.35 1223.48 1145.67L892.529 817.246C888.697 813.443 886.228 808.48 885.507 803.129L830.08 391.948C828.883 383.069 832.628 374.245 839.846 368.937L1087.47 186.836C1094.69 181.528 1104.23 180.583 1112.34 184.371L1488.32 359.818C1493.22 362.102 1497.22 365.937 1499.71 370.729L1714.58 784.518C1717.64 790.418 1718.18 797.309 1716.06 803.611L1606.84 1128.72Z" stroke="url(#paint18_linear_2093_50)"/>
<path opacity="0.289855" d="M1651.25 1110.09C1648.47 1120 1639.79 1127.12 1629.52 1127.9L1290.29 1153.7C1283.65 1154.2 1277.09 1151.98 1272.13 1147.55L928.035 840.523C923.99 836.914 921.257 832.066 920.262 826.737L844.912 422.97C843.272 414.179 846.551 405.192 853.468 399.524L1089.67 205.981C1096.59 200.313 1106.05 198.865 1114.34 202.202L1495.42 355.464C1500.45 357.487 1504.66 361.12 1507.4 365.796L1740.79 763.533C1744.16 769.277 1745.05 776.146 1743.24 782.557L1651.25 1110.09Z" stroke="url(#paint19_linear_2093_50)"/>
<path opacity="0.304348" d="M1694.21 1090.72C1691.93 1100.72 1683.67 1108.25 1673.5 1109.58L1338.91 1153.45C1332.29 1154.32 1325.61 1152.45 1320.4 1148.28L964.494 863.118C960.247 859.715 957.254 854.995 955.987 849.702L861.332 454.296C859.254 445.615 862.062 436.491 868.661 430.48L1092.93 226.187C1099.53 220.176 1108.88 218.23 1117.33 221.107L1502.21 352.14C1507.36 353.893 1511.79 357.313 1514.78 361.858L1765.59 742.753C1769.26 748.325 1770.5 755.152 1769.02 761.658L1694.21 1090.72Z" stroke="url(#paint20_linear_2093_50)"/>
<path opacity="0.318841" d="M1735.67 1070.69C1733.91 1080.75 1726.09 1088.67 1716.05 1090.55L1387.04 1152.07C1380.47 1153.3 1373.68 1151.79 1368.25 1147.89L1001.86 884.984C997.422 881.798 994.175 877.22 992.636 871.976L879.34 485.834C876.832 477.286 879.162 468.049 885.426 461.713L1097.29 247.385C1103.56 241.049 1112.77 238.612 1121.34 241.022L1508.77 349.852C1514.03 351.33 1518.64 354.524 1521.88 358.927L1789 722.254C1792.96 727.639 1794.55 734.408 1793.4 740.992L1735.67 1070.69Z" stroke="url(#paint21_linear_2093_50)"/>
<path opacity="0.333333" d="M1775.64 1050.09C1774.39 1060.19 1767.02 1068.47 1757.13 1070.88L1434.63 1149.59C1428.12 1151.18 1421.25 1150.04 1415.61 1146.43L1040.09 906.076C1035.47 903.118 1031.97 898.695 1030.17 893.514L898.933 517.495C896.003 509.099 897.852 499.776 903.763 493.133L1102.8 269.503C1108.71 262.861 1117.75 259.943 1126.43 261.88L1515.14 348.607C1520.49 349.802 1525.29 352.76 1528.76 357.007L1811.06 702.114C1815.3 707.297 1817.23 713.989 1816.41 720.635L1775.64 1050.09Z" stroke="url(#paint22_linear_2093_50)"/>
<path opacity="0.347826" d="M1814.08 1029.01C1813.34 1039.12 1806.44 1047.73 1796.74 1050.67L1481.64 1146.06C1475.22 1148 1468.28 1147.23 1462.44 1143.92L1079.13 926.352C1074.34 923.632 1070.6 919.376 1068.53 914.272L920.102 549.184C916.759 540.963 918.124 531.578 923.669 524.649L1109.48 292.468C1115.02 285.539 1123.88 282.151 1132.63 283.61L1521.38 348.405C1526.81 349.311 1531.78 352.022 1535.49 356.101L1831.78 682.404C1836.29 687.371 1838.57 693.969 1838.08 700.66L1814.08 1029.01Z" stroke="url(#paint23_linear_2093_50)"/>
<path opacity="0.362319" d="M1850.99 1007.54C1850.75 1017.64 1844.35 1026.56 1834.86 1030.01L1528.01 1141.51C1521.69 1143.81 1514.71 1143.41 1508.69 1140.41L1118.94 945.773C1113.99 943.3 1110.02 939.225 1107.68 934.21L942.834 580.815C939.09 572.788 939.969 563.366 945.133 556.171L1117.37 316.206C1122.54 309.011 1131.18 305.163 1139.98 306.142L1527.55 349.243C1533.05 349.854 1538.18 352.31 1542.1 356.209L1851.21 663.197C1855.98 667.933 1858.6 674.421 1858.44 681.14L1850.99 1007.54Z" stroke="url(#paint24_linear_2093_50)"/>
<path opacity="0.376812" d="M1886.36 985.772C1886.63 995.827 1880.73 1005.03 1871.48 1008.98L1573.69 1136C1567.5 1138.64 1560.49 1138.61 1554.31 1135.93L1159.45 964.303C1154.35 962.087 1150.16 958.205 1147.56 953.293L967.108 612.298C962.974 604.486 963.368 595.053 968.139 587.613L1126.51 340.641C1131.28 333.202 1139.68 328.908 1148.51 329.405L1533.7 351.117C1539.24 351.43 1544.52 353.62 1548.66 357.327L1869.39 644.561C1874.41 649.054 1877.36 655.413 1877.54 662.145L1886.36 985.772Z" stroke="url(#paint25_linear_2093_50)"/>
<path opacity="0.391304" d="M1920.19 963.794C1920.97 973.782 1915.58 983.235 1906.6 987.663L1618.65 1129.56C1612.59 1132.54 1605.58 1132.89 1599.26 1130.54L1200.62 981.91C1195.39 979.96 1190.98 976.282 1188.13 971.486L992.903 643.548C988.391 635.97 988.301 626.551 992.667 618.888L1136.9 365.698C1141.27 358.035 1149.42 353.31 1158.24 353.326L1539.88 354.019C1545.47 354.029 1550.88 355.945 1555.22 359.45L1886.36 626.563C1891.61 630.799 1894.88 637.013 1895.41 643.74L1920.19 963.794Z" stroke="url(#paint26_linear_2093_50)"/>
<path opacity="0.405797" d="M1952.5 941.696C1953.76 951.591 1948.9 961.266 1940.21 966.158L1662.83 1122.24C1656.94 1125.56 1649.94 1126.29 1643.49 1124.27L1242.39 998.564C1237.04 996.887 1232.42 993.426 1229.32 988.758L1020.19 674.481C1015.31 667.155 1014.74 657.776 1018.69 649.912L1148.59 391.3C1152.54 383.436 1160.4 378.294 1169.19 377.831L1546.16 357.939C1551.76 357.644 1557.29 359.278 1561.83 362.569L1902.17 609.265C1907.64 613.233 1911.23 619.286 1912.09 625.991L1952.5 941.696Z" stroke="url(#paint27_linear_2093_50)"/>
<path opacity="0.42029" d="M1983.28 919.564C1985.03 929.342 1980.71 939.21 1972.33 944.547L1706.21 1114.11C1700.5 1117.75 1693.53 1118.86 1686.97 1117.18L1284.7 1014.24C1279.24 1012.84 1274.43 1009.61 1271.08 1005.08L1048.93 705.016C1043.71 697.959 1042.66 688.645 1046.18 680.602L1161.57 417.37C1165.09 409.327 1172.65 403.787 1181.38 402.846L1552.59 362.864C1558.19 362.261 1563.82 363.606 1568.55 366.672L1916.85 592.729C1922.54 596.416 1926.44 602.292 1927.63 608.959L1983.28 919.564Z" stroke="url(#paint28_linear_2093_50)"/>
<path opacity="0.434783" d="M2012.56 897.484C2014.79 907.12 2011 917.15 2002.97 922.913L1748.75 1105.21C1743.23 1109.16 1736.32 1110.65 1729.67 1109.32L1327.5 1028.91C1321.95 1027.8 1316.96 1024.81 1313.37 1020.43L1079.1 735.072C1073.54 728.301 1072.02 719.076 1075.11 710.879L1175.86 443.829C1178.95 435.632 1186.19 429.71 1194.83 428.297L1559.21 368.776C1564.79 367.864 1570.52 368.913 1575.42 371.745L1930.48 577.009C1936.36 580.405 1940.56 586.088 1942.09 592.7L2012.56 897.484Z" stroke="url(#paint29_linear_2093_50)"/>
<path opacity="0.449275" d="M2040.35 875.54C2043.05 885.011 2039.81 895.174 2032.13 901.341L1790.41 1095.58C1785.11 1099.84 1778.27 1101.71 1771.54 1100.73L1370.72 1042.57C1365.1 1041.75 1359.93 1039 1356.11 1034.79L1110.64 764.575C1104.77 758.105 1102.78 748.993 1105.44 740.665L1191.46 470.602C1194.12 462.273 1201.01 455.989 1209.54 454.111L1566.07 375.657C1571.63 374.435 1577.43 375.182 1582.49 377.771L1943.1 562.159C1949.16 565.255 1953.65 570.729 1955.52 577.27L2040.35 875.54Z" stroke="url(#paint30_linear_2093_50)"/>
<path opacity="0.463768" d="M2066.68 853.816C2069.83 863.098 2067.14 873.363 2059.85 879.912L1831.16 1085.3C1826.09 1089.85 1819.36 1092.09 1812.57 1091.47L1414.31 1055.18C1408.62 1054.66 1403.29 1052.17 1399.25 1048.14L1143.52 793.451C1137.34 787.297 1134.9 778.323 1137.11 769.887L1208.38 497.613C1210.59 489.177 1217.12 482.551 1225.52 480.214L1573.23 383.486C1578.74 381.955 1584.6 382.396 1589.82 384.731L1954.78 548.231C1960.99 551.017 1965.77 556.268 1967.96 562.721L2066.68 853.816Z" stroke="url(#paint31_linear_2093_50)"/>
<path opacity="0.478261" d="M2091.58 832.39C2095.17 841.462 2093.04 851.799 2086.15 858.707L1871 1074.41C1866.17 1079.25 1859.55 1081.85 1852.73 1081.59L1458.21 1066.75C1452.47 1066.53 1446.99 1064.31 1442.73 1060.47L1177.69 821.63C1171.22 815.807 1168.33 806.993 1170.09 798.474L1226.62 524.786C1228.38 516.267 1234.52 509.319 1242.76 506.533L1580.74 392.24C1586.18 390.401 1592.09 390.53 1597.44 392.605L1965.56 535.27C1971.93 537.737 1976.98 542.75 1979.49 549.1L2091.58 832.39Z" stroke="url(#paint32_linear_2093_50)"/>
<path opacity="0.492754" d="M2115.09 811.341C2119.1 820.181 2117.52 830.559 2111.05 837.8L1909.88 1062.97C1905.32 1068.07 1898.84 1071.04 1891.99 1071.14L1502.35 1077.25C1496.59 1077.34 1490.97 1075.4 1486.5 1071.75L1213.08 849.046C1206.35 843.566 1203.03 834.935 1204.33 826.357L1246.16 552.046C1247.47 543.467 1253.21 536.221 1261.27 532.995L1588.63 401.891C1593.99 399.746 1599.93 399.56 1605.41 401.365L1975.52 523.316C1982.02 525.457 1987.33 530.219 1990.16 536.449L2115.09 811.341Z" stroke="url(#paint33_linear_2093_50)"/>
<path opacity="0.507246" d="M2137.23 790.743C2141.66 799.331 2140.63 809.72 2134.59 817.27L1947.8 1051.04C1943.52 1056.4 1937.19 1059.71 1930.34 1060.19L1546.68 1086.69C1540.9 1087.09 1535.16 1085.43 1530.49 1082L1249.65 875.636C1242.68 870.511 1238.92 862.086 1239.78 853.473L1266.99 579.32C1267.85 570.706 1273.18 563.184 1281.03 559.53L1596.96 412.412C1602.22 409.964 1608.17 409.46 1613.76 410.989L1984.72 512.41C1991.34 514.219 1996.89 518.716 2000.04 524.81L2137.23 790.743Z" stroke="url(#paint34_linear_2093_50)"/>
<path opacity="0.521739" d="M2158.05 770.668C2162.88 778.984 2162.39 789.355 2156.81 797.186L1984.73 1038.67C1980.74 1044.27 1974.59 1047.93 1967.77 1048.77L1591.14 1095.07C1585.35 1095.78 1579.51 1094.41 1574.64 1091.19L1287.33 901.341C1280.13 896.582 1275.97 888.383 1276.37 879.76L1289.11 606.535C1289.51 597.911 1294.42 590.136 1302.03 586.067L1605.76 423.771C1610.9 421.025 1616.85 420.2 1622.54 421.447L1993.23 502.585C1999.94 504.055 2005.73 508.276 2009.18 514.219L2158.05 770.668Z" stroke="url(#paint35_linear_2093_50)"/>
<path opacity="0.536232" d="M2177.6 751.185C2182.81 759.211 2182.87 769.534 2177.75 777.62L2020.67 1025.93C2016.99 1031.75 2011.03 1035.75 2004.25 1036.95L1635.66 1102.38C1629.89 1103.4 1623.95 1102.32 1618.91 1099.34L1326.07 926.107C1318.66 921.723 1314.1 913.772 1314.05 905.162L1312.48 633.622C1312.43 625.012 1316.9 617.009 1324.26 612.54L1615.08 435.938C1620.08 432.897 1626.02 431.751 1631.8 432.708L2001.11 493.873C2007.91 494.998 2013.91 498.93 2017.66 504.707L2177.6 751.185Z" stroke="url(#paint36_linear_2093_50)"/>
<path opacity="0.550725" d="M2195.92 732.36C2201.5 740.078 2202.09 750.324 2197.45 758.636L2055.61 1012.86C2052.25 1018.89 2046.5 1023.22 2039.78 1024.79L1680.19 1108.62C1674.45 1109.96 1668.43 1109.19 1663.22 1106.44L1365.8 949.882C1358.2 945.883 1353.25 938.197 1352.75 929.626L1337.09 660.512C1336.59 651.94 1340.62 643.733 1347.7 638.879L1624.95 448.876C1629.81 445.546 1635.7 444.078 1641.55 444.741L2008.44 486.298C2015.3 487.074 2021.51 490.707 2025.55 496.303L2195.92 732.36Z" stroke="url(#paint37_linear_2093_50)"/>
<path opacity="0.565217" d="M2213.08 714.255C2218.99 721.649 2220.11 731.789 2215.96 740.299L2089.54 999.538C2086.51 1005.75 2080.99 1010.4 2074.35 1012.33L1724.66 1113.81C1718.98 1115.46 1712.88 1115 1707.51 1112.5L1406.44 972.62C1398.68 969.013 1393.36 961.613 1392.42 953.103L1362.91 687.14C1361.96 678.63 1365.53 670.244 1372.32 665.022L1635.4 462.55C1640.1 458.938 1645.94 457.148 1651.85 457.512L2015.28 479.882C2022.18 480.307 2028.58 483.631 2032.9 489.032L2213.08 714.255Z" stroke="url(#paint38_linear_2093_50)"/>
<path opacity="0.57971" d="M2229.11 696.929C2235.35 703.982 2236.99 713.988 2233.34 722.668L2122.47 986.007C2119.78 992.395 2114.51 997.346 2107.96 999.631L1769.03 1117.96C1763.41 1119.92 1757.26 1119.77 1751.74 1117.53L1447.94 994.28C1440.03 991.07 1434.36 983.974 1432.97 975.549L1389.91 713.44C1388.52 705.015 1391.62 696.478 1398.09 690.905L1646.49 476.922C1651 473.036 1656.77 470.925 1662.73 470.986L2021.7 474.645C2028.63 474.715 2035.21 477.719 2039.8 482.911L2229.11 696.929Z" stroke="url(#paint39_linear_2093_50)"/>
<path opacity="0.594203" d="M2244.09 680.434C2250.63 687.134 2252.78 696.979 2249.63 705.798L2154.38 972.327C2152.04 978.869 2147.04 984.111 2140.61 986.749L1813.22 1121.08C1807.68 1123.35 1801.5 1123.52 1795.85 1121.54L1490.21 1014.82C1482.17 1012.02 1476.17 1005.24 1474.35 996.923L1418.05 739.351C1416.23 731.035 1418.86 722.372 1424.99 716.468L1658.22 491.954C1662.53 487.8 1668.22 485.371 1674.2 485.125L2027.78 470.598C2034.72 470.313 2041.46 472.988 2046.31 477.958L2244.09 680.434Z" stroke="url(#paint40_linear_2093_50)"/>
<path opacity="0.608696" d="M2258.06 664.823C2264.89 671.156 2267.54 680.813 2264.9 689.742L2185.3 958.555C2183.32 965.232 2178.6 970.752 2172.3 973.735L1857.19 1123.18C1851.75 1125.77 1845.55 1126.25 1839.77 1124.55L1533.19 1034.21C1525.05 1031.81 1518.73 1025.37 1516.49 1017.19L1447.3 764.815C1445.06 756.63 1447.21 747.867 1452.99 741.653L1670.64 507.603C1674.74 503.192 1680.32 500.446 1686.32 499.891L2033.59 467.751C2040.52 467.11 2047.4 469.449 2052.51 474.184L2258.06 664.823Z" stroke="url(#paint41_linear_2093_50)"/>
<path opacity="0.623188" d="M2271.11 650.141C2278.2 656.095 2281.33 665.539 2279.19 674.549L2215.22 944.745C2213.61 951.537 2209.18 957.32 2203.05 960.643L1900.89 1124.3C1895.56 1127.18 1889.35 1127.99 1883.46 1126.57L1576.8 1052.43C1568.58 1050.44 1561.96 1044.35 1559.3 1036.32L1477.62 789.774C1474.96 781.744 1476.63 772.909 1482.04 766.404L1683.77 523.828C1687.64 519.17 1693.1 516.112 1699.1 515.245L2039.2 466.11C2046.11 465.112 2053.11 467.107 2058.46 471.595L2271.11 650.141Z" stroke="url(#paint42_linear_2093_50)"/>
<path opacity="0.637681" d="M2283.28 636.431C2290.61 641.996 2294.21 651.202 2292.59 660.263L2244.15 930.952C2242.92 937.838 2238.8 943.869 2232.84 947.525L1944.24 1124.44C1939.05 1127.63 1932.85 1128.76 1926.86 1127.62L1620.97 1069.44C1612.68 1067.86 1605.79 1062.13 1602.73 1054.28L1508.97 814.177C1505.9 806.322 1507.09 797.442 1512.11 790.669L1697.62 540.588C1701.26 535.692 1706.58 532.326 1712.56 531.147L2044.68 465.675C2051.54 464.322 2058.65 465.967 2064.23 470.196L2283.28 636.431Z" stroke="url(#paint43_linear_2093_50)"/>
<path opacity="0.652174" d="M2294.65 623.732C2302.2 628.898 2306.25 637.841 2305.14 646.924L2272.12 917.227C2271.27 924.187 2267.48 930.449 2261.7 934.428L1987.22 1123.64C1982.17 1127.12 1976 1128.58 1969.93 1127.73L1665.62 1085.22C1657.29 1084.06 1650.14 1078.71 1646.68 1071.05L1541.29 837.973C1537.83 830.315 1538.53 821.415 1543.16 814.397L1712.24 557.836C1715.61 552.715 1720.79 549.046 1726.74 547.554L2050.1 466.442C2056.9 464.736 2064.11 466.026 2069.89 469.985L2294.65 623.732Z" stroke="url(#paint44_linear_2093_50)"/>
<path opacity="0.666667" d="M2305.29 612.076C2313.04 616.835 2317.51 625.494 2316.91 634.568L2299.13 903.623C2298.67 910.636 2295.22 917.112 2289.65 921.405L2029.76 1121.93C2024.88 1125.7 2018.75 1127.48 2012.6 1126.93L1710.66 1099.77C1702.32 1099.02 1694.94 1094.06 1691.09 1086.62L1574.55 861.115C1570.7 853.674 1570.93 844.783 1575.14 837.543L1727.63 575.53C1730.73 570.196 1735.74 566.23 1741.64 564.425L2055.53 468.405C2062.25 466.349 2069.53 467.278 2075.52 470.957L2305.29 612.076Z" stroke="url(#paint45_linear_2093_50)"/>
<path opacity="0.681159" d="M2315.26 601.494C2323.18 605.839 2328.07 614.193 2327.98 623.229L2325.21 890.19C2325.13 897.234 2322.03 903.906 2316.69 908.502L2071.82 1119.33C2067.12 1123.38 2061.05 1125.49 2054.84 1125.24L1756.04 1113.08C1747.7 1112.74 1740.1 1108.17 1735.89 1100.97L1608.69 883.561C1604.47 876.356 1604.22 867.5 1608.01 860.063L1743.81 593.624C1746.63 588.091 1751.44 583.835 1757.28 581.718L2061.05 471.553C2067.67 469.151 2075.01 469.716 2081.18 473.104L2315.26 601.494Z" stroke="url(#paint46_linear_2093_50)"/>
<path opacity="0.695652" d="M2324.64 592.009C2332.71 595.935 2337.99 603.963 2338.4 612.932L2350.37 876.974C2350.69 884.028 2347.95 890.878 2342.85 895.766L2113.36 1115.88C2108.85 1120.21 2102.85 1122.65 2096.6 1122.7L1801.66 1125.13C1793.35 1125.19 1785.56 1121.04 1780.99 1114.09L1643.66 905.268C1639.09 898.318 1638.36 889.525 1641.72 881.915L1760.79 612.072C1763.31 606.353 1767.93 601.815 1773.69 599.387L2066.71 475.868C2073.22 473.125 2080.59 473.323 2086.94 476.412L2324.64 592.009Z" stroke="url(#paint47_linear_2093_50)"/>
<path opacity="0.710145" d="M2333.5 583.643C2341.7 587.146 2347.35 594.829 2348.25 603.702L2374.64 864.023C2375.36 871.066 2372.99 878.073 2368.15 883.24L2154.32 1111.62C2150.02 1116.21 2144.11 1118.98 2137.83 1119.33L1847.46 1135.92C1839.19 1136.4 1831.23 1132.65 1826.32 1125.98L1679.41 926.201C1674.5 919.525 1673.3 910.82 1676.21 903.063L1778.59 630.828C1780.8 624.938 1785.2 620.126 1790.86 617.39L2072.59 481.333C2078.97 478.255 2086.36 478.084 2092.87 480.864L2333.5 583.643Z" stroke="url(#paint48_linear_2093_50)"/>
<path opacity="0.724638" d="M2341.9 576.411C2350.21 579.488 2356.21 586.809 2357.59 595.558L2398.06 851.381C2399.17 858.39 2397.18 865.535 2392.62 870.968L2194.67 1106.58C2190.6 1111.43 2184.8 1114.52 2178.5 1115.19L1893.35 1145.47C1885.15 1146.34 1877.05 1143.02 1871.82 1136.64L1715.88 946.328C1710.65 939.942 1708.98 931.351 1711.45 923.473L1797.21 649.847C1799.1 643.801 1803.27 638.725 1808.82 635.683L2078.76 487.925C2084.98 484.518 2092.38 483.977 2099.03 486.441L2341.9 576.411Z" stroke="url(#paint49_linear_2093_50)"/>
<path opacity="0.73913" d="M2349.93 570.325C2358.32 572.974 2364.65 579.917 2366.5 588.515L2420.63 839.09C2422.13 846.044 2420.54 853.306 2416.26 858.991L2234.37 1100.81C2230.54 1105.91 2224.86 1109.31 2218.56 1110.29L1939.27 1153.77C1931.14 1155.04 1922.92 1152.14 1917.39 1146.07L1753.02 965.617C1747.48 959.538 1745.36 951.086 1747.37 943.114L1816.66 669.08C1818.22 662.895 1822.13 657.564 1827.57 654.22L2085.26 495.616C2091.32 491.887 2098.7 490.976 2105.48 493.118L2349.93 570.325Z" stroke="url(#paint50_linear_2093_50)"/>
<path opacity="0.753623" d="M2357.66 565.393C2366.11 567.614 2372.73 574.164 2375.05 582.584L2442.4 827.193C2444.3 834.068 2443.1 841.427 2439.13 847.348L2273.38 1094.35C2269.8 1099.68 2264.27 1103.4 2257.98 1104.69L1985.13 1160.85C1977.11 1162.5 1968.79 1160.04 1962.97 1154.28L1790.76 984.046C1784.94 978.288 1782.37 970.001 1783.93 961.96L1836.94 688.484C1838.16 682.177 1841.81 676.602 1847.11 672.961L2092.17 504.377C2098.05 500.336 2105.39 499.054 2112.29 500.868L2357.66 565.393Z" stroke="url(#paint51_linear_2093_50)"/>
<path opacity="0.768116" d="M2365.15 561.616C2373.63 563.41 2380.54 569.552 2383.3 577.769L2463.4 815.723C2465.68 822.499 2464.89 829.932 2461.23 836.075L2311.67 1087.23C2308.36 1092.79 2302.99 1096.81 2296.72 1098.42L2030.87 1166.72C2022.97 1168.74 2014.58 1166.71 2008.49 1161.29L1829.05 1001.59C1822.96 996.167 1819.97 988.068 1821.06 979.986L1858.06 708.01C1858.93 701.598 1862.3 695.791 1867.44 691.858L2099.55 514.174C2105.23 509.828 2112.52 508.179 2119.51 509.658L2365.15 561.616Z" stroke="url(#paint52_linear_2093_50)"/>
<path opacity="0.782609" d="M2372.49 558.992C2380.98 560.362 2388.13 566.086 2391.33 574.074L2483.67 804.72C2486.33 811.374 2485.95 818.861 2482.62 825.207L2349.22 1079.51C2346.19 1085.28 2340.98 1089.61 2334.76 1091.54L2076.42 1171.39C2068.66 1173.79 2060.22 1172.18 2053.87 1167.11L1867.84 1018.23C1861.5 1013.16 1858.08 1005.27 1858.72 997.173L1880.01 727.615C1880.52 721.116 1883.6 715.089 1888.57 710.869L2107.45 524.97C2112.91 520.33 2120.13 518.316 2127.21 519.456L2372.49 558.992Z" stroke="url(#paint53_linear_2093_50)"/>
<path opacity="0.797101" d="M2379.73 557.518C2388.21 558.466 2395.59 563.762 2399.2 571.498L2503.23 794.217C2506.27 800.727 2506.3 808.244 2503.31 814.778L2385.98 1071.24C2383.24 1077.21 2378.23 1081.84 2372.05 1084.08L2121.7 1174.89C2114.1 1177.65 2105.63 1176.48 2099.06 1171.77L1907.05 1033.96C1900.49 1029.24 1896.67 1021.59 1896.85 1013.51L1902.78 747.253C1902.93 740.686 1905.71 734.453 1910.49 729.953L2115.92 536.727C2121.16 531.804 2128.29 529.427 2135.43 530.224L2379.73 557.518Z" stroke="url(#paint54_linear_2093_50)"/>
<path opacity="0.811594" d="M2386.94 557.18C2395.4 557.711 2402.98 562.571 2406.99 570.032L2522.13 784.242C2525.54 790.588 2525.98 798.112 2523.35 804.816L2421.93 1062.45C2419.51 1068.61 2414.69 1073.53 2408.59 1076.08L2166.65 1177.26C2159.22 1180.37 2150.75 1179.63 2143.97 1175.29L1946.64 1048.75C1939.87 1044.41 1935.66 1037.01 1935.38 1028.97L1926.38 766.878C1926.15 760.263 1928.61 753.837 1933.2 749.064L2125.02 549.4C2130.02 544.205 2137.04 541.47 2144.23 541.922L2386.94 557.18Z" stroke="url(#paint55_linear_2093_50)"/>
<defs>
<linearGradient id="paint0_linear_2093_50" x1="600.304" y1="1252.88" x2="1024.72" y2="-79.4521" gradientUnits="userSpaceOnUse">
<stop offset="0.0001" stop-color="white" stop-opacity="0"/>
<stop offset="1" stop-color="white"/>
</linearGradient>
<linearGradient id="paint1_linear_2093_50" x1="661.309" y1="1261.29" x2="1012.29" y2="-79.4894" gradientUnits="userSpaceOnUse">
<stop offset="0.0001" stop-color="white" stop-opacity="0"/>
<stop offset="1" stop-color="white"/>
</linearGradient>
<linearGradient id="paint2_linear_2093_50" x1="722.177" y1="1267.77" x2="1000.01" y2="-77.4528" gradientUnits="userSpaceOnUse">
<stop offset="0.0001" stop-color="white" stop-opacity="0"/>
<stop offset="1" stop-color="white"/>
</linearGradient>
<linearGradient id="paint3_linear_2093_50" x1="782.802" y1="1272.35" x2="987.988" y2="-73.3705" gradientUnits="userSpaceOnUse">
<stop offset="0.0001" stop-color="white" stop-opacity="0"/>
<stop offset="1" stop-color="white"/>
</linearGradient>
<linearGradient id="paint4_linear_2093_50" x1="843.082" y1="1275.06" x2="976.338" y2="-67.2768" gradientUnits="userSpaceOnUse">
<stop offset="0.0001" stop-color="white" stop-opacity="0"/>
<stop offset="1" stop-color="white"/>
</linearGradient>
<linearGradient id="paint5_linear_2093_50" x1="902.917" y1="1275.93" x2="965.164" y2="-59.211" gradientUnits="userSpaceOnUse">
<stop offset="0.0001" stop-color="white" stop-opacity="0"/>
<stop offset="1" stop-color="white"/>
</linearGradient>
<linearGradient id="paint6_linear_2093_50" x1="962.215" y1="1275.01" x2="954.572" y2="-49.2178" gradientUnits="userSpaceOnUse">
<stop offset="0.0001" stop-color="white" stop-opacity="0"/>
<stop offset="1" stop-color="white"/>
</linearGradient>
<linearGradient id="paint7_linear_2093_50" x1="1020.88" y1="1272.34" x2="944.659" y2="-37.3483" gradientUnits="userSpaceOnUse">
<stop offset="0.0001" stop-color="white" stop-opacity="0"/>
<stop offset="1" stop-color="white"/>
</linearGradient>
<linearGradient id="paint8_linear_2093_50" x1="1078.82" y1="1267.98" x2="935.523" y2="-23.6576" gradientUnits="userSpaceOnUse">
<stop offset="0.0001" stop-color="white" stop-opacity="0"/>
<stop offset="1" stop-color="white"/>
</linearGradient>
<linearGradient id="paint9_linear_2093_50" x1="1135.96" y1="1261.99" x2="927.254" y2="-8.20631" gradientUnits="userSpaceOnUse">
<stop offset="0.0001" stop-color="white" stop-opacity="0"/>
<stop offset="1" stop-color="white"/>
</linearGradient>
<linearGradient id="paint10_linear_2093_50" x1="1192.2" y1="1254.41" x2="919.944" y2="8.93939" gradientUnits="userSpaceOnUse">
<stop offset="0.0001" stop-color="white" stop-opacity="0"/>
<stop offset="1" stop-color="white"/>
</linearGradient>
<linearGradient id="paint11_linear_2093_50" x1="1247.48" y1="1245.32" x2="913.674" y2="27.7112" gradientUnits="userSpaceOnUse">
<stop offset="0.0001" stop-color="white" stop-opacity="0"/>
<stop offset="1" stop-color="white"/>
</linearGradient>
<linearGradient id="paint12_linear_2093_50" x1="1301.71" y1="1234.79" x2="908.522" y2="48.0348" gradientUnits="userSpaceOnUse">
<stop offset="0.0001" stop-color="white" stop-opacity="0"/>
<stop offset="1" stop-color="white"/>
</linearGradient>
<linearGradient id="paint13_linear_2093_50" x1="1354.84" y1="1222.89" x2="904.566" y2="69.8331" gradientUnits="userSpaceOnUse">
<stop offset="0.0001" stop-color="white" stop-opacity="0"/>
<stop offset="1" stop-color="white"/>
</linearGradient>
<linearGradient id="paint14_linear_2093_50" x1="1406.79" y1="1209.69" x2="901.871" y2="93.0258" gradientUnits="userSpaceOnUse">
<stop offset="0.0001" stop-color="white" stop-opacity="0"/>
<stop offset="1" stop-color="white"/>
</linearGradient>
<linearGradient id="paint15_linear_2093_50" x1="1457.5" y1="1195.28" x2="900.502" y2="117.528" gradientUnits="userSpaceOnUse">
<stop offset="0.0001" stop-color="white" stop-opacity="0"/>
<stop offset="1" stop-color="white"/>
</linearGradient>
<linearGradient id="paint16_linear_2093_50" x1="1506.93" y1="1179.72" x2="900.52" y2="143.254" gradientUnits="userSpaceOnUse">
<stop offset="0.0001" stop-color="white" stop-opacity="0"/>
<stop offset="1" stop-color="white"/>
</linearGradient>
<linearGradient id="paint17_linear_2093_50" x1="1555.02" y1="1163.11" x2="901.976" y2="170.113" gradientUnits="userSpaceOnUse">
<stop offset="0.0001" stop-color="white" stop-opacity="0"/>
<stop offset="1" stop-color="white"/>
</linearGradient>
<linearGradient id="paint18_linear_2093_50" x1="1601.72" y1="1145.53" x2="904.92" y2="198.015" gradientUnits="userSpaceOnUse">
<stop offset="0.0001" stop-color="white" stop-opacity="0"/>
<stop offset="1" stop-color="white"/>
</linearGradient>
<linearGradient id="paint19_linear_2093_50" x1="1647.01" y1="1127.07" x2="909.39" y2="226.865" gradientUnits="userSpaceOnUse">
<stop offset="0.0001" stop-color="white" stop-opacity="0"/>
<stop offset="1" stop-color="white"/>
</linearGradient>
<linearGradient id="paint20_linear_2093_50" x1="1690.83" y1="1107.81" x2="915.427" y2="256.57" gradientUnits="userSpaceOnUse">
<stop offset="0.0001" stop-color="white" stop-opacity="0"/>
<stop offset="1" stop-color="white"/>
</linearGradient>
<linearGradient id="paint21_linear_2093_50" x1="1733.18" y1="1087.85" x2="923.059" y2="287.032" gradientUnits="userSpaceOnUse">
<stop offset="0.0001" stop-color="white" stop-opacity="0"/>
<stop offset="1" stop-color="white"/>
</linearGradient>
<linearGradient id="paint22_linear_2093_50" x1="1774.01" y1="1067.28" x2="932.312" y2="318.157" gradientUnits="userSpaceOnUse">
<stop offset="0.0001" stop-color="white" stop-opacity="0"/>
<stop offset="1" stop-color="white"/>
</linearGradient>
<linearGradient id="paint23_linear_2093_50" x1="1813.32" y1="1046.17" x2="943.205" y2="349.845" gradientUnits="userSpaceOnUse">
<stop offset="0.0001" stop-color="white" stop-opacity="0"/>
<stop offset="1" stop-color="white"/>
</linearGradient>
<linearGradient id="paint24_linear_2093_50" x1="1851.1" y1="1024.64" x2="955.753" y2="381.999" gradientUnits="userSpaceOnUse">
<stop offset="0.0001" stop-color="white" stop-opacity="0"/>
<stop offset="1" stop-color="white"/>
</linearGradient>
<linearGradient id="paint25_linear_2093_50" x1="1887.32" y1="1002.76" x2="969.962" y2="414.522" gradientUnits="userSpaceOnUse">
<stop offset="0.0001" stop-color="white" stop-opacity="0"/>
<stop offset="1" stop-color="white"/>
</linearGradient>
<linearGradient id="paint26_linear_2093_50" x1="1922" y1="980.63" x2="985.834" y2="447.317" gradientUnits="userSpaceOnUse">
<stop offset="0.0001" stop-color="white" stop-opacity="0"/>
<stop offset="1" stop-color="white"/>
</linearGradient>
<linearGradient id="paint27_linear_2093_50" x1="1955.13" y1="958.336" x2="1003.37" y2="480.287" gradientUnits="userSpaceOnUse">
<stop offset="0.0001" stop-color="white" stop-opacity="0"/>
<stop offset="1" stop-color="white"/>
</linearGradient>
<linearGradient id="paint28_linear_2093_50" x1="1986.73" y1="935.967" x2="1022.55" y2="513.339" gradientUnits="userSpaceOnUse">
<stop offset="0.0001" stop-color="white" stop-opacity="0"/>
<stop offset="1" stop-color="white"/>
</linearGradient>
<linearGradient id="paint29_linear_2093_50" x1="2016.8" y1="913.608" x2="1043.38" y2="546.378" gradientUnits="userSpaceOnUse">
<stop offset="0.0001" stop-color="white" stop-opacity="0"/>
<stop offset="1" stop-color="white"/>
</linearGradient>
<linearGradient id="paint30_linear_2093_50" x1="2045.37" y1="891.347" x2="1065.82" y2="579.311" gradientUnits="userSpaceOnUse">
<stop offset="0.0001" stop-color="white" stop-opacity="0"/>
<stop offset="1" stop-color="white"/>
</linearGradient>
<linearGradient id="paint31_linear_2093_50" x1="2072.45" y1="869.268" x2="1089.85" y2="612.051" gradientUnits="userSpaceOnUse">
<stop offset="0.0001" stop-color="white" stop-opacity="0"/>
<stop offset="1" stop-color="white"/>
</linearGradient>
<linearGradient id="paint32_linear_2093_50" x1="2098.08" y1="847.452" x2="1115.45" y2="644.508" gradientUnits="userSpaceOnUse">
<stop offset="0.0001" stop-color="white" stop-opacity="0"/>
<stop offset="1" stop-color="white"/>
</linearGradient>
<linearGradient id="paint33_linear_2093_50" x1="2122.29" y1="825.976" x2="1142.58" y2="676.598" gradientUnits="userSpaceOnUse">
<stop offset="0.0001" stop-color="white" stop-opacity="0"/>
<stop offset="1" stop-color="white"/>
</linearGradient>
<linearGradient id="paint34_linear_2093_50" x1="2145.1" y1="804.919" x2="1171.21" y2="708.238" gradientUnits="userSpaceOnUse">
<stop offset="0.0001" stop-color="white" stop-opacity="0"/>
<stop offset="1" stop-color="white"/>
</linearGradient>
<linearGradient id="paint35_linear_2093_50" x1="2166.57" y1="784.353" x2="1201.28" y2="739.35" gradientUnits="userSpaceOnUse">
<stop offset="0.0001" stop-color="white" stop-opacity="0"/>
<stop offset="1" stop-color="white"/>
</linearGradient>
<linearGradient id="paint36_linear_2093_50" x1="2186.74" y1="764.35" x2="1232.75" y2="769.857" gradientUnits="userSpaceOnUse">
<stop offset="0.0001" stop-color="white" stop-opacity="0"/>
<stop offset="1" stop-color="white"/>
</linearGradient>
<linearGradient id="paint37_linear_2093_50" x1="2205.65" y1="744.977" x2="1265.58" y2="799.687" gradientUnits="userSpaceOnUse">
<stop offset="0.0001" stop-color="white" stop-opacity="0"/>
<stop offset="1" stop-color="white"/>
</linearGradient>
<linearGradient id="paint38_linear_2093_50" x1="2223.35" y1="726.298" x2="1299.7" y2="828.771" gradientUnits="userSpaceOnUse">
<stop offset="0.0001" stop-color="white" stop-opacity="0"/>
<stop offset="1" stop-color="white"/>
</linearGradient>
<linearGradient id="paint39_linear_2093_50" x1="2239.9" y1="708.373" x2="1335.06" y2="857.045" gradientUnits="userSpaceOnUse">
<stop offset="0.0001" stop-color="white" stop-opacity="0"/>
<stop offset="1" stop-color="white"/>
</linearGradient>
<linearGradient id="paint40_linear_2093_50" x1="2255.36" y1="691.258" x2="1371.59" y2="884.447" gradientUnits="userSpaceOnUse">
<stop offset="0.0001" stop-color="white" stop-opacity="0"/>
<stop offset="1" stop-color="white"/>
</linearGradient>
<linearGradient id="paint41_linear_2093_50" x1="2269.78" y1="675.007" x2="1409.24" y2="910.921" gradientUnits="userSpaceOnUse">
<stop offset="0.0001" stop-color="white" stop-opacity="0"/>
<stop offset="1" stop-color="white"/>
</linearGradient>
<linearGradient id="paint42_linear_2093_50" x1="2283.23" y1="659.668" x2="1447.93" y2="936.414" gradientUnits="userSpaceOnUse">
<stop offset="0.0001" stop-color="white" stop-opacity="0"/>
<stop offset="1" stop-color="white"/>
</linearGradient>
<linearGradient id="paint43_linear_2093_50" x1="2295.77" y1="645.285" x2="1487.6" y2="960.879" gradientUnits="userSpaceOnUse">
<stop offset="0.0001" stop-color="white" stop-opacity="0"/>
<stop offset="1" stop-color="white"/>
</linearGradient>
<linearGradient id="paint44_linear_2093_50" x1="2307.48" y1="631.899" x2="1528.17" y2="984.272" gradientUnits="userSpaceOnUse">
<stop offset="0.0001" stop-color="white" stop-opacity="0"/>
<stop offset="1" stop-color="white"/>
</linearGradient>
<linearGradient id="paint45_linear_2093_50" x1="2318.41" y1="619.546" x2="1569.57" y2="1006.56" gradientUnits="userSpaceOnUse">
<stop offset="0.0001" stop-color="white" stop-opacity="0"/>
<stop offset="1" stop-color="white"/>
</linearGradient>
<linearGradient id="paint46_linear_2093_50" x1="2328.63" y1="608.258" x2="1611.73" y2="1027.7" gradientUnits="userSpaceOnUse">
<stop offset="0.0001" stop-color="white" stop-opacity="0"/>
<stop offset="1" stop-color="white"/>
</linearGradient>
<linearGradient id="paint47_linear_2093_50" x1="2338.22" y1="598.06" x2="1654.57" y2="1047.66" gradientUnits="userSpaceOnUse">
<stop offset="0.0001" stop-color="white" stop-opacity="0"/>
<stop offset="1" stop-color="white"/>
</linearGradient>
<linearGradient id="paint48_linear_2093_50" x1="2347.26" y1="588.977" x2="1698.01" y2="1066.43" gradientUnits="userSpaceOnUse">
<stop offset="0.0001" stop-color="white" stop-opacity="0"/>
<stop offset="1" stop-color="white"/>
</linearGradient>
<linearGradient id="paint49_linear_2093_50" x1="2355.8" y1="581.026" x2="1741.98" y2="1083.98" gradientUnits="userSpaceOnUse">
<stop offset="0.0001" stop-color="white" stop-opacity="0"/>
<stop offset="1" stop-color="white"/>
</linearGradient>
<linearGradient id="paint50_linear_2093_50" x1="2363.93" y1="574.22" x2="1786.39" y2="1100.3" gradientUnits="userSpaceOnUse">
<stop offset="0.0001" stop-color="white" stop-opacity="0"/>
<stop offset="1" stop-color="white"/>
</linearGradient>
<linearGradient id="paint51_linear_2093_50" x1="2371.71" y1="568.571" x2="1831.18" y2="1115.38" gradientUnits="userSpaceOnUse">
<stop offset="0.0001" stop-color="white" stop-opacity="0"/>
<stop offset="1" stop-color="white"/>
</linearGradient>
<linearGradient id="paint52_linear_2093_50" x1="2379.22" y1="564.08" x2="1876.25" y2="1129.21" gradientUnits="userSpaceOnUse">
<stop offset="0.0001" stop-color="white" stop-opacity="0"/>
<stop offset="1" stop-color="white"/>
</linearGradient>
<linearGradient id="paint53_linear_2093_50" x1="2386.54" y1="560.751" x2="1921.55" y2="1141.79" gradientUnits="userSpaceOnUse">
<stop offset="0.0001" stop-color="white" stop-opacity="0"/>
<stop offset="1" stop-color="white"/>
</linearGradient>
<linearGradient id="paint54_linear_2093_50" x1="2393.72" y1="558.578" x2="1966.97" y2="1153.13" gradientUnits="userSpaceOnUse">
<stop offset="0.0001" stop-color="white" stop-opacity="0"/>
<stop offset="1" stop-color="white"/>
</linearGradient>
<linearGradient id="paint55_linear_2093_50" x1="2400.85" y1="557.553" x2="2012.46" y2="1163.24" gradientUnits="userSpaceOnUse">
<stop offset="0.0001" stop-color="white" stop-opacity="0"/>
<stop offset="1" stop-color="white"/>
</linearGradient>
</defs>
</svg>
