<svg width="282" height="39" viewBox="0 0 282 39" fill="none" xmlns="http://www.w3.org/2000/svg">
<path d="M89 12.5L88.9579 12.0016L88.9466 12.0028L89 12.5ZM175 4.99999L174.945 4.50304L175 4.99999ZM214 2L214.033 2.49889L214 2ZM266 17L266.411 16.7159L266.39 16.6843L266.363 16.6564L266 17ZM280.41 38.4918C280.682 38.5415 280.942 38.3617 280.992 38.09L281.802 33.6636C281.852 33.392 281.672 33.1315 281.401 33.0818C281.129 33.032 280.868 33.2119 280.819 33.4835L280.098 37.4181L276.164 36.6977C275.892 36.648 275.632 36.8278 275.582 37.0995C275.532 37.3711 275.712 37.6316 275.984 37.6813L280.41 38.4918ZM0.553366 22.4971L89.0534 12.9971L88.9466 12.0028L0.446634 21.5028L0.553366 22.4971ZM89.0421 12.9982C114.703 10.8321 167.847 6.29789 175.055 5.49693L174.945 4.50304C167.753 5.30208 114.631 9.83457 88.9579 12.0018L89.0421 12.9982ZM175.055 5.49693C184.041 4.49848 208.539 2.86521 214.033 2.49889L213.967 1.50111C208.486 1.8665 183.959 3.50149 174.945 4.50304L175.055 5.49693ZM214.033 2.49889C229.062 1.49698 248.318 -0.964396 265.637 17.3436L266.363 16.6564C248.682 -2.0356 228.938 0.503022 213.967 1.50111L214.033 2.49889ZM265.589 17.2841L280.089 38.2841L280.911 37.7159L266.411 16.7159L265.589 17.2841Z" fill="url(#paint0_linear_2144_3550)"/>
<defs>
<linearGradient id="paint0_linear_2144_3550" x1="280.5" y1="4.82725" x2="146.823" y2="159.998" gradientUnits="userSpaceOnUse">
<stop stop-color="#9158DB"/>
<stop offset="1" stop-color="white"/>
</linearGradient>
</defs>
</svg>
