<svg width="16" height="16" viewBox="0 0 16 16" fill="none" xmlns="http://www.w3.org/2000/svg">
<g clip-path="url(#clip0_2121_67)">
<path d="M19.3044 0.521729H-2.60864V15.4783H19.3044V0.521729Z" fill="#00336C"/>
<path d="M10.5497 0.521729H6.14966V15.4783H10.5497V0.521729Z" fill="white"/>
<path d="M19.3044 5.80173H-2.60864V10.1982H19.3044V5.80173Z" fill="white"/>
<path d="M19.3044 12.4626V15.4783H18.4001L-2.60864 3.48521V0.521729H-1.61386L19.3044 12.4626Z" fill="white"/>
<path d="M19.3044 0.521729V3.49912L-1.67995 15.4783H-2.60864V12.4765L18.334 0.521729H19.3044Z" fill="white"/>
<path d="M9.74946 0.521729H6.94946V15.4783H9.74946V0.521729Z" fill="#E0011E"/>
<path d="M19.3042 13.0087V14.1565L12.3721 10.1983H14.3825L19.3042 13.0087Z" fill="#E0011E"/>
<path d="M4.60527 5.80176H2.59484L-2.60864 2.83133V1.6835L4.60527 5.80176Z" fill="#E0011E"/>
<path d="M19.3044 0.521729V1.65912L12.0488 5.80173H10.0383L19.287 0.521729H19.3044Z" fill="#E0011E"/>
<path d="M6.4244 10.1983L-2.60864 15.3565V14.2087L4.41397 10.1983H6.4244Z" fill="#E0011E"/>
<path d="M19.3047 9.4012L19.3047 6.6012L-2.60836 6.60158L-2.60831 9.40158L19.3047 9.4012Z" fill="#E0011E"/>
</g>
<defs>
<clipPath id="clip0_2121_67">
<rect width="16" height="16" rx="8" fill="white"/>
</clipPath>
</defs>
</svg>
