<svg width="1846" height="1755" viewBox="0 0 1846 1755" fill="none" xmlns="http://www.w3.org/2000/svg">
<path opacity="0.0144928" d="M1154.7 1338.32C1151.39 1348.73 1141.6 1355.7 1130.69 1355.4L826.312 1347.21C819.857 1347.04 813.731 1344.32 809.268 1339.66L506.994 1023.71C503.484 1020.04 501.2 1015.37 500.46 1010.34L444.658 631.914C443.315 622.805 447.193 613.712 454.696 608.375L670.818 454.653C678.321 449.317 688.183 448.637 696.347 452.895L1035.52 629.77C1040.02 632.118 1043.68 635.808 1046 640.328L1245.28 1029.53C1248.23 1035.28 1248.78 1041.96 1246.83 1048.11L1154.7 1338.32Z" stroke="url(#paint0_linear_2082_17)"/>
<path opacity="0.0289855" d="M1188.04 1303.57C1185.27 1314.1 1175.89 1321.55 1165 1321.84L862.821 1330.02C856.357 1330.2 850.085 1327.81 845.374 1323.38L529.773 1026.59C526.062 1023.1 523.531 1018.55 522.533 1013.55L448.157 641.699C446.354 632.682 449.751 623.415 456.956 617.7L663.494 453.863C670.698 448.149 680.496 446.949 688.866 450.757L1034.04 607.801C1038.67 609.91 1042.54 613.412 1045.09 617.819L1262.27 992.677C1265.51 998.273 1266.41 1004.92 1264.77 1011.18L1188.04 1303.57Z" stroke="url(#paint1_linear_2082_17)"/>
<path opacity="0.0434783" d="M1220.09 1268.04C1217.87 1278.67 1208.91 1286.57 1198.09 1287.45L898.973 1311.74C892.518 1312.27 886.118 1310.21 881.172 1306.03L553.413 1028.93C549.512 1025.64 546.739 1021.2 545.483 1016.25L453.066 651.874C450.808 642.973 453.718 633.556 460.604 627.48L657.096 454.107C663.983 448.031 673.688 446.317 682.24 449.665L1032.27 586.739C1037.03 588.602 1041.08 591.905 1043.87 596.187L1277.99 955.902C1281.53 961.33 1282.77 967.936 1281.44 974.275L1220.09 1268.04Z" stroke="url(#paint2_linear_2082_17)"/>
<path opacity="0.057971" d="M1250.82 1231.8C1249.15 1242.5 1240.64 1250.84 1229.91 1252.29L934.714 1292.4C928.287 1293.28 921.776 1291.57 916.608 1287.65L577.88 1030.69C573.797 1027.59 570.788 1023.29 569.277 1018.39L459.392 662.358C456.687 653.595 459.104 644.055 465.654 637.635L651.672 455.326C658.222 448.906 667.808 446.683 676.515 449.563L1030.27 566.593C1035.13 568.203 1039.37 571.298 1042.38 575.442L1292.47 919.276C1296.29 924.521 1297.87 931.065 1296.86 937.473L1250.82 1231.8Z" stroke="url(#paint3_linear_2082_17)"/>
<path opacity="0.0724638" d="M1280.2 1194.95C1279.08 1205.69 1271.05 1214.43 1260.44 1216.46L969.991 1272.04C963.611 1273.26 957.007 1271.9 951.631 1268.25L603.135 1031.81C598.881 1028.92 595.642 1024.77 593.878 1019.94L467.141 673.07C463.998 664.467 465.915 654.83 472.112 648.085L647.262 457.456C653.459 450.712 662.899 447.987 671.737 450.392L1028.08 547.37C1033.04 548.72 1037.45 551.597 1040.68 555.592L1305.72 882.867C1309.81 887.915 1311.72 894.38 1311.05 900.841L1280.2 1194.95Z" stroke="url(#paint4_linear_2082_17)"/>
<path opacity="0.0869565" d="M1308.22 1157.55C1307.64 1168.31 1300.11 1177.42 1289.65 1180.02L1004.75 1250.68C998.437 1252.25 991.759 1251.24 986.189 1247.87L629.137 1032.27C624.722 1029.6 621.261 1025.61 619.247 1020.86L476.31 683.929C472.739 675.509 474.154 665.801 479.981 658.751L643.906 460.436C649.733 453.387 659.001 450.17 667.943 452.094L1025.76 529.074C1030.8 530.158 1035.37 532.807 1038.82 536.641L1317.76 846.743C1322.11 851.58 1324.36 857.949 1324.01 864.445L1308.22 1157.55Z" stroke="url(#paint5_linear_2082_17)"/>
<path opacity="0.101449" d="M1334.85 1119.7C1334.82 1130.43 1327.8 1139.9 1317.53 1143.04L1038.95 1228.36C1032.72 1230.27 1025.99 1229.62 1020.24 1226.55L655.849 1032.02C651.285 1029.58 647.609 1025.76 645.349 1021.11L486.9 694.852C482.91 686.636 483.821 676.883 489.263 669.549L641.642 464.197C647.084 456.863 656.155 453.164 665.174 454.602L1023.35 511.7C1028.46 512.514 1033.18 514.926 1036.83 518.588L1328.62 810.965C1333.22 815.577 1335.8 821.833 1335.78 828.349L1334.85 1119.7Z" stroke="url(#paint6_linear_2082_17)"/>
<path opacity="0.115942" d="M1360.09 1081.46C1360.6 1092.15 1354.1 1101.94 1344.05 1105.62L1072.55 1205.13C1066.42 1207.37 1059.65 1207.08 1053.74 1204.32L683.224 1031.03C678.522 1028.83 674.64 1025.2 672.138 1020.65L498.897 705.762C494.501 697.772 494.907 688.001 499.951 680.403L640.499 468.675C645.543 461.077 654.389 456.909 663.46 457.858L1020.91 495.249C1026.07 495.789 1030.93 497.955 1034.78 501.435L1338.33 775.599C1343.17 779.974 1346.07 786.1 1346.38 792.619L1360.09 1081.46Z" stroke="url(#paint7_linear_2082_17)"/>
<path opacity="0.130435" d="M1383.93 1042.92C1384.97 1053.54 1379.02 1063.62 1369.21 1067.83L1105.49 1181.02C1099.48 1183.6 1092.7 1183.67 1086.64 1181.21L711.219 1029.27C706.392 1027.32 702.312 1023.88 699.573 1019.45L512.29 716.582C507.5 708.837 507.402 699.074 512.034 691.234L640.505 473.801C645.138 465.96 653.736 461.336 662.831 461.795L1018.48 479.717C1023.68 479.979 1028.66 481.892 1032.7 485.178L1346.91 740.707C1351.98 744.831 1355.2 750.811 1355.84 757.316L1383.93 1042.92Z" stroke="url(#paint8_linear_2082_17)"/>
<path opacity="0.144928" d="M1406.36 1004.16C1407.93 1014.69 1402.53 1025.03 1393 1029.75L1137.74 1156.07C1131.88 1158.98 1125.09 1159.41 1118.9 1157.28L739.788 1026.72C734.847 1025.02 730.579 1021.78 727.609 1017.48L527.06 727.234C521.891 719.753 521.29 710.024 525.5 701.964L641.684 479.506C645.893 471.446 654.22 466.38 663.313 466.348L1016.11 465.093C1021.33 465.075 1026.43 466.728 1030.65 469.81L1354.41 706.345C1359.7 710.208 1363.22 716.025 1364.19 722.5L1406.36 1004.16Z" stroke="url(#paint9_linear_2082_17)"/>
<path opacity="0.15942" d="M1427.38 965.261C1429.48 975.661 1424.65 986.231 1415.41 991.446L1169.27 1130.34C1163.56 1133.56 1156.79 1134.36 1150.49 1132.55L768.882 1023.34C763.841 1021.9 759.395 1018.88 756.199 1014.72L543.186 737.641C537.652 730.443 536.553 720.775 540.329 712.519L644.054 485.72C647.83 477.464 655.863 471.972 664.927 471.451L1013.85 451.369C1019.08 451.068 1024.27 452.454 1028.66 455.324L1360.86 672.57C1366.35 676.16 1370.17 681.799 1371.47 688.228L1427.38 965.261Z" stroke="url(#paint10_linear_2082_17)"/>
<path opacity="0.173913" d="M1447.01 926.299C1449.63 936.548 1445.37 947.317 1436.45 953.007L1200.04 1103.85C1194.5 1107.39 1187.77 1108.55 1181.37 1107.08L798.454 1019.12C793.326 1017.94 788.713 1015.14 785.298 1011.14L560.641 747.732C554.759 740.835 553.166 731.253 556.499 722.823L647.633 492.374C650.966 483.944 658.682 478.044 667.691 477.036L1011.74 438.532C1016.97 437.946 1022.25 439.06 1026.8 441.708L1366.31 639.436C1371.98 642.742 1376.09 648.189 1377.72 654.554L1447.01 926.299Z" stroke="url(#paint11_linear_2082_17)"/>
<path opacity="0.188406" d="M1465.25 887.355C1468.37 897.427 1464.7 908.364 1456.13 914.508L1230 1076.68C1224.66 1080.51 1217.99 1082.04 1211.51 1080.91L828.453 1014.02C823.251 1013.12 818.482 1010.55 814.856 1006.71L579.396 757.436C573.181 750.856 571.099 741.386 573.983 732.807L652.428 499.399C655.312 490.82 662.69 484.529 671.617 483.038L1009.84 426.567C1015.04 425.697 1020.39 426.534 1025.09 428.951L1370.79 606.996C1376.64 610.008 1381.03 615.247 1382.97 621.532L1465.25 887.355Z" stroke="url(#paint12_linear_2082_17)"/>
<path opacity="0.202899" d="M1482.12 848.501C1485.73 858.371 1482.65 869.444 1474.45 876.023L1259.15 1048.86C1254.01 1052.98 1247.43 1054.86 1240.88 1054.07L858.83 1008.05C853.569 1007.41 848.655 1005.09 844.825 1001.43L599.417 766.681C592.887 760.435 590.325 751.102 592.752 742.398L658.451 506.721C660.877 498.017 667.898 491.355 676.717 489.388L1008.18 415.455C1013.35 414.301 1018.75 414.856 1023.59 417.035L1374.35 575.294C1380.36 578.004 1385.02 583.021 1387.29 589.21L1482.12 848.501Z" stroke="url(#paint13_linear_2082_17)"/>
<path opacity="0.217391" d="M1497.64 809.817C1501.73 819.46 1499.24 830.637 1491.44 837.627L1287.45 1020.44C1282.53 1024.84 1276.04 1027.08 1269.46 1026.64L889.533 1001.17C884.226 1000.81 879.179 998.742 875.155 995.265L620.666 775.405C613.839 769.507 610.806 760.335 612.77 751.53L665.702 514.276C667.666 505.471 674.311 498.458 682.996 496.021L1006.8 405.18C1011.92 403.743 1017.37 404.012 1022.33 405.946L1377.05 544.38C1383.2 546.78 1388.12 551.56 1390.7 557.638L1497.64 809.817Z" stroke="url(#paint14_linear_2082_17)"/>
<path opacity="0.231884" d="M1511.83 771.373C1516.38 780.767 1514.48 792.015 1507.1 799.394L1314.87 991.472C1310.19 996.147 1303.82 998.731 1297.21 998.639L920.51 993.384C915.172 993.31 910.005 991.494 905.794 988.213L643.102 783.541C635.997 778.006 632.503 769.019 634.001 760.138L674.181 521.991C675.68 513.11 681.93 505.767 690.457 502.87L1005.76 395.718C1010.81 394 1016.29 393.98 1021.36 395.661L1378.93 514.293C1385.21 516.376 1390.38 520.907 1393.26 526.857L1511.83 771.373Z" stroke="url(#paint15_linear_2082_17)"/>
<path opacity="0.246377" d="M1524.71 733.242C1529.72 742.363 1528.42 753.65 1521.47 761.393L1341.4 962.013C1336.98 966.943 1330.75 969.871 1324.13 970.13L951.711 984.678C946.357 984.887 941.082 983.335 936.694 980.26L666.682 791.029C659.32 785.869 655.375 777.091 656.404 768.159L683.886 529.797C684.916 520.866 690.755 513.216 699.098 509.866L1005.09 387.045C1010.06 385.049 1015.55 384.738 1020.72 386.16L1380.05 485.074C1386.44 486.832 1391.84 491.101 1395.03 496.909L1524.71 733.242Z" stroke="url(#paint16_linear_2082_17)"/>
<path opacity="0.26087" d="M1536.32 695.49C1541.76 704.317 1541.06 715.612 1534.56 723.692L1367.02 932.112C1362.87 937.284 1356.79 940.549 1350.18 941.159L983.083 975.046C977.727 975.54 972.358 974.258 967.802 971.398L691.359 797.809C683.758 793.036 679.375 784.49 679.935 775.532L694.806 537.627C695.366 528.67 700.779 520.735 708.915 516.946L1004.82 379.134C1009.7 376.864 1015.19 376.261 1020.44 377.418L1380.46 456.756C1386.94 458.184 1392.56 462.18 1396.05 467.829L1536.32 695.49Z" stroke="url(#paint17_linear_2082_17)"/>
<path opacity="0.275362" d="M1546.7 658.186C1552.55 666.698 1552.44 677.968 1546.42 686.36L1391.72 901.822C1387.84 907.222 1381.94 910.815 1375.36 911.776L1014.58 964.485C1009.23 965.266 1003.78 964.26 999.069 961.623L717.082 803.829C709.264 799.454 704.457 791.16 704.547 782.202L706.931 545.415C707.021 536.457 711.994 528.262 719.899 524.045L1005.01 371.96C1009.77 369.419 1015.24 368.523 1020.57 369.411L1380.22 429.373C1386.78 430.466 1392.61 434.177 1396.37 439.654L1546.7 658.186Z" stroke="url(#paint18_linear_2082_17)"/>
<path opacity="0.289855" d="M1555.87 621.396C1562.13 629.573 1562.6 640.787 1557.06 649.463L1415.48 871.197C1411.9 876.81 1406.18 880.722 1399.65 882.033L1046.13 952.998C1040.82 954.065 1035.3 953.339 1030.44 950.934L743.797 809.037C735.783 805.069 730.566 797.05 730.188 788.115L720.243 553.097C719.865 544.162 724.385 535.731 732.035 531.101L1005.67 365.494C1010.3 362.687 1015.74 361.497 1021.13 362.111L1379.38 402.955C1386 403.709 1392.02 407.125 1396.07 412.415L1555.87 621.396Z" stroke="url(#paint19_linear_2082_17)"/>
<path opacity="0.304348" d="M1563.89 585.177C1570.52 593.001 1571.58 604.127 1566.54 613.059L1438.3 840.289C1435.02 846.099 1429.52 850.321 1423.05 851.979L1077.71 940.584C1072.44 941.936 1066.86 941.495 1061.87 939.33L771.451 813.382C763.262 809.831 757.652 802.107 756.809 793.221L734.725 560.606C733.882 551.72 737.938 543.078 745.312 538.049L1006.84 359.701C1011.34 356.635 1016.73 355.153 1022.16 355.49L1378.01 377.525C1384.67 377.938 1390.87 381.048 1395.19 386.137L1563.89 585.177Z" stroke="url(#paint20_linear_2082_17)"/>
<path opacity="0.318841" d="M1570.79 549.589C1577.78 557.042 1579.41 568.051 1574.88 577.21L1460.17 809.151C1457.21 815.142 1451.93 819.663 1445.55 821.665L1109.25 927.25C1104.03 928.887 1098.42 928.733 1093.31 926.815L799.986 816.823C791.644 813.694 785.658 806.284 784.353 797.471L750.355 567.881C749.05 559.068 752.632 550.241 759.709 544.83L1008.57 354.552C1012.91 351.233 1018.23 349.46 1023.7 349.516L1376.16 353.107C1382.85 353.175 1389.21 355.971 1393.79 360.846L1570.79 549.589Z" stroke="url(#paint21_linear_2082_17)"/>
<path opacity="0.333333" d="M1576.63 514.69C1583.95 521.756 1586.15 532.617 1582.14 541.973L1481.09 777.838C1478.45 783.993 1473.41 788.8 1467.14 791.142L1140.7 913.006C1135.56 914.925 1129.93 915.063 1124.7 913.397L829.342 819.318C820.869 816.619 814.524 809.542 812.763 800.826L767.106 574.865C765.345 566.149 768.445 557.163 775.205 551.386L1010.86 350.012C1015.03 346.448 1020.28 344.386 1025.76 344.159L1373.91 329.719C1380.6 329.442 1387.11 331.915 1391.93 336.563L1576.63 514.69Z" stroke="url(#paint22_linear_2082_17)"/>
<path opacity="0.347826" d="M1581.45 480.53C1589.09 487.194 1591.84 497.877 1588.36 507.401L1501.06 746.4C1498.76 752.702 1493.97 757.784 1487.82 760.46L1172.02 897.862C1166.97 900.06 1161.32 900.491 1156 899.085L859.457 820.829C850.876 818.565 844.191 811.837 841.98 803.243L784.95 581.496C782.739 572.902 785.349 563.784 791.773 557.66L1013.76 346.046C1017.75 342.244 1022.9 339.898 1028.39 339.385L1371.29 307.376C1377.97 306.752 1384.62 308.895 1389.67 313.304L1581.45 480.53Z" stroke="url(#paint23_linear_2082_17)"/>
<path opacity="0.362319" d="M1585.3 447.156C1593.24 453.404 1596.52 463.881 1593.58 473.543L1520.08 714.89C1518.13 721.319 1513.61 726.662 1507.6 729.667L1203.16 881.83C1198.21 884.304 1192.57 885.029 1187.15 883.888L890.268 821.323C881.602 819.497 874.596 813.136 871.945 804.686L803.855 587.72C801.203 579.269 803.318 570.046 809.387 563.596L1017.29 342.616C1021.08 338.586 1026.12 335.958 1031.6 335.16L1368.39 286.087C1375.04 285.117 1381.8 286.923 1387.08 291.081L1585.3 447.156Z" stroke="url(#paint24_linear_2082_17)"/>
<path opacity="0.376812" d="M1588.24 414.617C1596.45 420.437 1600.26 430.68 1597.86 440.448L1538.17 683.359C1536.56 689.898 1532.33 695.488 1526.48 698.814L1234.06 864.929C1229.23 867.674 1223.61 868.695 1218.12 867.824L921.712 820.771C912.983 819.386 905.677 813.406 902.593 805.124L823.786 593.482C820.702 585.2 822.318 575.898 828.015 569.141L1021.47 339.686C1025.05 335.437 1029.97 332.532 1035.42 331.448L1365.26 265.861C1371.87 264.548 1378.72 266.011 1384.21 269.907L1588.24 414.617Z" stroke="url(#paint25_linear_2082_17)"/>
<path opacity="0.391304" d="M1590.33 382.954C1598.79 388.333 1603.11 398.315 1601.25 408.16L1555.32 651.857C1554.07 658.488 1550.14 664.309 1544.46 667.949L1264.69 847.178C1259.99 850.189 1254.41 851.505 1248.86 850.908L953.721 819.148C944.952 818.205 937.367 812.621 933.861 804.528L844.707 598.733C841.201 590.641 842.315 581.288 847.624 574.246L1026.31 337.217C1029.67 332.759 1034.46 329.583 1039.87 328.214L1361.97 246.703C1368.51 245.048 1375.44 246.163 1381.13 249.786L1590.33 382.954Z" stroke="url(#paint26_linear_2082_17)"/>
<path opacity="0.405797" d="M1591.63 352.203C1600.3 357.133 1605.12 366.828 1603.81 376.718L1571.55 620.434C1570.67 627.136 1567.05 633.173 1561.56 637.117L1295 828.597C1290.45 831.868 1284.91 833.478 1279.31 833.159L986.23 816.432C977.444 815.93 969.602 810.755 965.686 802.874L866.577 603.424C862.661 595.543 863.273 586.167 868.179 578.861L1031.85 335.169C1034.98 330.514 1039.61 327.073 1044.97 325.419L1358.57 228.612C1365.03 226.618 1372.02 227.381 1377.9 230.722L1591.63 352.203Z" stroke="url(#paint27_linear_2082_17)"/>
<path opacity="0.42029" d="M1592.19 322.402C1601.06 326.873 1606.36 336.257 1605.59 346.161L1586.88 589.139C1586.36 595.892 1583.07 602.129 1577.78 606.368L1324.94 809.211C1320.55 812.735 1315.07 814.639 1309.44 814.6L1019.17 812.605C1010.39 812.545 1002.31 807.79 998 800.142L889.355 607.509C885.041 599.861 885.15 590.489 889.641 582.943L1038.1 333.504C1040.98 328.663 1045.44 324.964 1050.73 323.027L1355.13 211.585C1361.49 209.257 1368.53 209.665 1374.58 212.714L1592.19 322.402Z" stroke="url(#paint28_linear_2082_17)"/>
<path opacity="0.434783" d="M1592.08 293.577C1601.12 297.582 1606.87 306.631 1606.65 316.519L1601.32 558.015C1601.17 564.8 1598.21 571.219 1593.15 575.742L1354.48 789.043C1350.26 792.814 1344.86 795.008 1339.21 795.252L1052.48 807.653C1043.73 808.032 1035.44 803.708 1030.74 796.312L912.996 610.944C908.298 603.548 907.908 594.207 911.971 586.445L1045.07 332.177C1047.69 327.164 1051.97 323.214 1057.18 320.997L1351.7 195.615C1357.95 192.956 1365.01 193.007 1371.22 195.756L1592.08 293.577Z" stroke="url(#paint29_linear_2082_17)"/>
<path opacity="0.449275" d="M1591.36 265.758C1600.55 269.292 1606.73 277.983 1607.06 287.824L1614.89 527.111C1615.12 533.908 1612.5 540.492 1607.68 545.287L1383.56 768.125C1379.53 772.134 1374.23 774.615 1368.57 775.145L1086.08 801.568C1077.38 802.383 1068.9 798.498 1063.84 791.375L937.454 613.69C932.387 606.567 931.499 597.285 935.124 589.331L1052.77 331.152C1055.13 325.978 1059.21 321.786 1064.32 319.292L1348.36 180.692C1354.47 177.71 1361.54 177.402 1367.89 179.843L1591.36 265.758Z" stroke="url(#paint30_linear_2082_17)"/>
<path opacity="0.463768" d="M1590.09 238.969C1599.41 242.027 1606 250.34 1606.86 260.104L1627.62 496.471C1628.22 503.26 1625.96 509.99 1621.39 515.045L1412.16 746.487C1408.33 750.724 1403.14 753.49 1397.49 754.306L1119.92 794.346C1111.28 795.591 1102.64 792.155 1097.22 785.323L962.68 615.713C957.261 608.881 955.881 599.684 959.057 591.562L1061.21 330.386C1063.29 325.066 1067.17 320.64 1072.17 317.874L1345.15 166.805C1351.11 163.505 1358.18 162.838 1364.65 164.964L1590.09 238.969Z" stroke="url(#paint31_linear_2082_17)"/>
<path opacity="0.478261" d="M1588.34 213.227C1597.75 215.804 1604.74 223.719 1606.12 233.376L1639.52 466.135C1640.49 472.894 1638.6 479.752 1634.29 485.054L1440.24 724.158C1436.62 728.615 1431.56 731.661 1425.92 732.763L1153.91 785.981C1145.37 787.652 1136.59 784.67 1130.84 778.147L988.627 616.974C982.872 610.451 981.007 601.366 983.727 593.103L1070.41 329.836C1072.2 324.384 1075.85 319.735 1080.73 316.7L1342.13 153.933C1347.93 150.324 1354.97 149.298 1361.56 151.102L1588.34 213.227Z" stroke="url(#paint32_linear_2082_17)"/>
<path opacity="0.492754" d="M1586.18 188.547C1595.66 190.644 1603.01 198.142 1604.91 207.663L1650.63 436.146C1651.97 442.855 1650.45 449.821 1646.42 455.356L1467.76 701.174C1464.37 705.841 1459.44 709.161 1453.84 710.55L1188 776.48C1179.58 778.568 1170.68 776.046 1164.61 769.849L1015.24 617.447C1009.17 611.25 1006.83 602.302 1009.08 593.923L1080.35 329.463C1081.85 323.892 1085.27 319.03 1090.01 315.733L1339.37 142.06C1344.99 138.149 1351.98 136.765 1358.66 138.242L1586.18 188.547Z" stroke="url(#paint33_linear_2082_17)"/>
<path opacity="0.507246" d="M1583.66 164.942C1593.19 166.556 1600.88 173.62 1603.29 182.977L1660.96 406.54C1662.68 413.18 1661.53 420.233 1657.8 425.987L1494.7 677.571C1491.54 682.436 1486.77 686.025 1481.21 687.699L1222.12 765.846C1213.83 768.345 1204.84 766.287 1198.47 760.431L1042.47 617.102C1036.1 611.246 1033.29 602.462 1035.08 593.994L1091.06 329.223C1092.26 323.55 1095.43 318.486 1100.01 314.932L1336.92 131.161C1342.33 126.958 1349.27 125.218 1356.03 126.363L1583.66 164.942Z" stroke="url(#paint34_linear_2082_17)"/>
<path opacity="0.521739" d="M1580.86 142.418C1590.41 143.552 1598.41 150.167 1601.32 159.331L1670.56 377.356C1672.64 383.905 1671.87 391.027 1668.45 396.984L1521.01 653.386C1518.11 658.438 1513.5 662.29 1508.01 664.248L1256.2 754.091C1248.07 756.992 1239.01 755.4 1232.36 749.9L1070.27 615.918C1063.62 610.418 1060.35 601.821 1061.67 593.29L1102.52 329.077C1103.41 323.317 1106.33 318.063 1110.74 314.259L1334.82 121.21C1340.02 116.725 1346.87 114.632 1353.7 115.443L1580.86 142.418Z" stroke="url(#paint35_linear_2082_17)"/>
<path opacity="0.536232" d="M1577.83 120.978C1587.38 121.634 1595.67 127.785 1599.06 136.731L1679.45 348.626C1681.89 355.065 1681.51 362.235 1678.4 368.379L1546.68 628.656C1544.04 633.884 1539.61 637.99 1534.19 640.231L1290.18 741.228C1282.23 744.521 1273.13 743.396 1266.21 738.265L1098.57 613.87C1091.66 608.74 1087.95 600.356 1088.79 591.788L1114.74 328.982C1115.31 323.151 1117.96 317.72 1122.2 313.673L1333.13 112.178C1338.11 107.421 1344.86 104.98 1351.73 105.452L1577.83 120.978Z" stroke="url(#paint36_linear_2082_17)"/>
<path opacity="0.550725" d="M1574.65 100.623C1584.17 100.803 1592.72 106.479 1596.58 115.179L1687.66 320.385C1690.46 326.693 1690.47 333.889 1687.68 340.205L1571.68 603.422C1569.3 608.812 1565.07 613.166 1559.74 615.686L1324 727.273C1316.24 730.947 1307.12 730.29 1299.97 725.541L1127.33 610.944C1120.18 606.195 1116.04 598.048 1116.41 589.47L1127.71 328.897C1127.97 323.012 1130.33 317.417 1134.38 313.135L1331.91 104.034C1336.65 99.0169 1343.28 96.2315 1350.18 96.3625L1574.65 100.623Z" stroke="url(#paint37_linear_2082_17)"/>
<path opacity="0.565217" d="M1571.38 81.349C1580.84 81.0597 1589.62 86.2494 1593.93 94.6785L1695.23 292.663C1698.38 298.821 1698.78 306.023 1696.33 312.492L1595.98 577.727C1593.89 583.266 1589.86 587.859 1584.63 590.655L1357.59 712.251C1350.05 716.293 1340.93 716.102 1333.56 711.747L1156.49 607.125C1149.12 602.77 1144.56 594.882 1144.46 586.32L1141.43 328.786C1141.36 322.864 1143.44 317.117 1147.28 312.609L1331.19 96.7446C1335.67 91.4797 1342.17 88.356 1349.09 88.1447L1571.38 81.349Z" stroke="url(#paint38_linear_2082_17)"/>
<path opacity="0.57971" d="M1568.07 63.1476C1577.46 62.3946 1586.44 67.0888 1591.19 75.2231L1702.19 265.487C1705.69 271.475 1706.48 278.662 1704.38 285.267L1619.57 551.611C1617.76 557.286 1613.95 562.108 1608.85 565.176L1390.9 696.183C1383.58 700.581 1374.5 700.853 1366.94 696.901L1186 602.403C1178.43 598.45 1173.47 590.844 1172.9 582.325L1155.88 328.606C1155.49 322.664 1157.26 316.78 1160.89 312.055L1331.02 90.2718C1335.24 84.7717 1341.59 81.3163 1348.5 80.762L1568.07 63.1476Z" stroke="url(#paint39_linear_2082_17)"/>
<path opacity="0.594203" d="M1564.8 46.008C1574.08 44.7987 1583.25 48.9899 1588.41 56.8064L1708.59 238.884C1712.42 244.682 1713.6 251.833 1711.85 258.556L1642.42 525.117C1640.91 530.913 1637.33 535.955 1632.36 539.291L1423.87 679.097C1416.8 683.838 1407.77 684.57 1400.03 681.029L1215.8 596.769C1208.05 593.229 1202.71 585.924 1201.67 577.475L1171.07 328.32C1170.34 322.376 1171.81 316.37 1175.21 311.437L1331.44 84.5773C1335.38 78.8555 1341.57 75.0758 1348.46 74.1787L1564.8 46.008Z" stroke="url(#paint40_linear_2082_17)"/>
<path opacity="0.608696" d="M1561.61 29.9144C1570.78 28.2574 1580.09 31.9397 1585.64 39.4167L1714.46 212.876C1718.61 218.466 1720.18 225.559 1718.79 232.381L1664.53 498.289C1663.32 504.191 1659.99 509.442 1655.16 513.04L1456.44 661.024C1449.63 666.093 1440.68 667.278 1432.79 664.157L1245.83 590.22C1237.93 587.099 1232.22 580.116 1230.72 571.763L1186.97 327.89C1185.9 321.961 1187.06 315.848 1190.22 310.718L1332.5 79.6192C1336.15 73.6898 1342.15 69.5938 1349 68.355L1561.61 29.9144Z" stroke="url(#paint41_linear_2082_17)"/>
<path opacity="0.623188" d="M1558.58 14.8496C1567.6 12.7549 1577.03 15.9242 1582.96 23.0412L1719.83 187.485C1724.29 192.849 1726.26 199.863 1725.23 206.766L1685.87 471.171C1684.98 477.165 1681.9 482.615 1677.22 486.469L1488.55 641.998C1482.03 647.38 1473.18 649.012 1465.16 646.317L1276.04 582.754C1268.02 580.059 1261.96 573.418 1260 565.186L1203.56 327.279C1202.17 321.383 1203 315.179 1205.91 309.863L1334.23 75.3554C1337.58 69.233 1343.38 64.8299 1350.18 63.251L1558.58 14.8496Z" stroke="url(#paint42_linear_2082_17)"/>
<path opacity="0.637681" d="M1555.76 0.791969C1564.62 -1.72962 1574.14 0.924111 1580.41 7.66208L1724.75 162.73C1729.52 167.85 1731.87 174.764 1731.21 181.728L1706.44 443.809C1705.87 449.878 1703.05 455.515 1698.55 459.619L1520.17 622.056C1513.94 627.734 1505.22 629.806 1497.1 627.542L1306.38 574.375C1298.25 572.111 1291.86 565.828 1289.47 557.743L1220.85 326.452C1219.12 320.608 1219.62 314.328 1222.27 308.838L1336.66 71.7407C1339.7 65.4405 1345.29 60.74 1352.02 58.8238L1555.76 0.791969Z" stroke="url(#paint43_linear_2082_17)"/>
<path opacity="0.652174" d="M1553.21 -12.2838C1561.87 -15.2201 1571.45 -13.0828 1578.05 -6.74148L1729.26 138.626C1734.31 143.486 1737.04 150.278 1736.76 157.283L1726.23 416.247C1725.98 422.374 1723.44 428.186 1719.12 432.533L1551.24 601.236C1545.31 607.194 1536.74 609.697 1528.54 607.866L1336.79 565.087C1328.58 563.257 1321.89 557.349 1319.06 549.436L1238.8 325.374C1236.73 319.6 1236.91 313.261 1239.29 307.608L1339.83 68.7281C1342.55 62.2658 1347.91 57.2784 1354.55 55.0284L1553.21 -12.2838Z" stroke="url(#paint44_linear_2082_17)"/>
<path opacity="0.666667" d="M1550.97 -24.4053C1559.43 -27.7432 1569.04 -26.1215 1575.93 -20.1931L1733.39 115.188C1738.72 119.77 1741.83 126.419 1741.92 133.447L1745.24 388.529C1745.32 394.7 1743.06 400.674 1738.93 405.256L1581.71 579.58C1576.1 585.8 1567.7 588.723 1559.44 587.33L1367.22 554.898C1358.96 553.504 1351.98 547.987 1348.72 540.27L1257.4 324.012C1255 318.327 1254.83 311.945 1256.94 306.142L1343.76 66.2695C1346.15 59.6612 1351.27 54.3983 1357.81 51.8186L1550.97 -24.4053Z" stroke="url(#paint45_linear_2082_17)"/>
<path opacity="0.681159" d="M1549.1 -35.6019C1557.33 -39.3273 1566.95 -38.2188 1574.12 -32.7177L1737.2 92.4275C1742.79 96.7161 1746.26 103.203 1746.73 110.232L1763.45 360.703C1763.87 366.9 1761.91 373.022 1757.98 377.833L1611.55 557.133C1606.26 563.598 1598.06 566.93 1589.76 565.974L1397.62 543.821C1389.33 542.865 1382.09 537.753 1378.42 530.255L1276.63 322.336C1273.9 316.758 1273.39 310.351 1275.2 304.41L1348.48 64.3169C1350.54 57.5792 1355.4 52.0527 1361.82 49.1483L1549.1 -35.6019Z" stroke="url(#paint46_linear_2082_17)"/>
<path opacity="0.695652" d="M1547.65 -45.9083C1555.64 -50.0061 1565.23 -49.4067 1572.64 -44.346L1740.71 70.3525C1746.55 74.3331 1750.38 80.6367 1751.22 87.6471L1780.88 332.811C1781.63 339.017 1779.98 345.276 1776.27 350.305L1640.7 533.94C1635.76 540.631 1627.77 544.36 1619.46 543.841L1427.94 531.869C1419.64 531.35 1412.17 526.655 1408.1 519.4L1296.46 320.313C1293.4 314.86 1292.55 308.446 1294.06 302.381L1354.02 62.8185C1355.73 55.9682 1360.32 50.1908 1366.6 46.9676L1547.65 -45.9083Z" stroke="url(#paint47_linear_2082_17)"/>
<path opacity="0.710145" d="M1546.66 -55.3603C1554.39 -59.8146 1563.93 -59.7186 1571.56 -55.1096L1743.98 48.9698C1750.04 52.628 1754.22 58.7284 1755.45 65.7001L1797.52 304.9C1798.61 311.098 1797.28 317.477 1793.79 322.716L1669.15 510.049C1664.56 516.948 1656.79 521.059 1648.5 520.976L1458.14 519.059C1449.85 518.976 1442.17 514.709 1437.72 507.719L1316.87 317.915C1313.49 312.607 1312.29 306.202 1313.5 300.027L1360.38 61.7228C1361.75 54.7773 1366.05 48.7622 1372.19 45.2268L1546.66 -55.3603Z" stroke="url(#paint48_linear_2082_17)"/>
<path opacity="0.724638" d="M1546.19 -63.9964C1553.64 -68.7903 1563.09 -69.1905 1570.92 -65.043L1747.04 28.2831C1753.31 31.6057 1757.83 37.4834 1759.43 44.3959L1813.38 277.013C1814.81 283.184 1813.8 289.67 1810.55 295.11L1696.85 485.509C1692.61 492.597 1685.1 497.077 1676.85 497.426L1488.16 505.411C1479.91 505.76 1472.04 501.931 1467.22 495.226L1337.84 315.114C1334.14 309.969 1332.58 303.591 1333.49 297.321L1367.6 60.9776C1368.61 53.9544 1372.62 47.7156 1378.58 43.8752L1546.19 -63.9964Z" stroke="url(#paint49_linear_2082_17)"/>
<path opacity="0.73913" d="M1546.26 -71.8548C1553.42 -76.9708 1562.76 -77.8584 1570.75 -74.1802L1749.92 8.29662C1756.39 11.2711 1761.24 16.9072 1763.21 23.7402L1828.47 249.195C1830.24 255.323 1829.56 261.901 1826.55 267.531L1723.77 460.375C1719.9 467.632 1712.65 472.464 1704.46 473.242L1517.95 490.948C1509.77 491.725 1501.74 488.344 1496.57 481.944L1359.33 311.887C1355.33 306.923 1353.41 300.591 1354 294.239L1375.67 60.5324C1376.32 53.4493 1380.03 47.0013 1385.81 42.864L1546.26 -71.8548Z" stroke="url(#paint50_linear_2082_17)"/>
<path opacity="0.753623" d="M1546.92 -78.9817C1553.77 -84.4015 1562.99 -85.7661 1571.11 -82.5636L1752.69 -10.9937C1759.32 -8.37872 1764.49 -3.0029 1766.84 3.73036L1842.79 221.487C1844.91 227.553 1844.56 234.208 1841.81 240.017L1749.89 434.695C1746.39 442.102 1739.42 447.27 1731.32 448.47L1547.49 475.692C1539.39 476.892 1531.22 473.964 1525.73 467.889L1381.33 308.206C1377.02 303.441 1374.75 297.174 1375.02 290.755L1384.61 60.3307C1384.91 53.2058 1388.29 46.5636 1393.88 42.1381L1546.92 -78.9817Z" stroke="url(#paint51_linear_2082_17)"/>
<path opacity="0.768116" d="M1548.21 -85.4187C1554.74 -91.1234 1563.79 -92.9533 1572.03 -90.2308L1755.36 -29.5881C1762.15 -27.343 1767.62 -22.2453 1770.33 -15.6319L1856.36 193.933C1858.82 199.919 1858.81 206.635 1856.33 212.613L1775.18 408.527C1772.06 416.062 1765.39 421.55 1757.4 423.165L1576.71 459.673C1568.72 461.288 1560.45 458.819 1554.64 453.087L1403.79 304.052C1399.19 299.504 1396.57 293.32 1396.51 286.849L1394.43 60.322C1394.36 53.1733 1397.42 46.3524 1402.8 41.6482L1548.21 -85.4187Z" stroke="url(#paint52_linear_2082_17)"/>
<path opacity="0.782609" d="M1550.15 -91.2138C1556.35 -97.1839 1565.22 -99.4661 1573.53 -97.2262L1757.99 -47.4934C1764.91 -45.6276 1770.66 -40.8253 1773.74 -34.3517L1869.19 166.573C1871.99 172.461 1872.33 179.221 1870.13 185.358L1799.62 381.922C1796.88 389.566 1790.53 395.355 1782.66 397.378L1605.6 442.917C1597.73 444.94 1589.38 442.934 1583.29 437.561L1426.7 299.402C1421.81 295.089 1418.84 289.006 1418.45 282.499L1405.12 60.451C1404.69 53.2968 1407.42 46.3133 1412.58 41.3404L1550.15 -91.2138Z" stroke="url(#paint53_linear_2082_17)"/>
<path opacity="0.797101" d="M1552.78 -96.4125C1558.64 -102.628 1567.3 -105.348 1575.66 -103.591L1760.6 -64.7147C1767.63 -63.2365 1773.66 -58.7461 1777.09 -52.432L1881.31 139.448C1884.44 145.22 1885.13 152.009 1883.21 158.292L1823.21 354.938C1820.85 362.671 1814.82 368.742 1807.11 371.163L1634.1 425.458C1626.38 427.879 1617.97 426.338 1611.62 421.34L1450.01 294.24C1444.85 290.179 1441.53 284.216 1440.81 277.687L1416.7 60.667C1415.91 53.5255 1418.29 46.3959 1423.22 41.165L1552.78 -96.4125Z" stroke="url(#paint54_linear_2082_17)"/>
<path opacity="0.811594" d="M1556.12 -101.066C1561.62 -107.506 1570.06 -110.648 1578.44 -109.374L1763.24 -81.2632C1770.36 -80.1798 1776.65 -76.0171 1780.42 -69.8819L1892.71 112.597C1896.18 118.234 1897.22 125.036 1895.6 131.452L1845.91 327.629C1843.94 335.431 1838.25 341.765 1830.71 344.574L1662.18 407.327C1654.64 410.135 1646.2 409.06 1639.6 404.451L1473.71 288.546C1468.28 284.755 1464.62 278.93 1463.56 272.397L1429.16 60.9152C1428 53.8049 1430.03 46.5459 1434.71 41.0684L1556.12 -101.066Z" stroke="url(#paint55_linear_2082_17)"/>
<path opacity="0.826087" d="M1560.2 -105.221C1565.34 -111.866 1573.53 -115.412 1581.89 -114.618L1765.95 -97.1486C1773.14 -96.4662 1779.66 -92.646 1783.77 -86.7088L1903.44 86.0577C1907.24 91.5422 1908.64 98.3389 1907.31 104.878L1867.73 300.054C1866.14 307.904 1860.81 314.481 1853.46 317.665L1689.82 388.559C1682.47 391.743 1674.02 391.133 1667.21 386.925L1497.75 282.308C1492.07 278.803 1488.07 273.134 1486.67 266.612L1442.48 61.1453C1440.96 54.0843 1442.64 46.7131 1447.06 41.0009L1560.2 -105.221Z" stroke="url(#paint56_linear_2082_17)"/>
<path opacity="0.84058" d="M1565.03 -108.932C1569.8 -115.759 1577.72 -119.693 1586.04 -119.374L1768.75 -112.386C1775.99 -112.109 1782.73 -108.646 1787.17 -102.925L1913.51 59.8653C1917.63 65.1787 1919.39 71.9537 1918.37 78.6017L1888.66 272.266C1887.45 280.145 1882.49 286.944 1875.35 290.491L1716.97 369.19C1709.83 372.737 1701.41 372.589 1694.4 368.794L1522.11 275.51C1516.19 272.307 1511.85 266.814 1510.11 260.319L1456.67 61.3042C1454.79 54.3108 1456.1 46.8448 1460.25 40.9105L1565.03 -108.932Z" stroke="url(#paint57_linear_2082_17)"/>
<path opacity="0.855072" d="M1570.63 -112.248C1575.03 -119.237 1582.66 -123.538 1590.91 -123.688L1771.69 -126.989C1778.95 -127.121 1785.89 -124.028 1790.65 -118.542L1922.95 34.0554C1927.39 39.1794 1929.51 45.9156 1928.8 52.6602L1908.7 244.323C1907.87 252.211 1903.28 259.211 1896.37 263.107L1743.62 349.257C1736.71 353.153 1728.34 353.464 1721.17 350.091L1546.74 268.141C1540.61 265.258 1535.94 259.959 1533.85 253.506L1471.7 61.3426C1469.47 54.4347 1470.42 46.8917 1474.28 40.7482L1570.63 -112.248Z" stroke="url(#paint58_linear_2082_17)"/>
<path opacity="0.869565" d="M1577.01 -115.221C1581.04 -122.35 1588.36 -126.998 1596.52 -127.61L1774.79 -140.975C1782.05 -141.519 1789.17 -138.807 1794.23 -133.574L1931.77 8.66115C1936.53 13.5777 1939.01 20.2577 1938.62 27.0859L1927.84 216.28C1927.39 224.158 1923.18 231.337 1916.52 235.567L1769.74 328.799C1763.08 333.03 1754.79 333.794 1747.47 330.852L1571.63 260.194C1565.28 257.644 1560.29 252.557 1557.86 246.164L1487.58 61.211C1484.99 54.4065 1485.56 46.8045 1489.14 40.4652L1577.01 -115.221Z" stroke="url(#paint59_linear_2082_17)"/>
<path opacity="0.884058" d="M1584.19 -117.904C1587.83 -125.151 1594.83 -130.125 1602.87 -131.189L1778.09 -154.362C1785.33 -155.319 1792.61 -153.001 1797.96 -148.037L1940.02 -16.2864C1945.08 -11.5952 1947.93 -4.98887 1947.86 1.90962L1946.09 188.194C1946.02 196.041 1942.19 203.378 1935.79 207.926L1795.3 307.856C1788.91 312.405 1780.72 313.615 1773.28 311.11L1596.73 251.659C1590.19 249.458 1584.88 244.602 1582.11 238.284L1504.26 60.8611C1501.33 54.1776 1501.53 46.5347 1504.81 40.0136L1584.19 -117.904Z" stroke="url(#paint60_linear_2082_17)"/>
<path opacity="0.898551" d="M1592.17 -120.349C1595.43 -127.693 1602.08 -132.972 1609.98 -134.475L1781.62 -167.172C1788.8 -168.542 1796.23 -166.626 1801.86 -161.95L1947.72 -40.7584C1953.07 -36.3103 1956.28 -29.7952 1956.55 -22.8399L1963.47 160.117C1963.76 167.915 1960.32 175.387 1954.21 180.237L1820.29 286.468C1814.18 291.318 1806.12 292.965 1798.59 290.903L1622.01 242.531C1615.3 240.693 1609.68 236.085 1606.57 229.86L1521.75 60.2455C1518.48 53.7004 1518.3 46.0348 1521.27 39.3463L1592.17 -120.349Z" stroke="url(#paint61_linear_2082_17)"/>
<path opacity="0.913043" d="M1600.95 -122.608C1603.83 -130.027 1610.13 -135.586 1617.85 -137.517L1785.4 -179.425C1792.52 -181.205 1800.06 -179.702 1805.95 -175.327L1954.9 -64.7256C1960.54 -60.5383 1964.11 -54.132 1964.71 -47.1334L1979.97 132.105C1980.62 139.835 1977.58 147.421 1971.76 152.554L1844.69 264.676C1838.87 269.81 1830.97 271.884 1823.38 270.268L1647.44 232.808C1640.57 231.345 1634.65 227.004 1631.2 220.887L1540.01 59.3206C1536.4 52.9307 1535.85 45.2608 1538.5 38.4198L1600.95 -122.608Z" stroke="url(#paint62_linear_2082_17)"/>
<path opacity="0.927536" d="M1610.53 -124.731C1613.03 -132.204 1618.96 -138.022 1626.49 -140.365L1789.46 -191.143C1796.49 -193.332 1804.12 -192.248 1810.26 -188.191L1961.6 -88.1627C1967.51 -84.2534 1971.44 -77.9738 1972.38 -70.9456L1995.61 104.209C1996.63 111.854 1993.98 119.53 1988.47 124.928L1868.49 242.524C1862.98 247.922 1855.25 250.411 1847.63 249.243L1672.98 222.486C1665.97 221.413 1659.77 217.356 1655.98 211.364L1559.02 58.0424C1555.08 51.8245 1554.15 44.1685 1556.48 37.19L1610.53 -124.731Z" stroke="url(#paint63_linear_2082_17)"/>
<path opacity="0.942029" d="M1620.92 -126.773C1623.03 -134.278 1628.59 -140.329 1635.89 -143.069L1793.83 -202.354C1800.74 -204.946 1808.45 -204.289 1814.81 -200.564L1967.84 -111.048C1974.02 -107.433 1978.31 -101.298 1979.58 -94.2544L2010.42 76.4793C2011.78 84.0213 2009.53 91.7662 2004.35 97.4097L1891.67 220.05C1886.48 225.693 1878.95 228.585 1871.32 227.865L1698.59 211.565C1691.47 210.892 1684.99 207.137 1680.87 201.286L1578.74 56.3677C1574.5 50.3378 1573.19 42.7142 1575.19 35.6136L1620.92 -126.773Z" stroke="url(#paint64_linear_2082_17)"/>
<path opacity="0.956522" d="M1632.09 -128.781C1633.83 -136.298 1639 -142.558 1646.06 -145.677L1798.53 -213.08C1805.3 -216.07 1813.05 -215.844 1819.63 -212.465L1973.67 -133.356C1980.1 -130.054 1984.74 -124.081 1986.36 -117.035L2024.4 48.9677C2026.1 56.3897 2024.26 64.1807 2019.4 70.0498L1914.22 197.299C1909.37 203.168 1902.07 206.448 1894.46 206.174L1724.26 200.048C1717.04 199.788 1710.3 196.351 1705.84 190.657L1599.16 54.2589C1594.6 48.4328 1592.92 40.8599 1594.59 33.653L1632.09 -128.781Z" stroke="url(#paint65_linear_2082_17)"/>
<path opacity="0.971014" d="M1644.06 -130.805C1645.42 -138.313 1650.2 -144.758 1656.99 -148.237L1803.59 -223.348C1810.19 -226.73 1817.97 -226.94 1824.74 -223.919L1979.12 -155.071C1985.79 -152.097 1990.78 -146.304 1992.74 -139.27L2037.59 21.7212C2039.62 29.0071 2038.17 36.8221 2033.66 42.8959L1936.15 174.313C1931.64 180.386 1924.58 184.038 1917.02 184.207L1749.94 187.937C1742.64 188.1 1735.65 184.999 1730.87 179.479L1620.24 51.6778C1615.38 46.0706 1613.33 38.5665 1614.65 31.2693L1644.06 -130.805Z" stroke="url(#paint66_linear_2082_17)"/>
<path opacity="0.985507" d="M1656.79 -132.894C1657.78 -140.373 1662.16 -146.976 1668.67 -150.795L1809.01 -233.185C1815.43 -236.95 1823.2 -237.598 1830.15 -234.948L1984.22 -176.172C1991.11 -173.543 1996.46 -167.948 1998.76 -160.94L2050.01 -5.21358C2052.36 1.92061 2051.3 9.73744 2047.15 15.9948L1957.44 151.133C1953.29 157.391 1946.49 161.397 1939.01 162.004L1775.6 175.24C1768.25 175.835 1761.02 173.086 1755.92 167.755L1641.93 48.5894C1636.79 43.2158 1634.37 35.7985 1635.35 28.4272L1656.79 -132.894Z" stroke="url(#paint67_linear_2082_17)"/>
<path d="M1670.28 -135.096C1670.91 -142.525 1674.89 -149.262 1681.09 -153.4L1814.83 -242.621C1821.03 -246.759 1828.78 -247.847 1835.88 -245.578L1989.02 -196.647C1996.12 -194.378 2001.81 -188.998 2004.46 -182.03L2061.68 -31.7929C2064.34 -24.8253 2063.68 -17.0283 2059.88 -10.6091L1978.1 127.803C1974.31 134.222 1967.8 138.565 1960.42 139.602L1801.21 161.961C1793.83 162.998 1786.37 160.616 1780.96 155.49L1664.22 44.9603C1658.8 39.8342 1656.02 32.5215 1656.65 25.0924L1670.28 -135.096Z" stroke="url(#paint68_linear_2082_17)"/>
<defs>
<linearGradient id="paint0_linear_2082_17" x1="1149.48" y1="1356.41" x2="508.727" y2="455.552" gradientUnits="userSpaceOnUse">
<stop offset="0.0001" stop-color="white" stop-opacity="0"/>
<stop offset="1" stop-color="white"/>
</linearGradient>
<linearGradient id="paint1_linear_2082_17" x1="1183.76" y1="1321.84" x2="502.802" y2="463.392" gradientUnits="userSpaceOnUse">
<stop offset="0.0001" stop-color="white" stop-opacity="0"/>
<stop offset="1" stop-color="white"/>
</linearGradient>
<linearGradient id="paint2_linear_2082_17" x1="1216.76" y1="1286.43" x2="498.259" y2="472.122" gradientUnits="userSpaceOnUse">
<stop offset="0.0001" stop-color="white" stop-opacity="0"/>
<stop offset="1" stop-color="white"/>
</linearGradient>
<linearGradient id="paint3_linear_2082_17" x1="1248.44" y1="1250.28" x2="495.133" y2="481.659" gradientUnits="userSpaceOnUse">
<stop offset="0.0001" stop-color="white" stop-opacity="0"/>
<stop offset="1" stop-color="white"/>
</linearGradient>
<linearGradient id="paint4_linear_2082_17" x1="1278.77" y1="1213.46" x2="493.454" y2="491.916" gradientUnits="userSpaceOnUse">
<stop offset="0.0001" stop-color="white" stop-opacity="0"/>
<stop offset="1" stop-color="white"/>
</linearGradient>
<linearGradient id="paint5_linear_2082_17" x1="1307.72" y1="1176.05" x2="493.247" y2="502.81" gradientUnits="userSpaceOnUse">
<stop offset="0.0001" stop-color="white" stop-opacity="0"/>
<stop offset="1" stop-color="white"/>
</linearGradient>
<linearGradient id="paint6_linear_2082_17" x1="1335.3" y1="1138.13" x2="494.536" y2="514.25" gradientUnits="userSpaceOnUse">
<stop offset="0.0001" stop-color="white" stop-opacity="0"/>
<stop offset="1" stop-color="white"/>
</linearGradient>
<linearGradient id="paint7_linear_2082_17" x1="1361.46" y1="1099.77" x2="497.333" y2="526.152" gradientUnits="userSpaceOnUse">
<stop offset="0.0001" stop-color="white" stop-opacity="0"/>
<stop offset="1" stop-color="white"/>
</linearGradient>
<linearGradient id="paint8_linear_2082_17" x1="1386.22" y1="1061.08" x2="501.65" y2="538.428" gradientUnits="userSpaceOnUse">
<stop offset="0.0001" stop-color="white" stop-opacity="0"/>
<stop offset="1" stop-color="white"/>
</linearGradient>
<linearGradient id="paint9_linear_2082_17" x1="1409.55" y1="1022.11" x2="507.493" y2="550.991" gradientUnits="userSpaceOnUse">
<stop offset="0.0001" stop-color="white" stop-opacity="0"/>
<stop offset="1" stop-color="white"/>
</linearGradient>
<linearGradient id="paint10_linear_2082_17" x1="1431.47" y1="982.959" x2="514.861" y2="563.753" gradientUnits="userSpaceOnUse">
<stop offset="0.0001" stop-color="white" stop-opacity="0"/>
<stop offset="1" stop-color="white"/>
</linearGradient>
<linearGradient id="paint11_linear_2082_17" x1="1451.97" y1="943.7" x2="523.751" y2="576.628" gradientUnits="userSpaceOnUse">
<stop offset="0.0001" stop-color="white" stop-opacity="0"/>
<stop offset="1" stop-color="white"/>
</linearGradient>
<linearGradient id="paint12_linear_2082_17" x1="1471.06" y1="904.416" x2="534.153" y2="589.534" gradientUnits="userSpaceOnUse">
<stop offset="0.0001" stop-color="white" stop-opacity="0"/>
<stop offset="1" stop-color="white"/>
</linearGradient>
<linearGradient id="paint13_linear_2082_17" x1="1488.76" y1="865.18" x2="546.055" y2="602.384" gradientUnits="userSpaceOnUse">
<stop offset="0.0001" stop-color="white" stop-opacity="0"/>
<stop offset="1" stop-color="white"/>
</linearGradient>
<linearGradient id="paint14_linear_2082_17" x1="1505.08" y1="826.073" x2="559.437" y2="615.1" gradientUnits="userSpaceOnUse">
<stop offset="0.0001" stop-color="white" stop-opacity="0"/>
<stop offset="1" stop-color="white"/>
</linearGradient>
<linearGradient id="paint15_linear_2082_17" x1="1520.04" y1="787.169" x2="574.276" y2="627.598" gradientUnits="userSpaceOnUse">
<stop offset="0.0001" stop-color="white" stop-opacity="0"/>
<stop offset="1" stop-color="white"/>
</linearGradient>
<linearGradient id="paint16_linear_2082_17" x1="1533.68" y1="748.538" x2="590.548" y2="639.801" gradientUnits="userSpaceOnUse">
<stop offset="0.0001" stop-color="white" stop-opacity="0"/>
<stop offset="1" stop-color="white"/>
</linearGradient>
<linearGradient id="paint17_linear_2082_17" x1="1546.01" y1="710.252" x2="608.219" y2="651.632" gradientUnits="userSpaceOnUse">
<stop offset="0.0001" stop-color="white" stop-opacity="0"/>
<stop offset="1" stop-color="white"/>
</linearGradient>
<linearGradient id="paint18_linear_2082_17" x1="1557.07" y1="672.379" x2="627.255" y2="663.018" gradientUnits="userSpaceOnUse">
<stop offset="0.0001" stop-color="white" stop-opacity="0"/>
<stop offset="1" stop-color="white"/>
</linearGradient>
<linearGradient id="paint19_linear_2082_17" x1="1566.9" y1="634.988" x2="647.616" y2="673.89" gradientUnits="userSpaceOnUse">
<stop offset="0.0001" stop-color="white" stop-opacity="0"/>
<stop offset="1" stop-color="white"/>
</linearGradient>
<linearGradient id="paint20_linear_2082_17" x1="1575.53" y1="598.138" x2="669.26" y2="684.176" gradientUnits="userSpaceOnUse">
<stop offset="0.0001" stop-color="white" stop-opacity="0"/>
<stop offset="1" stop-color="white"/>
</linearGradient>
<linearGradient id="paint21_linear_2082_17" x1="1583.02" y1="561.892" x2="692.141" y2="693.814" gradientUnits="userSpaceOnUse">
<stop offset="0.0001" stop-color="white" stop-opacity="0"/>
<stop offset="1" stop-color="white"/>
</linearGradient>
<linearGradient id="paint22_linear_2082_17" x1="1589.4" y1="526.309" x2="716.21" y2="702.742" gradientUnits="userSpaceOnUse">
<stop offset="0.0001" stop-color="white" stop-opacity="0"/>
<stop offset="1" stop-color="white"/>
</linearGradient>
<linearGradient id="paint23_linear_2082_17" x1="1594.72" y1="491.44" x2="741.414" y2="710.9" gradientUnits="userSpaceOnUse">
<stop offset="0.0001" stop-color="white" stop-opacity="0"/>
<stop offset="1" stop-color="white"/>
</linearGradient>
<linearGradient id="paint24_linear_2082_17" x1="1599.04" y1="457.338" x2="767.698" y2="718.234" gradientUnits="userSpaceOnUse">
<stop offset="0.0001" stop-color="white" stop-opacity="0"/>
<stop offset="1" stop-color="white"/>
</linearGradient>
<linearGradient id="paint25_linear_2082_17" x1="1602.41" y1="424.05" x2="795.004" y2="724.693" gradientUnits="userSpaceOnUse">
<stop offset="0.0001" stop-color="white" stop-opacity="0"/>
<stop offset="1" stop-color="white"/>
</linearGradient>
<linearGradient id="paint26_linear_2082_17" x1="1604.88" y1="391.62" x2="823.271" y2="730.229" gradientUnits="userSpaceOnUse">
<stop offset="0.0001" stop-color="white" stop-opacity="0"/>
<stop offset="1" stop-color="white"/>
</linearGradient>
<linearGradient id="paint27_linear_2082_17" x1="1606.52" y1="360.09" x2="852.439" y2="734.798" gradientUnits="userSpaceOnUse">
<stop offset="0.0001" stop-color="white" stop-opacity="0"/>
<stop offset="1" stop-color="white"/>
</linearGradient>
<linearGradient id="paint28_linear_2082_17" x1="1607.38" y1="329.496" x2="882.441" y2="738.363" gradientUnits="userSpaceOnUse">
<stop offset="0.0001" stop-color="white" stop-opacity="0"/>
<stop offset="1" stop-color="white"/>
</linearGradient>
<linearGradient id="paint29_linear_2082_17" x1="1607.52" y1="299.868" x2="913.214" y2="740.884" gradientUnits="userSpaceOnUse">
<stop offset="0.0001" stop-color="white" stop-opacity="0"/>
<stop offset="1" stop-color="white"/>
</linearGradient>
<linearGradient id="paint30_linear_2082_17" x1="1607.01" y1="271.24" x2="944.688" y2="742.333" gradientUnits="userSpaceOnUse">
<stop offset="0.0001" stop-color="white" stop-opacity="0"/>
<stop offset="1" stop-color="white"/>
</linearGradient>
<linearGradient id="paint31_linear_2082_17" x1="1605.91" y1="243.636" x2="976.795" y2="742.684" gradientUnits="userSpaceOnUse">
<stop offset="0.0001" stop-color="white" stop-opacity="0"/>
<stop offset="1" stop-color="white"/>
</linearGradient>
<linearGradient id="paint32_linear_2082_17" x1="1604.29" y1="217.076" x2="1009.47" y2="741.909" gradientUnits="userSpaceOnUse">
<stop offset="0.0001" stop-color="white" stop-opacity="0"/>
<stop offset="1" stop-color="white"/>
</linearGradient>
<linearGradient id="paint33_linear_2082_17" x1="1602.21" y1="191.579" x2="1042.64" y2="739.994" gradientUnits="userSpaceOnUse">
<stop offset="0.0001" stop-color="white" stop-opacity="0"/>
<stop offset="1" stop-color="white"/>
</linearGradient>
<linearGradient id="paint34_linear_2082_17" x1="1599.73" y1="167.157" x2="1076.23" y2="736.921" gradientUnits="userSpaceOnUse">
<stop offset="0.0001" stop-color="white" stop-opacity="0"/>
<stop offset="1" stop-color="white"/>
</linearGradient>
<linearGradient id="paint35_linear_2082_17" x1="1596.92" y1="143.822" x2="1110.17" y2="732.682" gradientUnits="userSpaceOnUse">
<stop offset="0.0001" stop-color="white" stop-opacity="0"/>
<stop offset="1" stop-color="white"/>
</linearGradient>
<linearGradient id="paint36_linear_2082_17" x1="1593.85" y1="121.577" x2="1144.4" y2="727.269" gradientUnits="userSpaceOnUse">
<stop offset="0.0001" stop-color="white" stop-opacity="0"/>
<stop offset="1" stop-color="white"/>
</linearGradient>
<linearGradient id="paint37_linear_2082_17" x1="1590.58" y1="100.425" x2="1178.84" y2="720.68" gradientUnits="userSpaceOnUse">
<stop offset="0.0001" stop-color="white" stop-opacity="0"/>
<stop offset="1" stop-color="white"/>
</linearGradient>
<linearGradient id="paint38_linear_2082_17" x1="1587.17" y1="80.3658" x2="1213.43" y2="712.919" gradientUnits="userSpaceOnUse">
<stop offset="0.0001" stop-color="white" stop-opacity="0"/>
<stop offset="1" stop-color="white"/>
</linearGradient>
<linearGradient id="paint39_linear_2082_17" x1="1583.7" y1="61.3921" x2="1248.09" y2="703.99" gradientUnits="userSpaceOnUse">
<stop offset="0.0001" stop-color="white" stop-opacity="0"/>
<stop offset="1" stop-color="white"/>
</linearGradient>
<linearGradient id="paint40_linear_2082_17" x1="1580.22" y1="43.4954" x2="1282.76" y2="693.904" gradientUnits="userSpaceOnUse">
<stop offset="0.0001" stop-color="white" stop-opacity="0"/>
<stop offset="1" stop-color="white"/>
</linearGradient>
<linearGradient id="paint41_linear_2082_17" x1="1576.79" y1="26.6618" x2="1317.37" y2="682.673" gradientUnits="userSpaceOnUse">
<stop offset="0.0001" stop-color="white" stop-opacity="0"/>
<stop offset="1" stop-color="white"/>
</linearGradient>
<linearGradient id="paint42_linear_2082_17" x1="1573.48" y1="10.8762" x2="1351.85" y2="670.317" gradientUnits="userSpaceOnUse">
<stop offset="0.0001" stop-color="white" stop-opacity="0"/>
<stop offset="1" stop-color="white"/>
</linearGradient>
<linearGradient id="paint43_linear_2082_17" x1="1570.35" y1="-3.8814" x2="1386.15" y2="656.856" gradientUnits="userSpaceOnUse">
<stop offset="0.0001" stop-color="white" stop-opacity="0"/>
<stop offset="1" stop-color="white"/>
</linearGradient>
<linearGradient id="paint44_linear_2082_17" x1="1567.44" y1="-17.6343" x2="1420.2" y2="642.315" gradientUnits="userSpaceOnUse">
<stop offset="0.0001" stop-color="white" stop-opacity="0"/>
<stop offset="1" stop-color="white"/>
</linearGradient>
<linearGradient id="paint45_linear_2082_17" x1="1564.82" y1="-30.4087" x2="1453.95" y2="626.721" gradientUnits="userSpaceOnUse">
<stop offset="0.0001" stop-color="white" stop-opacity="0"/>
<stop offset="1" stop-color="white"/>
</linearGradient>
<linearGradient id="paint46_linear_2082_17" x1="1562.54" y1="-42.2321" x2="1487.33" y2="610.106" gradientUnits="userSpaceOnUse">
<stop offset="0.0001" stop-color="white" stop-opacity="0"/>
<stop offset="1" stop-color="white"/>
</linearGradient>
<linearGradient id="paint47_linear_2082_17" x1="1560.65" y1="-53.1378" x2="1520.29" y2="592.504" gradientUnits="userSpaceOnUse">
<stop offset="0.0001" stop-color="white" stop-opacity="0"/>
<stop offset="1" stop-color="white"/>
</linearGradient>
<linearGradient id="paint48_linear_2082_17" x1="1559.19" y1="-63.1603" x2="1552.78" y2="573.952" gradientUnits="userSpaceOnUse">
<stop offset="0.0001" stop-color="white" stop-opacity="0"/>
<stop offset="1" stop-color="white"/>
</linearGradient>
<linearGradient id="paint49_linear_2082_17" x1="1558.22" y1="-72.3368" x2="1584.75" y2="554.49" gradientUnits="userSpaceOnUse">
<stop offset="0.0001" stop-color="white" stop-opacity="0"/>
<stop offset="1" stop-color="white"/>
</linearGradient>
<linearGradient id="paint50_linear_2082_17" x1="1557.78" y1="-80.7044" x2="1616.15" y2="534.162" gradientUnits="userSpaceOnUse">
<stop offset="0.0001" stop-color="white" stop-opacity="0"/>
<stop offset="1" stop-color="white"/>
</linearGradient>
<linearGradient id="paint51_linear_2082_17" x1="1557.9" y1="-88.308" x2="1646.95" y2="513.008" gradientUnits="userSpaceOnUse">
<stop offset="0.0001" stop-color="white" stop-opacity="0"/>
<stop offset="1" stop-color="white"/>
</linearGradient>
<linearGradient id="paint52_linear_2082_17" x1="1558.63" y1="-95.1884" x2="1677.09" y2="491.08" gradientUnits="userSpaceOnUse">
<stop offset="0.0001" stop-color="white" stop-opacity="0"/>
<stop offset="1" stop-color="white"/>
</linearGradient>
<linearGradient id="paint53_linear_2082_17" x1="1560" y1="-101.393" x2="1706.55" y2="468.422" gradientUnits="userSpaceOnUse">
<stop offset="0.0001" stop-color="white" stop-opacity="0"/>
<stop offset="1" stop-color="white"/>
</linearGradient>
<linearGradient id="paint54_linear_2082_17" x1="1562.03" y1="-106.966" x2="1735.28" y2="445.089" gradientUnits="userSpaceOnUse">
<stop offset="0.0001" stop-color="white" stop-opacity="0"/>
<stop offset="1" stop-color="white"/>
</linearGradient>
<linearGradient id="paint55_linear_2082_17" x1="1564.77" y1="-111.958" x2="1763.27" y2="421.129" gradientUnits="userSpaceOnUse">
<stop offset="0.0001" stop-color="white" stop-opacity="0"/>
<stop offset="1" stop-color="white"/>
</linearGradient>
<linearGradient id="paint56_linear_2082_17" x1="1568.23" y1="-116.417" x2="1790.48" y2="396.598" gradientUnits="userSpaceOnUse">
<stop offset="0.0001" stop-color="white" stop-opacity="0"/>
<stop offset="1" stop-color="white"/>
</linearGradient>
<linearGradient id="paint57_linear_2082_17" x1="1572.43" y1="-120.395" x2="1816.88" y2="371.548" gradientUnits="userSpaceOnUse">
<stop offset="0.0001" stop-color="white" stop-opacity="0"/>
<stop offset="1" stop-color="white"/>
</linearGradient>
<linearGradient id="paint58_linear_2082_17" x1="1577.4" y1="-123.942" x2="1842.47" y2="346.034" gradientUnits="userSpaceOnUse">
<stop offset="0.0001" stop-color="white" stop-opacity="0"/>
<stop offset="1" stop-color="white"/>
</linearGradient>
<linearGradient id="paint59_linear_2082_17" x1="1583.15" y1="-127.109" x2="1867.22" y2="320.114" gradientUnits="userSpaceOnUse">
<stop offset="0.0001" stop-color="white" stop-opacity="0"/>
<stop offset="1" stop-color="white"/>
</linearGradient>
<linearGradient id="paint60_linear_2082_17" x1="1589.69" y1="-129.95" x2="1891.12" y2="293.842" gradientUnits="userSpaceOnUse">
<stop offset="0.0001" stop-color="white" stop-opacity="0"/>
<stop offset="1" stop-color="white"/>
</linearGradient>
<linearGradient id="paint61_linear_2082_17" x1="1597.02" y1="-132.517" x2="1914.16" y2="267.275" gradientUnits="userSpaceOnUse">
<stop offset="0.0001" stop-color="white" stop-opacity="0"/>
<stop offset="1" stop-color="white"/>
</linearGradient>
<linearGradient id="paint62_linear_2082_17" x1="1605.16" y1="-134.861" x2="1936.33" y2="240.469" gradientUnits="userSpaceOnUse">
<stop offset="0.0001" stop-color="white" stop-opacity="0"/>
<stop offset="1" stop-color="white"/>
</linearGradient>
<linearGradient id="paint63_linear_2082_17" x1="1614.11" y1="-137.034" x2="1957.64" y2="213.481" gradientUnits="userSpaceOnUse">
<stop offset="0.0001" stop-color="white" stop-opacity="0"/>
<stop offset="1" stop-color="white"/>
</linearGradient>
<linearGradient id="paint64_linear_2082_17" x1="1623.87" y1="-139.09" x2="1978.08" y2="186.364" gradientUnits="userSpaceOnUse">
<stop offset="0.0001" stop-color="white" stop-opacity="0"/>
<stop offset="1" stop-color="white"/>
</linearGradient>
<linearGradient id="paint65_linear_2082_17" x1="1634.42" y1="-141.078" x2="1997.66" y2="159.175" gradientUnits="userSpaceOnUse">
<stop offset="0.0001" stop-color="white" stop-opacity="0"/>
<stop offset="1" stop-color="white"/>
</linearGradient>
<linearGradient id="paint66_linear_2082_17" x1="1645.77" y1="-143.049" x2="2016.39" y2="131.968" gradientUnits="userSpaceOnUse">
<stop offset="0.0001" stop-color="white" stop-opacity="0"/>
<stop offset="1" stop-color="white"/>
</linearGradient>
<linearGradient id="paint67_linear_2082_17" x1="1657.9" y1="-145.051" x2="2034.28" y2="104.795" gradientUnits="userSpaceOnUse">
<stop offset="0.0001" stop-color="white" stop-opacity="0"/>
<stop offset="1" stop-color="white"/>
</linearGradient>
<linearGradient id="paint68_linear_2082_17" x1="1670.8" y1="-147.134" x2="2051.34" y2="77.7088" gradientUnits="userSpaceOnUse">
<stop offset="0.0001" stop-color="white" stop-opacity="0"/>
<stop offset="1" stop-color="white"/>
</linearGradient>
</defs>
</svg>
