<svg width="45" height="94" viewBox="0 0 45 94" fill="none" xmlns="http://www.w3.org/2000/svg">
<path d="M9.51293 20.6383L9.07364 20.3995L9.51293 20.6383ZM1.41749 48.7576L0.92232 48.8269L1.41749 48.7576ZM21.4489 81.4339L21.6882 80.9949L21.4489 81.4339ZM44.0569 90.5445C44.1698 90.7965 44.057 91.0923 43.805 91.2053L39.6983 93.0452C39.4463 93.1581 39.1505 93.0453 39.0376 92.7933C38.9247 92.5413 39.0375 92.2455 39.2895 92.1326L42.9398 90.4971L41.3043 86.8467C41.1914 86.5947 41.3042 86.2989 41.5562 86.186C41.8082 86.0731 42.104 86.1859 42.2169 86.4379L44.0569 90.5445ZM34.7962 1.19058C34.3618 1.65047 33.7525 2.07894 33.0367 2.50133C32.3168 2.92615 31.4595 3.36171 30.511 3.82739C28.6054 4.76302 26.3115 5.83061 23.8767 7.22695C19.0158 10.0146 13.6436 14.0864 9.95222 20.8771L9.07364 20.3995C12.8857 13.3867 18.4285 9.19863 23.3792 6.35948C25.8502 4.9424 28.1862 3.85483 30.0703 2.92975C31.0167 2.46506 31.8442 2.04388 32.5285 1.64009C33.2169 1.23386 33.7312 0.861845 34.0693 0.503915L34.7962 1.19058ZM9.95222 20.8771C9.56257 21.5939 7.21602 26.2239 5.13485 31.8557C4.0946 34.6707 3.12429 37.7264 2.4969 40.6624C1.86811 43.605 1.59129 46.3938 1.91265 48.6882L0.92232 48.8269C0.577549 46.3654 0.879673 43.4452 1.51898 40.4534C2.15968 37.4551 3.14661 34.3511 4.19684 31.5091C6.29661 25.8269 8.66392 21.1532 9.07364 20.3995L9.95222 20.8771ZM1.91265 48.6882C3.39273 59.2554 6.27718 66.1955 9.80261 71.0528C13.3263 75.9078 17.5179 78.7208 21.6882 80.9949L21.2095 81.8729C16.976 79.5643 12.6402 76.6649 8.9933 71.6402C5.34813 66.6179 2.41879 59.5112 0.92232 48.8269L1.91265 48.6882ZM21.6882 80.9949C27.6739 84.259 39.181 88.5292 43.7786 90.2817L43.4225 91.2162C38.8642 89.4787 27.271 85.1783 21.2095 81.8729L21.6882 80.9949Z" fill="url(#paint0_linear_2166_4956)"/>
<defs>
<linearGradient id="paint0_linear_2166_4956" x1="43.6009" y1="90.7491" x2="-2.33227" y2="24.5662" gradientUnits="userSpaceOnUse">
<stop stop-color="#9158DB"/>
<stop offset="1" stop-color="white"/>
</linearGradient>
</defs>
</svg>
