<svg width="12" height="13" viewBox="0 0 12 13" fill="none" xmlns="http://www.w3.org/2000/svg">
<g clip-path="url(#clip0_2052_109)">
<path d="M0.703003 8.375C1.09038 9.47068 1.80762 10.4195 2.75612 11.091C3.70463 11.7625 4.83783 12.1237 5.99997 12.125C7.16197 12.1235 8.29499 11.7622 9.24333 11.0907C10.1917 10.4192 10.9088 9.47054 11.2961 8.375H0.703003Z" fill="#2B4896"/>
<path d="M0.703852 4.625C0.488506 5.22678 0.377296 5.86086 0.375 6.5C0.377033 7.1391 0.487965 7.77317 0.703031 8.375H11.2962C11.5115 7.77322 11.6227 7.13914 11.625 6.5C11.623 5.8609 11.512 5.22683 11.297 4.625H0.703852Z" fill="white"/>
<path d="M6.00001 0.875C4.83801 0.876478 3.70498 1.23779 2.75664 1.90927C1.8083 2.58075 1.09119 3.52946 0.703857 4.625H11.297C10.9096 3.52932 10.1924 2.58053 9.24385 1.90903C8.29535 1.23754 7.16214 0.876308 6.00001 0.875Z" fill="#C0392B"/>
</g>
<defs>
<clipPath id="clip0_2052_109">
<rect width="12" height="12" fill="white" transform="translate(0 0.5)"/>
</clipPath>
</defs>
</svg>
