<svg width="424" height="158" viewBox="0 0 424 158" fill="none" xmlns="http://www.w3.org/2000/svg">
<rect width="424" height="158" rx="10" fill="url(#paint0_radial_2079_969)"/>
<g clip-path="url(#clip0_2079_969)">
<path opacity="0.0144928" d="M-31.4339 562.085C-37.1162 571.409 -48.2827 575.847 -58.8152 572.968L-161.054 545.02C-167.282 543.317 -172.587 539.224 -175.814 533.631L-258.883 389.665C-261.421 385.266 -262.53 380.188 -262.056 375.132L-248.88 234.691C-248.02 225.524 -242.093 217.612 -233.536 214.212L-150.66 181.272C-142.103 177.871 -132.363 179.555 -125.444 185.63L-19.4548 278.709C-15.6391 282.059 -12.9589 286.513 -11.785 291.454L26.6395 453.165C28.1323 459.447 27.0845 466.064 23.7241 471.578L-31.4339 562.085Z" stroke="url(#paint1_linear_2079_969)"/>
<path opacity="0.0289855" d="M-15.4926 551.385C-20.6807 560.96 -31.5658 565.961 -42.2098 563.66L-144.966 541.449C-151.287 540.082 -156.811 536.273 -160.334 530.85L-249.988 392.861C-252.763 388.59 -254.138 383.56 -253.921 378.471L-247.981 238.879C-247.59 229.692 -242.087 221.497 -233.731 217.658L-153.25 180.683C-144.894 176.844 -135.092 178.007 -127.867 183.695L-18.0865 270.12C-14.0844 273.271 -11.1638 277.591 -9.73089 282.478L36.562 440.389C38.3812 446.595 37.6732 453.268 34.5923 458.953L-15.4926 551.385Z" stroke="url(#paint2_linear_2079_969)"/>
<path opacity="0.0434783" d="M0.00729373 540.283C-4.67583 550.082 -15.2509 555.628 -25.9745 553.91L-128.93 537.411C-135.325 536.386 -141.054 532.871 -144.864 527.635L-240.707 395.914C-243.712 391.783 -245.352 386.815 -245.395 381.707L-246.565 243.333C-246.643 234.15 -241.578 225.695 -233.445 221.429L-155.554 180.577C-147.421 176.312 -137.586 176.953 -130.075 182.238L-16.9069 261.871C-12.7287 264.811 -9.57409 268.984 -7.88456 273.806L45.9857 427.539C48.1274 433.651 47.762 440.363 44.9693 446.206L0.00729373 540.283Z" stroke="url(#paint3_linear_2079_969)"/>
<path opacity="0.057971" d="M15.0467 528.807C10.8778 538.803 0.640236 544.875 -10.1308 543.741L-112.973 532.914C-119.423 532.235 -125.341 529.026 -129.429 523.99L-231.051 398.804C-234.281 394.825 -236.182 389.934 -236.486 384.818L-244.625 248.021C-245.169 238.866 -240.555 230.173 -232.667 225.494L-157.548 180.935C-149.66 176.256 -139.819 176.374 -132.046 181.241L-15.8978 253.968C-11.5542 256.688 -8.17284 260.702 -6.22962 265.444L54.9093 414.643C57.3687 420.645 57.3478 427.377 54.8512 433.364L15.0467 528.807Z" stroke="url(#paint4_linear_2079_969)"/>
<path opacity="0.0724638" d="M29.6102 516.984C25.9634 527.15 16.0898 533.729 5.30344 533.18L-97.1164 527.966C-103.604 527.636 -109.695 524.742 -114.05 519.922L-221.032 401.512C-224.479 397.697 -226.638 392.895 -227.204 387.785L-242.15 252.911C-243.159 243.808 -239.006 234.903 -231.384 229.824L-159.209 181.734C-151.587 176.655 -141.769 176.252 -133.757 180.688L-15.0387 246.418C-10.5411 248.909 -6.94079 252.75 -4.74752 257.4L63.335 401.73C66.1064 407.605 66.4311 414.34 64.2377 420.455L29.6102 516.984Z" stroke="url(#paint5_linear_2079_969)"/>
<path opacity="0.0869565" d="M43.6824 504.847C40.5641 515.155 31.0796 522.218 20.3099 522.252L-81.3849 522.576C-87.8909 522.597 -94.138 520.029 -98.7486 515.439L-210.664 404.018C-214.318 400.38 -216.732 395.68 -217.56 390.59L-239.135 257.973C-240.604 248.946 -236.922 239.852 -229.587 234.389L-160.518 182.952C-153.183 177.49 -143.415 176.567 -135.187 180.561L-14.3108 239.227C-9.67106 241.479 -5.86028 245.137 -3.42125 249.681L71.2647 388.827C74.3416 394.559 75.0121 401.28 73.1283 407.508L43.6824 504.847Z" stroke="url(#paint6_linear_2079_969)"/>
<path opacity="0.101449" d="M57.2516 492.423C54.6665 502.846 45.5952 510.371 34.8741 510.985L-65.7998 516.756C-72.3053 517.129 -78.6913 514.895 -83.5457 510.548L-199.957 406.306C-203.811 402.855 -206.474 398.271 -207.564 393.213L-235.576 263.174C-237.499 254.246 -234.296 244.989 -227.267 239.158L-161.455 184.567C-154.425 178.736 -144.736 177.299 -136.317 180.839L-13.6933 232.398C-8.92377 234.403 -4.91157 237.867 -2.23174 242.293L78.7039 375.962C82.0789 381.536 83.0944 388.225 81.5258 394.549L57.2516 492.423Z" stroke="url(#paint7_linear_2079_969)"/>
<path opacity="0.115942" d="M70.3069 479.744C68.2586 490.253 59.6229 498.215 48.9819 499.405L-50.3826 510.516C-56.8686 511.241 -63.3759 509.349 -68.4612 505.258L-188.927 408.357C-192.971 405.104 -195.878 400.65 -197.228 395.637L-231.467 268.483C-233.839 259.677 -231.122 250.282 -224.417 244.1L-162.001 186.553C-155.296 180.371 -145.712 178.425 -137.127 181.502L-13.1659 225.934C-8.2794 227.686 -4.07548 230.944 -1.16045 235.239L85.6585 363.161C89.3235 368.562 90.6825 375.201 89.4339 381.607L70.3069 479.744Z" stroke="url(#paint8_linear_2079_969)"/>
<path opacity="0.130435" d="M82.838 466.841C81.3284 477.409 73.1495 485.783 62.62 487.542L-35.1554 503.871C-41.6029 504.947 -48.2133 503.403 -53.5162 499.581L-177.589 410.157C-181.814 407.112 -184.959 402.799 -186.567 397.846L-226.811 273.869C-229.622 265.207 -227.398 255.701 -221.035 249.186L-162.141 188.887C-155.779 182.372 -146.327 179.924 -137.602 182.53L-12.7099 219.839C-7.7196 221.33 -3.33423 224.372 -0.190224 228.524L92.1349 350.453C96.081 355.664 97.7808 362.237 96.8564 368.708L82.838 466.841Z" stroke="url(#paint9_linear_2079_969)"/>
<path opacity="0.144928" d="M94.8391 453.745C93.8686 464.344 86.1663 473.103 75.7789 475.422L-20.1366 496.833C-26.5266 498.259 -33.2216 497.069 -38.7281 493.527L-165.959 411.689C-170.354 408.862 -173.73 404.704 -175.594 399.822L-221.605 279.299C-224.848 270.804 -223.12 261.212 -217.116 254.383L-161.86 191.541C-155.856 184.712 -146.564 181.771 -137.724 183.9L-12.3039 214.112C-7.22348 215.336 -2.66746 218.152 0.69867 222.149L98.1434 337.863C102.361 342.871 104.398 349.358 103.801 355.878L94.8391 453.745Z" stroke="url(#paint10_linear_2079_969)"/>
<path opacity="0.15942" d="M106.303 440.487C105.871 451.089 98.6635 460.207 88.4483 463.076L-5.34643 489.418C-11.66 491.192 -18.421 490.36 -24.1163 487.109L-154.054 412.94C-158.608 410.341 -162.208 406.349 -164.324 401.551L-215.855 284.743C-219.519 276.437 -218.29 266.784 -212.66 259.662L-161.146 194.49C-155.516 187.368 -146.408 183.943 -137.48 185.59L-11.9292 208.754C-6.77263 209.706 -2.0573 212.286 1.52347 216.117L103.693 325.415C108.171 330.206 110.542 336.592 110.274 343.144L106.303 440.487Z" stroke="url(#paint11_linear_2079_969)"/>
<path opacity="0.173913" d="M117.229 427.098C117.332 437.675 110.636 447.124 100.622 450.531L9.1985 481.642C2.98004 483.758 -3.82767 483.288 -9.69667 480.338L-141.89 413.896C-146.591 411.533 -150.407 407.719 -152.772 403.019L-209.562 290.17C-213.637 282.073 -212.908 272.387 -207.666 264.991L-159.984 197.708C-154.743 190.312 -145.846 186.414 -136.856 187.576L-11.5648 203.763C-6.34632 204.437 -1.48355 206.774 2.30385 210.427L108.796 313.135C113.524 317.695 116.223 323.962 116.287 330.531L117.229 427.098Z" stroke="url(#paint12_linear_2079_969)"/>
<path opacity="0.188406" d="M127.612 413.611C128.247 424.135 122.078 433.885 112.295 437.818L23.4805 473.521C17.3758 475.975 10.5406 475.87 4.51371 473.231L-129.486 414.544C-134.323 412.426 -138.346 408.802 -140.956 404.211L-202.734 295.55C-207.207 287.682 -206.978 277.989 -202.138 270.341L-158.367 201.166C-153.527 193.518 -144.866 189.161 -135.84 189.834L-11.1917 199.138C-5.92593 199.531 -0.928042 201.614 3.05732 205.079L113.466 301.046C118.432 305.363 121.453 311.495 121.849 318.062L127.612 413.611Z" stroke="url(#paint13_linear_2079_969)"/>
<path opacity="0.202899" d="M137.455 400.055C138.616 410.5 132.986 420.522 123.462 424.964L37.4839 465.072C31.5112 467.858 24.668 468.12 18.4995 465.8L-116.86 414.875C-121.82 413.009 -126.041 409.585 -128.89 405.117L-195.377 300.853C-200.235 293.234 -200.506 283.56 -196.08 275.682L-156.285 204.838C-151.86 196.96 -143.457 192.157 -134.423 192.342L-10.7905 194.874C-5.49229 194.983 -0.372058 196.806 3.80208 200.071L117.717 289.172C122.908 293.232 126.245 299.213 126.973 305.763L137.455 400.055Z" stroke="url(#paint14_linear_2079_969)"/>
<path opacity="0.217391" d="M146.757 386.461C148.437 396.8 143.359 407.064 134.121 412L51.1936 456.314C45.3711 459.425 38.5393 460.055 32.246 458.061L-104.032 414.877C-109.102 413.271 -113.512 410.058 -116.595 405.724L-187.502 306.051C-192.731 298.7 -193.498 289.07 -189.497 280.984L-153.732 208.696C-149.732 200.61 -141.611 195.377 -132.595 195.074L-10.3424 190.968C-5.0268 190.79 0.202568 192.346 4.55579 195.401L121.564 277.533C126.967 281.326 130.611 287.139 131.67 293.655L146.757 386.461Z" stroke="url(#paint15_linear_2079_969)"/>
<path opacity="0.231884" d="M155.522 372.861C157.714 383.068 153.198 393.543 144.271 398.955L64.5957 447.266C58.941 450.694 52.1404 451.691 45.7394 450.031L-91.0207 414.543C-96.1878 413.202 -100.776 410.21 -104.086 406.023L-179.119 311.114C-184.704 304.05 -185.963 294.49 -182.397 286.22L-150.703 212.712C-147.137 204.442 -139.322 198.795 -130.35 198.006L-9.82913 187.415C-4.51137 186.948 0.813494 188.23 5.33556 191.067L125.023 266.152C130.624 269.666 134.568 275.296 135.956 281.761L155.522 372.861Z" stroke="url(#paint16_linear_2079_969)"/>
<path opacity="0.246377" d="M163.756 359.284C166.45 369.333 162.504 379.988 153.914 385.857L77.6787 437.946C72.2091 441.683 65.4593 443.046 58.9681 441.724L-77.8457 413.863C-83.0962 412.794 -87.8514 410.033 -91.3829 406.003L-170.24 316.017C-176.165 309.255 -177.911 299.791 -174.788 291.36L-147.193 216.858C-144.071 208.427 -136.581 202.384 -127.681 201.114L-9.23147 184.208C-3.92696 183.451 1.47948 184.454 6.15965 187.063L128.112 255.047C133.898 258.273 138.132 263.704 139.847 270.102L163.756 359.284Z" stroke="url(#paint17_linear_2079_969)"/>
<path opacity="0.26087" d="M171.466 345.759C174.651 355.625 171.281 366.428 163.051 372.734L90.4304 428.375C85.1627 432.411 78.4833 434.137 71.9197 433.159L-64.5278 412.832C-69.8478 412.039 -74.7591 409.518 -78.504 405.657L-160.879 320.731C-167.128 314.289 -169.354 304.945 -166.681 296.378L-143.202 221.107C-140.53 212.539 -133.386 206.118 -124.583 204.371L-8.53257 181.34C-3.25679 180.293 2.21693 181.011 7.04403 183.384L130.85 244.237C136.806 247.165 141.319 252.383 143.358 258.698L171.466 345.759Z" stroke="url(#paint18_linear_2079_969)"/>
<path opacity="0.275362" d="M178.659 332.315C182.324 341.974 179.536 352.895 171.688 359.615L102.841 418.573C97.7918 422.897 91.2021 424.983 84.5843 424.354L-51.0869 411.444C-56.4621 410.932 -61.5178 408.659 -65.4681 404.979L-151.051 325.232C-157.606 319.125 -160.304 309.927 -158.088 301.246L-138.728 225.431C-136.512 216.75 -129.734 209.972 -121.054 207.755L-7.71462 178.803C-2.48313 177.467 3.0433 177.896 8.00568 180.024L133.257 233.741C139.367 236.361 144.149 241.351 146.507 247.567L178.659 332.315Z" stroke="url(#paint19_linear_2079_969)"/>
<path opacity="0.289855" d="M185.346 318.98C189.477 328.409 187.273 339.414 179.83 346.526L114.902 408.56C110.086 413.16 103.606 415.603 96.9521 415.324L-37.5439 409.694C-42.9599 409.467 -48.1477 407.451 -52.2951 403.96L-140.774 329.496C-147.616 323.738 -150.777 314.709 -149.021 305.94L-133.773 229.802C-132.017 221.034 -125.623 213.918 -117.091 211.239L-6.7614 176.588C-1.58975 174.964 3.97453 175.101 9.06013 176.977L135.352 223.573C141.6 225.878 146.641 230.627 149.313 236.727L185.346 318.98Z" stroke="url(#paint20_linear_2079_969)"/>
<path opacity="0.304348" d="M191.539 305.782C196.121 314.958 194.503 326.017 187.484 333.495L126.604 398.358C122.038 403.223 115.686 406.015 109.015 406.09L-23.9195 407.58C-29.3615 407.641 -34.6689 405.888 -39.0044 402.599L-130.064 333.499C-137.174 328.104 -140.788 319.268 -139.495 310.436L-128.34 234.195C-127.048 225.363 -121.054 217.932 -112.696 214.8L-5.65681 174.686C-0.560567 172.776 5.02651 172.617 10.2229 174.235L137.157 213.749C143.528 215.732 148.814 220.227 151.794 226.196L191.539 305.782Z" stroke="url(#paint21_linear_2079_969)"/>
<path opacity="0.362319" d="M211.638 254.861C217.861 262.816 218.565 273.774 213.411 282.46L169.726 356.079C166.296 361.859 160.642 365.977 154.088 367.467L30.9813 395.456C25.5855 396.683 19.9334 396.047 14.9451 393.652L-83.2911 346.484C-91.2749 342.65 -96.5684 334.807 -97.1362 325.968L-101.924 251.446C-102.491 242.608 -98.245 234.151 -90.8174 229.328L0.576014 169.978C5.2168 166.964 10.7411 165.61 16.2495 166.137L141.925 178.144C148.616 178.783 154.751 182.143 158.892 187.437L211.638 254.861Z" stroke="url(#paint22_linear_2079_969)"/>
<path opacity="0.376812" d="M215.576 242.717C222.163 250.32 223.434 261.176 218.781 270.094L179.567 345.249C176.452 351.219 171.016 355.644 164.538 357.483L44.7044 391.512C39.3584 393.03 33.655 392.686 28.5306 390.535L-70.7227 348.879C-78.8722 345.459 -84.5479 337.915 -85.5753 329.136L-94.1876 255.554C-95.2151 246.775 -91.435 238.124 -84.2956 232.915L2.65578 169.465C7.14507 166.189 12.6147 164.537 18.1668 164.779L142.62 170.216C149.348 170.51 155.658 173.56 160.068 178.649L215.576 242.717Z" stroke="url(#paint23_linear_2079_969)"/>
<path opacity="0.391304" d="M219.116 230.852C226.047 238.085 227.875 248.809 223.733 257.931L189.029 334.357C186.239 340.5 181.04 345.221 174.656 347.407L58.3861 387.21C53.105 389.017 47.3649 388.968 42.1159 387.069L-57.8505 350.902C-66.1439 347.902 -72.1846 340.675 -73.6669 331.981L-86.0194 259.532C-87.5017 250.837 -84.1968 242.018 -77.3662 236.439L4.96838 169.19C9.29154 165.659 14.6909 163.71 20.2726 163.666L143.163 162.693C149.91 162.64 156.38 165.371 161.048 170.243L219.116 230.852Z" stroke="url(#paint24_linear_2079_969)"/>
<path opacity="0.405797" d="M222.278 219.283C229.531 226.133 231.906 236.696 228.285 245.991L198.113 323.424C195.659 329.723 190.711 334.728 184.441 337.255L72.0065 382.553C66.8058 384.648 61.0437 384.896 55.6822 383.255L-44.6988 352.539C-53.114 349.964 -59.5017 343.073 -61.4328 334.487L-77.431 263.357C-79.3621 254.771 -76.5399 245.809 -70.0376 239.879L7.52469 169.14C11.6674 165.362 16.9808 163.119 22.5779 162.786L143.58 155.581C150.328 155.179 156.942 157.583 161.857 162.225L222.278 219.283Z" stroke="url(#paint25_linear_2079_969)"/>
<path opacity="0.42029" d="M225.083 208.03C232.636 214.481 235.547 224.854 232.453 234.293L206.823 312.473C204.713 318.909 200.032 324.185 193.892 327.046L85.5475 377.547C80.4423 379.927 74.6732 380.475 69.2113 379.098L-31.2914 353.777C-39.8064 351.632 -46.522 345.094 -48.8946 336.639L-68.435 267.009C-70.8075 258.554 -68.4741 249.477 -62.3186 243.214L10.3356 169.3C14.284 165.283 19.4959 162.749 25.0938 162.125L143.894 148.882C150.626 148.132 157.368 150.202 162.519 154.601L225.083 208.03Z" stroke="url(#paint26_linear_2079_969)"/>
<path opacity="0.434783" d="M227.552 197.109C235.384 203.148 238.817 213.304 236.255 222.857L215.159 301.521C213.401 308.076 209.002 313.609 203.012 316.799L98.9891 372.2C93.9946 374.859 88.2334 375.709 82.6839 374.603L-17.655 354.606C-26.2472 352.893 -33.2711 346.723 -36.0765 338.423L-59.0469 270.466C-61.8523 262.166 -60.0122 253 -54.2209 246.425L13.4093 169.654C17.1497 165.407 22.2447 162.587 27.8287 161.671L144.131 142.6C150.829 141.502 157.682 143.231 163.057 147.375L227.552 197.109Z" stroke="url(#paint27_linear_2079_969)"/>
<path opacity="0.449275" d="M229.709 186.535C237.796 192.151 241.736 202.063 239.71 211.698L223.127 290.59C221.728 297.246 217.625 303.02 211.801 306.532L112.313 366.518C107.444 369.454 101.706 370.605 96.082 369.774L-3.81489 355.016C-12.4619 353.739 -19.7735 347.951 -23.0019 339.829L-49.2818 273.709C-52.5103 265.586 -51.1666 256.358 -45.7558 249.493L16.754 170.186C20.2734 165.721 25.2361 162.618 30.7917 161.411L144.314 136.735C150.96 135.29 157.907 136.673 163.493 140.552L229.709 186.535Z" stroke="url(#paint28_linear_2079_969)"/>
<path opacity="0.463768" d="M231.576 176.322C239.895 181.505 244.325 191.147 242.838 200.835L230.731 279.701C229.697 286.436 225.904 292.437 220.264 296.261L125.502 360.513C120.774 363.719 115.074 365.172 109.388 364.62L10.203 355.002C1.52345 354.16 -6.05446 348.768 -9.69499 340.844L-39.1562 276.719C-42.7967 268.795 -41.9511 259.534 -36.9357 252.4L20.3774 170.881C23.6629 166.207 28.4783 162.829 33.9907 161.33L144.469 131.287C151.045 129.499 158.068 130.53 163.852 134.134L231.576 176.322Z" stroke="url(#paint29_linear_2079_969)"/>
<path opacity="0.478261" d="M233.178 166.483C241.705 171.223 246.608 180.57 245.659 190.28L237.978 268.871C237.314 275.667 233.844 281.878 228.404 286.005L138.539 354.192C133.966 357.662 128.32 359.416 122.585 359.148L24.3724 354.555C15.6829 354.149 7.86038 349.165 3.81995 341.461L-28.6872 279.48C-32.7277 271.776 -32.3801 262.508 -27.774 255.128L24.2858 171.722C27.3254 166.852 31.9785 163.204 37.4331 161.415L144.619 126.254C151.108 124.126 158.19 124.802 164.159 128.119L233.178 166.483Z" stroke="url(#paint30_linear_2079_969)"/>
<path opacity="0.492754" d="M234.538 157.028C243.249 161.317 248.605 170.346 248.193 180.048L244.875 258.119C244.585 264.956 241.448 271.359 236.225 275.78L151.406 347.567C147.003 351.294 141.425 353.348 135.656 353.366L38.6659 353.672C29.9885 353.7 21.9439 349.135 17.5168 341.672L-17.8942 281.975C-22.3213 274.512 -22.4703 265.264 -18.2859 257.662L28.4836 172.693C31.2655 167.638 35.7418 163.728 41.1238 161.651L144.788 121.633C151.171 119.169 158.295 119.486 164.434 122.509L234.538 157.028Z" stroke="url(#paint31_linear_2079_969)"/>
<path opacity="0.507246" d="M235.682 147.966C244.553 151.799 250.342 160.487 250.463 170.15L251.431 247.464C251.517 254.321 248.726 260.899 243.735 265.602L164.09 340.649C159.87 344.626 154.376 346.977 148.586 347.284L53.059 352.351C44.4157 352.81 36.1719 348.673 31.3726 341.47L-6.79409 284.189C-11.5935 276.986 -12.2361 267.786 -8.4846 259.985L32.9773 173.777C35.4904 168.551 39.7755 164.386 45.0703 162.023L145 117.419C151.262 114.624 158.408 114.581 164.703 117.3L235.682 147.966Z" stroke="url(#paint32_linear_2079_969)"/>
<path opacity="0.521739" d="M236.635 139.306C245.64 142.676 251.842 151.004 252.491 160.597L257.655 236.923C258.119 243.779 255.683 250.515 250.94 255.487L176.574 333.451C172.551 337.669 167.156 340.314 161.359 340.912L67.5243 350.59C58.937 351.476 50.5173 347.777 45.361 340.853L4.5926 286.109C-0.563688 279.185 -1.69546 270.059 1.61338 262.085L37.7694 174.957C40.0033 169.574 44.0831 165.163 49.2762 162.518L145.278 113.606C151.401 110.486 158.552 110.082 164.988 112.49L236.635 139.306Z" stroke="url(#paint33_linear_2079_969)"/>
<path opacity="0.536232" d="M237.421 131.053C246.536 133.958 253.127 141.904 254.298 151.399L263.557 226.513C264.399 233.348 262.326 240.221 257.846 245.451L188.843 325.987C185.031 330.436 179.751 333.371 173.96 334.262L82.0352 348.389C73.5253 349.697 64.9534 346.442 59.4565 339.816L16.2453 287.722C10.7484 281.096 9.13337 272.07 11.9912 263.948L42.8621 176.217C44.8069 170.691 48.6678 166.044 53.7448 163.12L145.644 110.187C151.612 106.75 158.75 105.983 165.311 108.074L237.421 131.053Z" stroke="url(#paint34_linear_2079_969)"/>
<path opacity="0.550725" d="M238.066 123.213C247.267 125.65 254.224 133.195 255.907 142.563L269.147 216.249C270.367 223.042 268.666 230.034 264.462 235.507L200.885 318.268C197.297 322.939 192.146 326.161 186.376 327.344L96.5667 345.751C88.1553 347.475 79.4552 344.67 73.635 338.357L28.1443 289.017C22.3241 282.705 20.2333 273.806 22.6333 265.562L48.2582 177.54C49.9047 171.885 53.5335 167.012 58.4801 163.814L146.121 107.153C151.917 103.406 159.024 102.278 165.696 104.045L238.066 123.213Z" stroke="url(#paint35_linear_2079_969)"/>
<path opacity="0.565217" d="M238.595 115.788C247.857 117.756 255.155 124.884 257.341 134.097L274.437 206.148C276.033 212.877 274.711 219.968 270.796 225.67L212.687 310.311C209.335 315.194 204.328 318.697 198.592 320.172L111.091 342.679C102.799 344.811 93.9951 342.461 87.8698 336.478L40.2669 289.985C34.1415 284.002 31.5838 275.256 33.5205 266.916L53.9568 178.909C55.2964 173.14 58.6804 168.052 63.4825 164.586L146.729 104.496C152.338 100.448 159.396 98.9587 166.161 100.396L238.595 115.788Z" stroke="url(#paint36_linear_2079_969)"/>
<path opacity="0.57971" d="M239.035 108.78C248.332 110.28 255.947 116.975 258.624 126.004L279.44 196.222C281.41 202.868 280.473 210.038 276.86 215.954L224.237 302.131C221.134 307.214 216.285 310.992 210.598 312.759L125.586 339.177C117.434 341.71 108.55 339.817 102.138 334.179L52.5939 290.616C46.1823 284.979 43.1679 276.41 44.6373 268L59.9598 180.307C60.9849 174.441 64.1116 169.149 68.7554 165.42L147.491 102.203C152.896 97.8634 159.887 96.0164 166.73 97.12L239.035 108.78Z" stroke="url(#paint37_linear_2079_969)"/>
<path opacity="0.594203" d="M239.409 102.19C248.718 103.222 256.623 109.471 259.777 118.29L284.168 186.487C286.508 193.029 285.96 200.256 282.662 206.37L235.525 293.744C232.681 299.015 228.006 303.061 222.381 305.119L140.026 335.252C132.032 338.177 123.093 336.743 116.415 331.464L65.1022 290.905C58.4242 285.626 54.9646 277.26 55.9645 268.806L66.2649 181.719C66.9684 175.771 69.826 170.287 74.2979 166.303L148.425 100.264C153.612 95.6425 160.518 93.4407 167.423 94.2065L239.409 102.19Z" stroke="url(#paint38_linear_2079_969)"/>
<path opacity="0.608696" d="M239.743 96.0155C249.038 96.5839 257.208 102.374 260.825 110.956L288.636 176.954C291.34 183.371 291.186 190.635 288.212 196.931L246.54 285.164C243.968 290.611 239.479 294.919 233.931 297.266L154.385 330.911C146.569 334.217 137.599 333.243 130.675 328.336L77.77 290.844C70.846 285.937 66.9544 277.796 67.4837 269.327L72.8702 183.126C73.2459 177.114 75.8232 171.451 80.1098 167.219L149.549 98.6641C154.505 93.7721 161.307 91.2196 168.257 91.6446L239.743 96.0155Z" stroke="url(#paint39_linear_2079_969)"/>
<path opacity="0.623188" d="M240.061 90.2544C249.32 90.3631 257.727 95.6826 261.789 104.003L292.858 167.636C295.92 173.907 296.162 181.187 293.523 187.648L257.274 276.41C254.983 282.02 250.695 286.581 245.238 289.214L168.641 326.165C161.022 329.841 152.045 329.325 144.896 324.802L90.576 290.43C83.427 285.906 79.1177 278.014 79.177 269.555L79.7733 184.513C79.8158 178.454 82.102 172.626 86.1904 168.154L150.884 97.3904C155.593 92.2395 162.275 89.3413 169.254 89.4232L240.061 90.2544Z" stroke="url(#paint40_linear_2079_969)"/>
<path opacity="0.637681" d="M240.388 84.9024C249.586 84.5569 258.203 89.3969 262.693 97.4323L296.848 158.543C300.261 164.649 300.901 171.923 298.606 178.531L267.719 267.499C265.72 273.257 261.646 278.063 256.293 280.979L182.772 321.022C175.366 325.056 166.407 324.997 159.055 320.867L103.498 289.659C96.1456 285.529 91.434 277.908 91.0256 269.485L86.9704 185.865C86.6751 179.777 88.6601 173.797 92.5376 169.094L152.445 96.4275C156.895 91.0301 163.44 87.7921 170.43 87.5296L240.388 84.9024Z" stroke="url(#paint41_linear_2079_969)"/>
<path opacity="0.652174" d="M240.747 79.9536C249.862 79.1608 258.66 83.5135 263.56 91.2407L300.622 149.684C304.377 155.606 305.415 162.852 303.474 169.589L277.868 258.447C276.17 264.34 272.324 269.382 267.088 272.576L196.755 315.495C189.581 319.873 180.662 320.268 173.129 316.541L116.514 288.53C108.981 284.803 103.884 277.474 103.011 269.114L94.4574 187.166C93.8207 181.066 95.4949 174.949 99.1493 170.024L154.25 95.7593C158.428 90.1285 164.818 86.5574 171.803 85.9499L240.747 79.9536Z" stroke="url(#paint42_linear_2079_969)"/>
<path opacity="0.666667" d="M241.161 75.4016C250.171 74.1694 259.122 78.0288 264.411 85.4261L304.195 141.07C308.283 146.787 309.719 153.984 308.137 160.832L287.716 249.272C286.327 255.285 282.721 260.553 277.617 264.022L210.57 309.597C203.642 314.306 194.788 315.149 187.096 311.832L129.603 287.043C121.911 283.726 116.446 276.709 115.115 268.439L102.228 188.4C101.247 182.307 102.602 176.068 106.021 170.931L156.312 95.3695C160.206 89.519 166.425 85.6223 173.388 84.67L241.161 75.4016Z" stroke="url(#paint43_linear_2079_969)"/>
<path opacity="0.681159" d="M241.654 71.2377C250.536 69.5754 259.611 72.937 265.268 79.9841L307.584 132.708C311.994 138.202 313.825 145.328 312.611 152.267L297.257 239.993C296.186 246.111 292.832 251.594 287.873 255.333L224.195 303.34C217.53 308.365 208.764 309.651 200.937 306.752L142.742 285.197C134.914 282.298 129.101 275.612 127.318 267.457L110.278 189.553C108.951 183.485 109.977 177.141 113.15 171.802L158.647 95.2402C162.246 89.1842 168.277 84.9703 175.202 83.6744L241.654 71.2377Z" stroke="url(#paint44_linear_2079_969)"/>
<path opacity="0.695652" d="M242.245 67.4527C250.978 65.3706 260.15 68.2317 266.151 74.9097L310.805 124.605C315.524 129.857 317.748 136.891 316.906 143.902L306.487 230.628C305.741 236.835 302.651 242.521 297.85 246.524L237.613 296.741C231.224 302.068 222.569 303.788 214.629 301.312L155.911 282.996C147.971 280.519 141.829 274.183 139.602 266.169L118.598 190.61C116.924 184.587 117.615 178.152 120.53 172.623L161.266 95.3535C164.559 89.1068 170.388 84.5849 177.257 82.9472L242.245 67.4527Z" stroke="url(#paint45_linear_2079_969)"/>
<path opacity="0.710145" d="M242.957 64.036C251.521 61.5455 260.761 63.905 267.082 70.1963L313.873 116.766C318.89 121.76 321.502 128.68 321.037 135.743L315.404 221.195C314.991 227.474 312.176 233.353 307.545 237.614L250.805 289.816C244.706 295.427 236.184 297.575 228.155 295.524L169.089 280.442C161.059 278.392 154.61 272.421 151.949 264.574L127.182 191.558C125.161 185.599 125.51 179.09 128.157 173.382L164.183 95.6905C167.161 89.2686 172.771 84.4486 179.568 82.4718L242.957 64.036Z" stroke="url(#paint46_linear_2079_969)"/>
<path opacity="0.724638" d="M243.81 60.9754C252.184 58.0888 261.465 59.9473 268.082 65.836L316.806 109.198C322.107 113.915 325.102 120.699 325.017 127.794L324.007 211.711C323.931 218.046 321.404 224.106 316.956 228.617L263.754 282.581C257.958 288.46 249.591 291.025 241.496 289.404L182.255 277.54C174.16 275.919 167.426 270.33 164.34 262.673L136.021 192.383C133.654 186.507 133.655 179.942 136.024 174.066L167.407 96.2314C170.06 89.6502 175.437 84.5428 182.145 82.2304L243.81 60.9754Z" stroke="url(#paint47_linear_2079_969)"/>
<path opacity="0.73913" d="M244.822 58.2585C252.988 54.9895 262.28 56.349 269.168 61.8206L319.62 101.903C325.19 106.328 328.561 112.955 328.859 120.062L332.294 202.197C332.561 208.571 330.331 214.797 326.078 219.552L276.444 275.055C270.962 281.185 262.771 284.155 254.634 282.965L195.388 274.296C187.252 273.106 180.255 267.913 176.759 260.469L145.107 193.073C142.395 187.299 142.043 180.695 144.124 174.664L170.947 96.9569C173.268 90.2328 178.397 84.8494 185.001 82.2058L244.822 58.2585Z" stroke="url(#paint48_linear_2079_969)"/>
<path opacity="0.753623" d="M246.013 55.8708C253.953 52.2337 263.229 53.0981 270.36 58.1398L322.333 94.8844C328.156 99.0011 331.896 105.451 332.577 112.549L340.267 192.668C340.88 199.063 338.957 205.444 334.912 210.435L288.861 267.255C283.704 273.618 275.709 276.983 267.554 276.223L208.472 270.717C200.317 269.957 193.081 265.172 189.189 257.966L154.43 193.615C151.377 187.962 150.666 181.337 152.451 175.165L174.813 97.8462C176.794 90.9958 181.662 85.3486 188.145 82.3788L246.013 55.8708Z" stroke="url(#paint49_linear_2079_969)"/>
<path opacity="0.768116" d="M247.398 53.7977C255.095 49.8078 264.327 50.1825 271.675 54.783L324.96 88.1444C331.019 91.9382 335.119 98.1893 336.185 105.258L347.925 183.144C348.889 189.543 347.283 196.064 343.457 201.283L300.992 259.201C296.169 265.779 288.389 269.525 280.24 269.194L221.485 266.81C213.336 266.479 205.885 262.114 201.611 255.167L163.98 193.998C160.589 188.486 159.517 181.857 160.996 175.557L179.01 98.8789C180.645 91.9194 185.238 86.0211 191.585 82.7309L247.398 53.7977Z" stroke="url(#paint50_linear_2079_969)"/>
<path opacity="0.782609" d="M248.996 52.0233C256.433 47.6968 265.595 47.5887 273.132 51.7387L327.52 81.6839C333.798 85.1407 338.248 91.1733 339.697 98.1924L355.273 173.643C356.591 180.027 355.31 186.674 351.714 192.111L312.825 250.913C308.345 257.687 300.799 261.801 292.679 261.897L234.411 262.584C226.291 262.68 218.65 258.745 214.012 252.079L173.746 194.21C170.023 188.859 168.586 182.245 169.753 175.831L183.545 100.034C184.828 92.9828 189.135 86.8469 195.33 83.2429L248.996 52.0233Z" stroke="url(#paint51_linear_2079_969)"/>
<path opacity="0.797101" d="M250.819 50.5314C257.982 45.8851 267.047 45.3027 274.745 48.9943L330.027 75.503C336.506 78.6098 341.294 84.4042 343.125 91.3524L362.313 164.181C363.987 170.533 363.039 177.291 359.684 182.938L324.348 242.412C320.218 249.363 312.925 253.829 304.856 254.348L247.232 258.049C239.163 258.568 231.358 255.072 226.373 248.706L183.717 194.242C179.667 189.071 177.863 182.49 178.71 175.976L188.422 101.291C189.348 94.1654 193.356 87.8059 199.384 83.8956L250.819 50.5314Z" stroke="url(#paint52_linear_2079_969)"/>
<path opacity="0.811594" d="M252.883 49.3043C259.757 44.3559 268.7 43.3092 276.531 46.5364L332.499 69.6005C339.159 72.3452 344.274 77.8821 346.483 84.7388L369.05 154.778C371.08 161.078 370.474 167.932 367.371 173.778L335.553 233.719C331.78 240.828 324.755 245.63 316.761 246.566L259.932 253.217C251.938 254.153 243.994 251.103 238.681 245.057L193.881 194.084C189.512 189.112 187.34 182.583 187.86 175.985L193.643 102.628C194.21 95.4461 197.908 88.8777 203.754 84.6691L252.883 49.3043Z" stroke="url(#paint53_linear_2079_969)"/>
<path opacity="0.826087" d="M255.199 48.3242C261.772 43.092 270.567 41.5924 278.502 44.351L334.95 63.9746C341.772 66.3462 347.2 71.6069 349.784 78.3514L375.488 145.448C377.875 151.678 377.618 158.612 374.776 164.649L346.431 224.854C343.019 232.102 336.279 237.223 328.383 238.57L272.493 248.099C264.597 249.445 256.541 246.846 250.92 241.139L204.226 193.727C199.545 188.973 197.004 182.516 197.192 175.847L199.211 104.024C199.414 96.804 202.792 90.0419 208.443 85.5437L255.199 48.3242Z" stroke="url(#paint54_linear_2079_969)"/>
<path opacity="0.84058" d="M257.78 47.5725C264.039 42.0753 272.664 40.1356 280.674 42.4232L337.399 58.6224C344.362 60.6108 350.089 65.5775 353.042 72.1892L381.636 136.21C384.379 142.351 384.476 149.349 381.906 155.565L356.977 215.84C353.93 223.207 347.49 228.63 339.713 230.379L284.904 242.707C277.126 244.456 268.984 242.312 263.077 236.96L214.74 193.163C209.756 188.646 206.848 182.28 206.697 175.556L205.126 105.457C204.964 98.2181 208.012 91.2777 213.453 86.4995L257.78 47.5725Z" stroke="url(#paint55_linear_2079_969)"/>
<path opacity="0.855072" d="M260.635 47.0295C266.571 41.2868 275.001 38.9212 283.058 40.7371L339.86 53.5397C346.942 55.136 352.952 59.7913 356.268 66.2499L387.499 127.078C390.596 133.111 391.055 140.158 388.765 146.541L367.184 206.698C364.506 214.164 358.379 219.871 350.742 222.014L297.149 237.054C289.512 239.197 281.311 237.511 275.139 232.529L225.41 192.383C220.134 188.123 216.859 181.867 216.365 175.103L211.388 106.908C210.859 99.6668 213.57 92.5644 218.787 87.5162L260.635 47.0295Z" stroke="url(#paint56_linear_2079_969)"/>
<path opacity="0.869565" d="M263.774 46.6768C269.376 40.7085 277.589 37.9324 285.664 39.2778L342.347 48.7228C349.527 49.9193 355.804 54.2466 359.475 60.5321L393.085 118.069C396.535 123.975 397.359 131.054 395.358 137.594L377.048 197.451C374.74 204.996 368.939 210.968 361.465 213.494L309.214 231.155C301.74 233.682 293.506 232.454 287.093 227.856L236.222 191.383C230.664 187.398 227.025 181.271 226.184 174.483L217.993 108.354C217.099 101.13 219.463 93.8823 224.444 88.575L263.774 46.6768Z" stroke="url(#paint57_linear_2079_969)"/>
<path opacity="0.884058" d="M267.203 46.494C272.464 40.3202 280.439 37.1503 288.503 38.0282L344.876 44.1659C352.132 44.9559 358.657 48.9396 362.676 55.0322L398.404 109.199C402.202 114.958 403.397 122.051 401.694 128.737L386.567 188.12C384.63 195.725 379.167 201.941 371.875 204.84L321.09 225.025C313.797 227.923 305.558 227.153 298.929 222.953L247.164 190.156C241.336 186.463 237.335 180.485 236.144 173.69L224.94 109.776C223.68 102.587 225.691 95.2108 230.424 89.6556L267.203 46.494Z" stroke="url(#paint58_linear_2079_969)"/>
<path opacity="0.898551" d="M270.93 46.4606C275.842 40.1019 283.56 36.556 291.584 36.9712L347.46 39.8624C354.769 40.2405 361.525 43.8657 365.881 49.7459L403.465 100.481C407.608 106.073 409.177 113.165 407.779 119.983L395.74 178.728C394.174 186.372 389.059 192.814 381.968 196.072L332.765 218.677C325.673 221.935 317.454 221.62 310.634 217.829L258.221 188.696C252.137 185.314 247.779 179.505 246.234 172.718L232.224 111.153C230.6 104.017 232.251 96.5296 236.724 90.7384L270.93 46.4606Z" stroke="url(#paint59_linear_2079_969)"/>
<path opacity="0.913043" d="M274.958 46.5569C279.516 40.0341 286.958 36.1312 294.915 36.0902L350.114 35.8058C357.451 35.768 364.419 39.0207 369.102 44.6696L408.278 91.9289C412.761 97.3364 414.707 104.408 413.623 111.347L404.567 169.295C403.37 176.961 398.612 183.606 391.741 187.21L344.228 212.129C337.357 215.732 329.185 215.868 322.198 212.496L269.379 186.999C263.053 183.946 258.342 178.324 256.443 171.562L239.838 112.465C237.853 105.401 239.139 97.8194 243.342 91.8048L274.958 46.5569Z" stroke="url(#paint60_linear_2079_969)"/>
<path opacity="0.927536" d="M279.293 46.7626C283.492 40.0967 290.64 35.8566 298.503 35.3677L352.85 31.9886C360.193 31.532 367.352 34.3994 372.35 39.7984L412.856 83.5573C417.672 88.7601 419.998 95.7941 419.234 102.842L413.05 159.846C412.219 167.513 407.826 174.341 401.193 178.275L355.473 205.396C348.84 209.33 340.742 209.912 333.614 206.966L280.625 185.063C274.073 182.355 269.015 176.941 266.759 170.22L247.777 113.693C245.435 106.719 246.351 99.0612 250.272 92.8362L279.293 46.7626Z" stroke="url(#paint61_linear_2079_969)"/>
<path opacity="0.942029" d="M283.936 47.0564C287.773 40.2684 294.611 35.7119 302.353 34.7851L355.681 28.4013C363.005 27.5245 370.335 29.9946 375.635 35.1257L417.209 75.3773C422.352 80.3562 425.06 87.3349 424.622 94.4793L421.192 150.399C420.722 158.048 416.7 165.038 410.323 169.287L366.49 198.493C360.112 202.743 352.113 203.763 344.872 201.251L291.944 182.883C285.182 180.536 279.784 175.349 277.17 168.686L256.032 114.818C253.337 107.951 253.88 100.235 257.51 93.8132L283.936 47.0564Z" stroke="url(#paint62_linear_2079_969)"/>
<path opacity="0.956522" d="M288.889 47.4189C292.361 40.53 298.875 35.6788 306.47 34.3258L358.618 25.0361C365.9 23.739 373.378 25.8009 378.966 30.6467L421.351 67.402C426.812 72.1376 429.903 79.0431 429.797 86.2707L428.995 140.977C428.884 148.591 425.238 155.719 419.131 160.268L377.274 191.44C371.167 195.988 363.292 197.438 355.966 195.363L303.323 180.458C296.368 178.489 290.638 173.549 287.665 166.96L264.594 115.822C261.552 109.079 261.719 101.324 265.049 94.7191L288.889 47.4189Z" stroke="url(#paint63_linear_2079_969)"/>
<path opacity="0.971014" d="M294.151 47.8294C297.258 40.8605 303.435 35.7371 310.858 33.9712L361.673 21.8828C368.888 20.1665 376.492 21.8106 382.354 26.3544L425.294 59.6418C431.065 64.1152 434.539 70.9293 434.771 78.227L436.467 131.6C436.707 139.16 433.443 146.406 427.621 151.235L387.819 184.251C381.998 189.079 374.273 190.949 366.888 189.316L314.747 177.787C307.618 176.21 301.564 171.536 298.234 165.038L273.454 116.687C270.072 110.087 269.861 102.31 272.881 95.536L294.151 47.8294Z" stroke="url(#paint64_linear_2079_969)"/>
<path opacity="0.985507" d="M299.721 48.2681C302.463 41.2402 308.29 35.8676 315.517 33.7038L364.856 18.9314C371.98 16.7985 379.687 18.0164 385.806 22.242L429.052 52.1073C435.123 56.2995 438.981 63.0038 439.556 70.3587L443.613 122.289C444.198 129.776 441.317 137.119 435.795 142.21L398.122 176.944C392.6 182.035 385.048 184.312 377.633 183.122L326.203 174.869C318.919 173.7 312.549 169.311 308.863 162.921L282.6 117.396C278.885 110.955 278.295 103.175 280.998 96.2473L299.721 48.2681Z" stroke="url(#paint65_linear_2079_969)"/>
<path d="M305.596 48.7147C307.975 41.6486 313.443 36.0505 320.451 33.5052L368.177 16.1706C375.185 13.6253 382.971 14.4096 389.33 18.3017L432.64 44.8077C438.999 48.6997 443.24 55.2759 444.162 62.6746L450.442 113.062C451.364 120.46 448.867 127.876 443.657 133.21L408.179 169.536C402.969 174.87 395.614 177.541 388.196 176.794L337.675 171.704C330.256 170.957 323.582 166.872 319.541 160.606L292.021 117.934C287.98 111.668 287.012 103.903 289.392 96.8365L305.596 48.7147Z" stroke="url(#paint66_linear_2079_969)"/>
</g>
<defs>
<radialGradient id="paint0_radial_2079_969" cx="0" cy="0" r="1" gradientUnits="userSpaceOnUse" gradientTransform="translate(100 -6.00241e-06) rotate(25.9964) scale(360.472 473.645)">
<stop stop-color="#9158DB" stop-opacity="0.1"/>
<stop offset="1" stop-color="white" stop-opacity="0"/>
</radialGradient>
<linearGradient id="paint1_linear_2079_969" x1="-40.7983" y1="578.411" x2="-206.151" y2="162.385" gradientUnits="userSpaceOnUse">
<stop offset="0.0001" stop-color="white" stop-opacity="0"/>
<stop offset="1" stop-color="#9158DB"/>
</linearGradient>
<linearGradient id="paint2_linear_2079_969" x1="-23.9867" y1="568.11" x2="-209.236" y2="164.899" gradientUnits="userSpaceOnUse">
<stop offset="0.0001" stop-color="white" stop-opacity="0"/>
<stop offset="1" stop-color="#9158DB"/>
</linearGradient>
<linearGradient id="paint3_linear_2079_969" x1="-7.60034" y1="557.361" x2="-211.863" y2="167.896" gradientUnits="userSpaceOnUse">
<stop offset="0.0001" stop-color="white" stop-opacity="0"/>
<stop offset="1" stop-color="#9158DB"/>
</linearGradient>
<linearGradient id="paint4_linear_2079_969" x1="8.33918" y1="546.189" x2="-214.011" y2="171.346" gradientUnits="userSpaceOnUse">
<stop offset="0.0001" stop-color="white" stop-opacity="0"/>
<stop offset="1" stop-color="#9158DB"/>
</linearGradient>
<linearGradient id="paint5_linear_2079_969" x1="23.814" y1="534.623" x2="-215.658" y2="175.22" gradientUnits="userSpaceOnUse">
<stop offset="0.0001" stop-color="white" stop-opacity="0"/>
<stop offset="1" stop-color="#9158DB"/>
</linearGradient>
<linearGradient id="paint6_linear_2079_969" x1="38.8059" y1="522.694" x2="-216.788" y2="179.485" gradientUnits="userSpaceOnUse">
<stop offset="0.0001" stop-color="white" stop-opacity="0"/>
<stop offset="1" stop-color="#9158DB"/>
</linearGradient>
<linearGradient id="paint7_linear_2079_969" x1="53.3008" y1="510.43" x2="-217.382" y2="184.109" gradientUnits="userSpaceOnUse">
<stop offset="0.0001" stop-color="white" stop-opacity="0"/>
<stop offset="1" stop-color="#9158DB"/>
</linearGradient>
<linearGradient id="paint8_linear_2079_969" x1="67.2851" y1="497.862" x2="-217.427" y2="189.06" gradientUnits="userSpaceOnUse">
<stop offset="0.0001" stop-color="white" stop-opacity="0"/>
<stop offset="1" stop-color="#9158DB"/>
</linearGradient>
<linearGradient id="paint9_linear_2079_969" x1="80.746" y1="485.021" x2="-216.91" y2="194.304" gradientUnits="userSpaceOnUse">
<stop offset="0.0001" stop-color="white" stop-opacity="0"/>
<stop offset="1" stop-color="#9158DB"/>
</linearGradient>
<linearGradient id="paint10_linear_2079_969" x1="93.6751" y1="471.94" x2="-215.821" y2="199.808" gradientUnits="userSpaceOnUse">
<stop offset="0.0001" stop-color="white" stop-opacity="0"/>
<stop offset="1" stop-color="#9158DB"/>
</linearGradient>
<linearGradient id="paint11_linear_2079_969" x1="106.063" y1="458.648" x2="-214.151" y2="205.538" gradientUnits="userSpaceOnUse">
<stop offset="0.0001" stop-color="white" stop-opacity="0"/>
<stop offset="1" stop-color="#9158DB"/>
</linearGradient>
<linearGradient id="paint12_linear_2079_969" x1="117.905" y1="445.178" x2="-211.894" y2="211.458" gradientUnits="userSpaceOnUse">
<stop offset="0.0001" stop-color="white" stop-opacity="0"/>
<stop offset="1" stop-color="#9158DB"/>
</linearGradient>
<linearGradient id="paint13_linear_2079_969" x1="129.196" y1="431.562" x2="-209.043" y2="217.536" gradientUnits="userSpaceOnUse">
<stop offset="0.0001" stop-color="white" stop-opacity="0"/>
<stop offset="1" stop-color="#9158DB"/>
</linearGradient>
<linearGradient id="paint14_linear_2079_969" x1="139.934" y1="417.832" x2="-205.599" y2="223.736" gradientUnits="userSpaceOnUse">
<stop offset="0.0001" stop-color="white" stop-opacity="0"/>
<stop offset="1" stop-color="#9158DB"/>
</linearGradient>
<linearGradient id="paint15_linear_2079_969" x1="150.117" y1="404.019" x2="-201.558" y2="230.025" gradientUnits="userSpaceOnUse">
<stop offset="0.0001" stop-color="white" stop-opacity="0"/>
<stop offset="1" stop-color="#9158DB"/>
</linearGradient>
<linearGradient id="paint16_linear_2079_969" x1="159.748" y1="390.156" x2="-196.924" y2="236.37" gradientUnits="userSpaceOnUse">
<stop offset="0.0001" stop-color="white" stop-opacity="0"/>
<stop offset="1" stop-color="#9158DB"/>
</linearGradient>
<linearGradient id="paint17_linear_2079_969" x1="168.828" y1="376.272" x2="-191.697" y2="242.736" gradientUnits="userSpaceOnUse">
<stop offset="0.0001" stop-color="white" stop-opacity="0"/>
<stop offset="1" stop-color="#9158DB"/>
</linearGradient>
<linearGradient id="paint18_linear_2079_969" x1="177.363" y1="362.398" x2="-185.885" y2="249.09" gradientUnits="userSpaceOnUse">
<stop offset="0.0001" stop-color="white" stop-opacity="0"/>
<stop offset="1" stop-color="#9158DB"/>
</linearGradient>
<linearGradient id="paint19_linear_2079_969" x1="185.359" y1="348.566" x2="-179.493" y2="255.401" gradientUnits="userSpaceOnUse">
<stop offset="0.0001" stop-color="white" stop-opacity="0"/>
<stop offset="1" stop-color="#9158DB"/>
</linearGradient>
<linearGradient id="paint20_linear_2079_969" x1="192.824" y1="334.803" x2="-172.53" y2="261.637" gradientUnits="userSpaceOnUse">
<stop offset="0.0001" stop-color="white" stop-opacity="0"/>
<stop offset="1" stop-color="#9158DB"/>
</linearGradient>
<linearGradient id="paint21_linear_2079_969" x1="199.766" y1="321.139" x2="-165.006" y2="267.766" gradientUnits="userSpaceOnUse">
<stop offset="0.0001" stop-color="white" stop-opacity="0"/>
<stop offset="1" stop-color="#9158DB"/>
</linearGradient>
<linearGradient id="paint22_linear_2079_969" x1="222.564" y1="268.016" x2="-129.562" y2="290.637" gradientUnits="userSpaceOnUse">
<stop offset="0.0001" stop-color="white" stop-opacity="0"/>
<stop offset="1" stop-color="#9158DB"/>
</linearGradient>
<linearGradient id="paint23_linear_2079_969" x1="227.092" y1="255.245" x2="-119.442" y2="295.805" gradientUnits="userSpaceOnUse">
<stop offset="0.0001" stop-color="white" stop-opacity="0"/>
<stop offset="1" stop-color="#9158DB"/>
</linearGradient>
<linearGradient id="paint24_linear_2079_969" x1="231.186" y1="242.727" x2="-108.855" y2="300.703" gradientUnits="userSpaceOnUse">
<stop offset="0.0001" stop-color="white" stop-opacity="0"/>
<stop offset="1" stop-color="#9158DB"/>
</linearGradient>
<linearGradient id="paint25_linear_2079_969" x1="234.864" y1="230.482" x2="-97.8223" y2="305.308" gradientUnits="userSpaceOnUse">
<stop offset="0.0001" stop-color="white" stop-opacity="0"/>
<stop offset="1" stop-color="#9158DB"/>
</linearGradient>
<linearGradient id="paint26_linear_2079_969" x1="238.147" y1="218.53" x2="-86.363" y2="309.597" gradientUnits="userSpaceOnUse">
<stop offset="0.0001" stop-color="white" stop-opacity="0"/>
<stop offset="1" stop-color="#9158DB"/>
</linearGradient>
<linearGradient id="paint27_linear_2079_969" x1="241.055" y1="206.89" x2="-74.5011" y2="313.55" gradientUnits="userSpaceOnUse">
<stop offset="0.0001" stop-color="white" stop-opacity="0"/>
<stop offset="1" stop-color="#9158DB"/>
</linearGradient>
<linearGradient id="paint28_linear_2079_969" x1="243.609" y1="195.579" x2="-62.2599" y2="317.149" gradientUnits="userSpaceOnUse">
<stop offset="0.0001" stop-color="white" stop-opacity="0"/>
<stop offset="1" stop-color="#9158DB"/>
</linearGradient>
<linearGradient id="paint29_linear_2079_969" x1="245.834" y1="184.615" x2="-49.6634" y2="320.377" gradientUnits="userSpaceOnUse">
<stop offset="0.0001" stop-color="white" stop-opacity="0"/>
<stop offset="1" stop-color="#9158DB"/>
</linearGradient>
<linearGradient id="paint30_linear_2079_969" x1="247.751" y1="174.011" x2="-36.7365" y2="323.217" gradientUnits="userSpaceOnUse">
<stop offset="0.0001" stop-color="white" stop-opacity="0"/>
<stop offset="1" stop-color="#9158DB"/>
</linearGradient>
<linearGradient id="paint31_linear_2079_969" x1="249.385" y1="163.781" x2="-23.5062" y2="325.655" gradientUnits="userSpaceOnUse">
<stop offset="0.0001" stop-color="white" stop-opacity="0"/>
<stop offset="1" stop-color="#9158DB"/>
</linearGradient>
<linearGradient id="paint32_linear_2079_969" x1="250.76" y1="153.936" x2="-9.99661" y2="327.679" gradientUnits="userSpaceOnUse">
<stop offset="0.0001" stop-color="white" stop-opacity="0"/>
<stop offset="1" stop-color="#9158DB"/>
</linearGradient>
<linearGradient id="paint33_linear_2079_969" x1="251.902" y1="144.486" x2="3.76445" y2="329.278" gradientUnits="userSpaceOnUse">
<stop offset="0.0001" stop-color="white" stop-opacity="0"/>
<stop offset="1" stop-color="#9158DB"/>
</linearGradient>
<linearGradient id="paint34_linear_2079_969" x1="252.834" y1="135.44" x2="17.7494" y2="330.443" gradientUnits="userSpaceOnUse">
<stop offset="0.0001" stop-color="white" stop-opacity="0"/>
<stop offset="1" stop-color="#9158DB"/>
</linearGradient>
<linearGradient id="paint35_linear_2079_969" x1="253.584" y1="126.805" x2="31.932" y2="331.166" gradientUnits="userSpaceOnUse">
<stop offset="0.0001" stop-color="white" stop-opacity="0"/>
<stop offset="1" stop-color="#9158DB"/>
</linearGradient>
<linearGradient id="paint36_linear_2079_969" x1="254.175" y1="118.587" x2="46.283" y2="331.441" gradientUnits="userSpaceOnUse">
<stop offset="0.0001" stop-color="white" stop-opacity="0"/>
<stop offset="1" stop-color="#9158DB"/>
</linearGradient>
<linearGradient id="paint37_linear_2079_969" x1="254.635" y1="110.789" x2="60.7769" y2="331.265" gradientUnits="userSpaceOnUse">
<stop offset="0.0001" stop-color="white" stop-opacity="0"/>
<stop offset="1" stop-color="#9158DB"/>
</linearGradient>
<linearGradient id="paint38_linear_2079_969" x1="254.988" y1="103.415" x2="75.3849" y2="330.634" gradientUnits="userSpaceOnUse">
<stop offset="0.0001" stop-color="white" stop-opacity="0"/>
<stop offset="1" stop-color="#9158DB"/>
</linearGradient>
<linearGradient id="paint39_linear_2079_969" x1="255.26" y1="96.4634" x2="90.0796" y2="329.547" gradientUnits="userSpaceOnUse">
<stop offset="0.0001" stop-color="white" stop-opacity="0"/>
<stop offset="1" stop-color="#9158DB"/>
</linearGradient>
<linearGradient id="paint40_linear_2079_969" x1="255.477" y1="89.9353" x2="104.834" y2="328.005" gradientUnits="userSpaceOnUse">
<stop offset="0.0001" stop-color="white" stop-opacity="0"/>
<stop offset="1" stop-color="#9158DB"/>
</linearGradient>
<linearGradient id="paint41_linear_2079_969" x1="255.663" y1="83.8284" x2="119.621" y2="326.011" gradientUnits="userSpaceOnUse">
<stop offset="0.0001" stop-color="white" stop-opacity="0"/>
<stop offset="1" stop-color="#9158DB"/>
</linearGradient>
<linearGradient id="paint42_linear_2079_969" x1="255.844" y1="78.1387" x2="134.416" y2="323.568" gradientUnits="userSpaceOnUse">
<stop offset="0.0001" stop-color="white" stop-opacity="0"/>
<stop offset="1" stop-color="#9158DB"/>
</linearGradient>
<linearGradient id="paint43_linear_2079_969" x1="256.042" y1="72.8618" x2="149.19" y2="320.681" gradientUnits="userSpaceOnUse">
<stop offset="0.0001" stop-color="white" stop-opacity="0"/>
<stop offset="1" stop-color="#9158DB"/>
</linearGradient>
<linearGradient id="paint44_linear_2079_969" x1="256.283" y1="67.9911" x2="163.919" y2="317.358" gradientUnits="userSpaceOnUse">
<stop offset="0.0001" stop-color="white" stop-opacity="0"/>
<stop offset="1" stop-color="#9158DB"/>
</linearGradient>
<linearGradient id="paint45_linear_2079_969" x1="256.588" y1="63.519" x2="178.578" y2="313.606" gradientUnits="userSpaceOnUse">
<stop offset="0.0001" stop-color="white" stop-opacity="0"/>
<stop offset="1" stop-color="#9158DB"/>
</linearGradient>
<linearGradient id="paint46_linear_2079_969" x1="256.981" y1="59.4368" x2="193.144" y2="309.435" gradientUnits="userSpaceOnUse">
<stop offset="0.0001" stop-color="white" stop-opacity="0"/>
<stop offset="1" stop-color="#9158DB"/>
</linearGradient>
<linearGradient id="paint47_linear_2079_969" x1="257.482" y1="55.7339" x2="207.593" y2="304.856" gradientUnits="userSpaceOnUse">
<stop offset="0.0001" stop-color="white" stop-opacity="0"/>
<stop offset="1" stop-color="#9158DB"/>
</linearGradient>
<linearGradient id="paint48_linear_2079_969" x1="258.113" y1="52.3995" x2="221.902" y2="299.882" gradientUnits="userSpaceOnUse">
<stop offset="0.0001" stop-color="white" stop-opacity="0"/>
<stop offset="1" stop-color="#9158DB"/>
</linearGradient>
<linearGradient id="paint49_linear_2079_969" x1="258.893" y1="49.4207" x2="236.051" y2="294.525" gradientUnits="userSpaceOnUse">
<stop offset="0.0001" stop-color="white" stop-opacity="0"/>
<stop offset="1" stop-color="#9158DB"/>
</linearGradient>
<linearGradient id="paint50_linear_2079_969" x1="259.841" y1="46.784" x2="250.018" y2="288.799" gradientUnits="userSpaceOnUse">
<stop offset="0.0001" stop-color="white" stop-opacity="0"/>
<stop offset="1" stop-color="#9158DB"/>
</linearGradient>
<linearGradient id="paint51_linear_2079_969" x1="260.977" y1="44.4752" x2="263.787" y2="282.722" gradientUnits="userSpaceOnUse">
<stop offset="0.0001" stop-color="white" stop-opacity="0"/>
<stop offset="1" stop-color="#9158DB"/>
</linearGradient>
<linearGradient id="paint52_linear_2079_969" x1="262.314" y1="42.4788" x2="277.336" y2="276.309" gradientUnits="userSpaceOnUse">
<stop offset="0.0001" stop-color="white" stop-opacity="0"/>
<stop offset="1" stop-color="#9158DB"/>
</linearGradient>
<linearGradient id="paint53_linear_2079_969" x1="263.871" y1="40.7785" x2="290.65" y2="269.577" gradientUnits="userSpaceOnUse">
<stop offset="0.0001" stop-color="white" stop-opacity="0"/>
<stop offset="1" stop-color="#9158DB"/>
</linearGradient>
<linearGradient id="paint54_linear_2079_969" x1="265.661" y1="39.3573" x2="303.714" y2="262.546" gradientUnits="userSpaceOnUse">
<stop offset="0.0001" stop-color="white" stop-opacity="0"/>
<stop offset="1" stop-color="#9158DB"/>
</linearGradient>
<linearGradient id="paint55_linear_2079_969" x1="267.697" y1="38.1975" x2="316.512" y2="255.234" gradientUnits="userSpaceOnUse">
<stop offset="0.0001" stop-color="white" stop-opacity="0"/>
<stop offset="1" stop-color="#9158DB"/>
</linearGradient>
<linearGradient id="paint56_linear_2079_969" x1="269.993" y1="37.2801" x2="329.032" y2="247.66" gradientUnits="userSpaceOnUse">
<stop offset="0.0001" stop-color="white" stop-opacity="0"/>
<stop offset="1" stop-color="#9158DB"/>
</linearGradient>
<linearGradient id="paint57_linear_2079_969" x1="272.559" y1="36.5873" x2="341.262" y2="239.846" gradientUnits="userSpaceOnUse">
<stop offset="0.0001" stop-color="white" stop-opacity="0"/>
<stop offset="1" stop-color="#9158DB"/>
</linearGradient>
<linearGradient id="paint58_linear_2079_969" x1="275.404" y1="36.0991" x2="353.191" y2="231.811" gradientUnits="userSpaceOnUse">
<stop offset="0.0001" stop-color="white" stop-opacity="0"/>
<stop offset="1" stop-color="#9158DB"/>
</linearGradient>
<linearGradient id="paint59_linear_2079_969" x1="278.537" y1="35.7955" x2="364.811" y2="223.578" gradientUnits="userSpaceOnUse">
<stop offset="0.0001" stop-color="white" stop-opacity="0"/>
<stop offset="1" stop-color="#9158DB"/>
</linearGradient>
<linearGradient id="paint60_linear_2079_969" x1="281.965" y1="35.6569" x2="376.113" y2="215.168" gradientUnits="userSpaceOnUse">
<stop offset="0.0001" stop-color="white" stop-opacity="0"/>
<stop offset="1" stop-color="#9158DB"/>
</linearGradient>
<linearGradient id="paint61_linear_2079_969" x1="285.694" y1="35.6632" x2="387.092" y2="206.602" gradientUnits="userSpaceOnUse">
<stop offset="0.0001" stop-color="white" stop-opacity="0"/>
<stop offset="1" stop-color="#9158DB"/>
</linearGradient>
<linearGradient id="paint62_linear_2079_969" x1="289.728" y1="35.7929" x2="397.743" y2="197.903" gradientUnits="userSpaceOnUse">
<stop offset="0.0001" stop-color="white" stop-opacity="0"/>
<stop offset="1" stop-color="#9158DB"/>
</linearGradient>
<linearGradient id="paint63_linear_2079_969" x1="294.071" y1="36.0267" x2="408.062" y2="189.092" gradientUnits="userSpaceOnUse">
<stop offset="0.0001" stop-color="white" stop-opacity="0"/>
<stop offset="1" stop-color="#9158DB"/>
</linearGradient>
<linearGradient id="paint64_linear_2079_969" x1="298.725" y1="36.3436" x2="418.047" y2="180.192" gradientUnits="userSpaceOnUse">
<stop offset="0.0001" stop-color="white" stop-opacity="0"/>
<stop offset="1" stop-color="#9158DB"/>
</linearGradient>
<linearGradient id="paint65_linear_2079_969" x1="303.689" y1="36.7233" x2="427.698" y2="171.225" gradientUnits="userSpaceOnUse">
<stop offset="0.0001" stop-color="white" stop-opacity="0"/>
<stop offset="1" stop-color="#9158DB"/>
</linearGradient>
<linearGradient id="paint66_linear_2079_969" x1="308.964" y1="37.1453" x2="437.016" y2="162.212" gradientUnits="userSpaceOnUse">
<stop offset="0.0001" stop-color="white" stop-opacity="0"/>
<stop offset="1" stop-color="#9158DB"/>
</linearGradient>
<clipPath id="clip0_2079_969">
<rect width="422" height="156" fill="white" transform="translate(1 1)"/>
</clipPath>
</defs>
</svg>
