<svg width="424" height="158" viewBox="0 0 424 158" fill="none" xmlns="http://www.w3.org/2000/svg">
<rect width="424" height="158" rx="10" fill="url(#paint0_radial_2079_744)"/>
<g clip-path="url(#clip0_2079_744)">
<path opacity="0.188406" d="M528.257 -23.0942C536.359 -29.8419 547.868 -30.6499 556.833 -25.1001L636.986 24.5203C642.58 27.9835 646.546 33.5513 647.991 39.9702L679.699 180.801C680.859 185.953 680.323 191.341 678.172 196.164L627.958 308.732C624.271 316.998 616.327 322.558 607.299 323.191L526.944 328.832C517.916 329.466 509.274 325.07 504.468 317.401L439.02 212.951C436.216 208.477 434.933 203.216 435.362 197.953L447.083 54.0732C447.618 47.5154 450.767 41.4481 455.823 37.2373L528.257 -23.0942Z" stroke="url(#paint1_linear_2079_744)"/>
<path opacity="0.202899" d="M511.709 -22.9832C519.434 -30.1079 530.843 -31.5119 540.066 -26.4728L622.055 18.326C627.839 21.4861 632.105 26.843 633.891 33.187L672.563 170.558C673.999 175.659 673.742 181.088 671.831 186.031L627.863 299.767C624.604 308.196 616.972 314.146 608.003 315.25L528.647 325.015C519.678 326.119 510.83 322.196 505.626 314.809L435.395 215.126C432.343 210.794 430.777 205.589 430.934 200.292L435.147 57.6439C435.341 51.0562 438.182 44.8247 443.027 40.3568L511.709 -22.9832Z" stroke="url(#paint2_linear_2079_744)"/>
<path opacity="0.217391" d="M495.448 -22.4211C502.78 -29.9015 514.057 -31.893 523.508 -27.3766L607.051 12.5467C613.008 15.3932 617.564 20.523 619.687 26.7741L665.047 160.345C666.757 165.381 666.782 170.837 665.118 175.889L627.38 290.452C624.557 299.02 617.255 305.344 608.371 306.913L530.221 320.714C521.337 322.283 512.31 318.843 506.723 311.76L432.027 217.054C428.734 212.878 426.888 207.743 426.77 202.426L423.635 61.3975C423.489 54.7974 426.012 48.4174 430.633 43.7029L495.448 -22.4211Z" stroke="url(#paint3_linear_2079_744)"/>
<path opacity="0.231884" d="M479.496 -21.4281C486.419 -29.2422 497.533 -31.8112 507.183 -27.8278L591.997 7.18234C598.109 9.70558 602.942 14.5927 605.397 20.7331L657.156 150.185C659.138 155.141 659.446 160.61 658.035 165.758L626.493 280.81C624.112 289.496 617.157 296.175 608.383 298.203L531.642 315.942C522.867 317.97 513.687 315.021 507.736 308.261L428.902 218.722C425.375 214.716 423.252 209.667 422.858 204.343L412.555 65.3087C412.067 58.7138 414.265 52.2014 418.65 47.2516L479.496 -21.4281Z" stroke="url(#paint4_linear_2079_744)"/>
<path opacity="0.246377" d="M463.874 -20.026C470.372 -28.151 481.293 -31.2858 491.112 -27.8442L576.913 2.23147C583.165 4.42277 588.263 9.05219 591.044 15.0643L648.895 140.096C651.145 144.959 651.738 150.426 650.585 155.658L625.187 270.87C623.252 279.649 616.663 286.664 608.021 289.144L532.885 310.711C524.243 313.192 514.937 310.74 508.639 304.323L426.003 220.121C422.25 216.297 419.854 211.348 419.183 206.032L401.912 69.352C401.082 62.7798 402.948 56.1515 407.086 50.9781L463.874 -20.026Z" stroke="url(#paint5_linear_2079_744)"/>
<path opacity="0.26087" d="M448.6 -18.2375C454.66 -26.6499 465.359 -30.3371 475.316 -27.4443L561.824 -2.30851C568.196 -0.456922 573.545 3.90045 576.647 9.76697L640.269 130.1C642.783 134.855 643.662 140.305 642.772 145.61L623.449 260.655C621.963 269.507 615.756 276.836 607.271 279.761L533.926 305.037C525.441 307.961 516.036 306.012 509.412 299.956L423.314 221.241C419.345 217.611 416.68 212.777 415.73 207.482L391.709 73.5016C390.538 66.9697 392.067 60.2422 395.945 54.8578L448.6 -18.2375Z" stroke="url(#paint6_linear_2079_744)"/>
<path opacity="0.275362" d="M433.694 -16.0861C439.303 -24.7619 449.752 -28.9868 459.815 -26.6478L546.75 -6.44153C553.226 -4.93652 558.811 -0.864863 562.225 4.83909L631.288 120.215C634.061 124.848 635.226 130.267 634.602 135.631L621.269 250.195C620.233 259.094 614.423 266.718 606.117 270.076L534.744 298.935C526.439 302.293 516.962 300.85 510.032 295.172L420.819 222.071C416.643 218.649 413.714 213.943 412.487 208.685L381.949 77.7316C380.44 71.2576 381.626 64.448 385.235 58.8654L433.694 -16.0861Z" stroke="url(#paint7_linear_2079_744)"/>
<path opacity="0.289855" d="M419.172 -13.596C424.319 -22.5106 434.49 -27.2568 444.629 -25.4752L531.715 -10.1724C538.274 -9.01984 544.082 -5.24682 547.8 0.277985L621.959 110.461C624.986 114.958 626.436 120.332 626.082 125.741L618.635 239.516C618.051 248.439 612.652 256.336 604.548 260.117L535.319 292.422C527.215 296.204 517.694 295.269 510.48 289.985L418.501 222.605C414.128 219.402 410.941 214.839 409.439 209.63L372.634 82.0165C370.789 75.6177 371.627 68.7433 374.958 62.9761L419.172 -13.596Z" stroke="url(#paint8_linear_2079_744)"/>
<path opacity="0.304348" d="M405.047 -10.7924C409.723 -19.9207 419.59 -25.1705 429.773 -23.9479L516.738 -13.5074C523.363 -12.7122 529.376 -9.24992 533.389 -3.92044L612.292 100.856C615.566 105.203 617.3 110.517 617.219 115.959L615.541 228.645C615.408 237.57 610.432 245.717 602.551 249.909L535.628 285.516C527.748 289.709 518.211 289.284 510.735 284.407L416.343 222.835C411.784 219.862 408.346 215.456 406.57 210.311L363.762 86.3305C361.584 80.0242 362.073 73.1026 365.115 67.1647L405.047 -10.7924Z" stroke="url(#paint9_linear_2079_744)"/>
<path opacity="0.318841" d="M391.335 -7.70074C395.531 -17.0174 405.068 -22.7516 415.265 -22.0881L501.842 -16.4537C508.511 -16.0197 514.714 -12.8795 519.012 -7.76105L602.298 91.4167C605.812 95.6013 607.827 100.841 608.021 106.302L611.979 217.611C612.296 226.515 607.754 234.889 600.119 239.479L535.655 278.236C528.019 282.827 518.494 282.911 510.779 278.456L414.326 222.756C409.594 220.023 405.912 215.787 403.864 210.721L355.331 90.6484C352.826 84.4516 352.962 77.5005 355.707 71.4063L391.335 -7.70074Z" stroke="url(#paint10_linear_2079_744)"/>
<path opacity="0.333333" d="M378.047 -4.34725C381.756 -13.8265 390.94 -20.0249 401.118 -19.9184L487.045 -19.0196C493.741 -18.9496 500.116 -16.142 504.689 -11.2497L591.989 82.1611C595.736 86.1699 598.028 91.3203 598.499 96.787L607.946 206.442C608.709 215.302 604.613 223.879 597.242 228.853L535.382 270.603C528.011 275.577 518.524 276.167 510.594 272.145L412.435 222.361C407.542 219.879 403.623 215.827 401.307 210.852L347.339 94.9451C344.513 88.8747 344.294 81.9119 346.734 75.6761L378.047 -4.34725Z" stroke="url(#paint11_linear_2079_744)"/>
<path opacity="0.347826" d="M365.191 -0.758882C368.408 -10.3748 377.216 -17.0156 387.346 -17.4626L472.367 -21.2147C479.069 -21.5105 485.6 -19.045 490.434 -14.3937L581.376 73.105C585.347 76.9252 587.914 81.9724 588.662 87.4313L603.437 195.166C604.643 203.958 601 212.715 593.914 218.058L534.791 262.635C527.705 267.978 518.284 269.071 510.163 265.493L410.651 221.647C405.609 219.426 401.462 215.569 398.882 210.701L339.78 99.1955C336.638 93.268 336.065 86.3115 338.193 79.9493L365.191 -0.758882Z" stroke="url(#paint12_linear_2079_744)"/>
<path opacity="0.362319" d="M352.778 3.038C355.498 -6.68845 363.908 -13.749 373.959 -14.7443L457.827 -23.0489C464.515 -23.7112 471.182 -21.5966 476.266 -17.2001L570.472 64.2641C574.658 67.8836 577.495 72.8133 578.522 78.2507L598.452 183.811C600.095 192.514 596.913 201.426 590.131 207.121L533.869 254.355C527.086 260.05 517.758 261.64 509.471 258.515L408.955 220.612C403.777 218.659 399.413 215.011 396.573 210.262L332.648 103.376C329.198 97.6075 328.269 90.6751 330.08 84.2021L352.778 3.038Z" stroke="url(#paint13_linear_2079_744)"/>
<path opacity="0.376812" d="M340.814 7.01578C343.035 -2.79501 351.027 -10.2515 360.968 -11.7878L443.442 -24.5338C450.098 -25.5623 456.883 -23.8062 462.203 -19.6781L559.293 55.6528C563.683 59.0595 566.786 63.8579 568.09 69.2602L592.99 172.405C595.064 180.997 592.35 190.039 585.888 196.068L532.603 245.785C526.14 251.814 516.932 253.896 508.505 251.232L407.331 219.251C402.032 217.576 397.459 214.149 394.365 209.533L325.935 107.462C322.185 101.869 320.903 94.9783 322.39 88.4103L340.814 7.01578Z" stroke="url(#paint14_linear_2079_744)"/>
<path opacity="0.391304" d="M329.305 11.1476C331.025 1.27864 338.58 -6.54895 348.381 -8.61764L429.231 -25.6812C435.833 -27.0745 442.717 -25.6836 448.26 -21.8365L547.851 47.285C552.437 50.4677 555.798 55.1209 557.379 60.4744L587.054 160.976C589.551 169.434 587.31 178.582 581.185 184.928L530.979 236.947C524.854 243.293 515.791 245.857 507.249 243.66L405.759 217.566C400.353 216.176 395.584 212.981 392.241 208.511L319.633 111.432C315.592 106.028 313.958 99.198 315.117 92.5511L329.305 11.1476Z" stroke="url(#paint15_linear_2079_744)"/>
<path opacity="0.405797" d="M318.254 15.4056C319.473 5.50458 326.574 -2.66837 336.207 -5.25904L415.209 -26.5044C421.738 -28.26 428.701 -27.2401 434.452 -23.6861L536.164 39.1734C540.933 42.1211 544.548 46.6156 546.403 51.9066L580.647 149.55C583.559 157.855 581.794 167.084 576.022 173.727L528.987 227.863C523.216 234.507 514.324 237.544 505.694 235.82L404.224 215.554C398.725 214.456 393.77 211.505 390.185 207.194L313.732 115.261C309.41 110.063 307.427 103.31 308.253 96.6009L318.254 15.4056Z" stroke="url(#paint16_linear_2079_744)"/>
<path opacity="0.42029" d="M307.662 19.7627C308.382 9.8556 315.013 1.36382 324.45 -1.73681L401.392 -27.017C407.827 -29.1313 414.85 -28.4871 420.794 -25.2374L524.246 31.3299C529.188 34.0321 533.048 38.3546 535.176 43.5697L573.773 138.156C577.091 146.286 575.804 155.57 570.399 162.491L526.619 218.558C521.215 225.479 512.52 228.979 503.828 227.731L402.706 213.217C397.131 212.417 392.001 209.72 388.181 205.581L308.22 118.929C303.627 113.951 301.299 107.294 301.79 100.538L307.662 19.7627Z" stroke="url(#paint17_linear_2079_744)"/>
<path opacity="0.434783" d="M297.532 24.1918C297.755 14.3043 303.902 5.52104 313.115 1.92407L387.794 -27.2333C394.116 -29.7018 401.179 -29.437 407.299 -26.5021L512.114 23.7655C517.217 26.2124 521.315 30.35 523.712 35.4756L566.439 126.818C570.152 134.754 569.344 144.068 564.32 151.246L523.865 209.055C518.842 216.233 510.368 220.183 501.641 219.413L401.188 210.558C395.552 210.061 390.261 207.628 386.214 203.673L303.085 122.415C298.232 117.671 295.564 111.126 295.717 104.341L297.532 24.1918Z" stroke="url(#paint18_linear_2079_744)"/>
<path opacity="0.449275" d="M287.86 28.6661C287.592 18.8237 293.241 9.77682 302.203 5.69862L374.429 -27.1685C380.619 -29.9854 387.701 -30.1026 393.981 -27.4921L499.786 16.4902C505.036 18.6725 509.363 22.6127 512.027 27.6355L558.653 115.564C562.748 123.287 562.419 132.606 557.789 140.02L520.72 199.378C516.09 206.792 507.861 211.177 499.125 210.887L399.653 207.578C393.971 207.389 388.532 205.229 384.267 201.47L298.313 125.699C293.212 121.202 290.209 114.787 290.023 107.989L287.86 28.6661Z" stroke="url(#paint19_linear_2079_744)"/>
<path opacity="0.463768" d="M278.646 33.1587C277.891 23.3864 283.033 14.1044 291.718 9.56157L361.309 -26.8386C367.348 -29.997 374.429 -30.4978 380.852 -28.2206L487.279 9.51277C492.663 11.4217 497.211 15.1522 500.136 20.0591L550.426 104.418C554.891 111.909 555.038 121.208 550.813 128.836L517.179 189.55C512.954 197.178 504.992 201.985 496.274 202.172L398.085 204.28C392.374 204.403 386.799 202.526 382.325 198.974L293.89 128.762C288.553 124.524 285.222 118.256 284.697 111.461L278.646 33.1587Z" stroke="url(#paint20_linear_2079_744)"/>
<path opacity="0.478261" d="M269.884 37.6436C268.649 27.9659 273.273 18.4778 281.657 13.4883L348.446 -26.2596C354.314 -29.7518 361.374 -30.6366 367.922 -28.7006L474.61 2.84119C480.115 4.46872 484.873 7.97766 488.055 12.7557L541.765 93.4048C546.587 100.645 547.208 109.9 543.396 117.719L513.238 179.595C509.427 187.415 501.755 192.627 493.081 193.29L396.465 200.671C390.742 201.108 385.046 199.521 380.372 196.188L289.799 131.585C284.24 127.619 280.587 121.514 279.723 114.74L269.884 37.6436Z" stroke="url(#paint21_linear_2079_744)"/>
<path opacity="0.492754" d="M261.57 42.0953C259.863 32.5364 263.962 22.8714 272.021 17.4548L335.852 -25.448C341.531 -29.2651 348.548 -30.5333 355.204 -28.9455L461.798 -3.51736C467.41 -2.17869 472.369 1.09735 475.803 5.73366L532.685 82.5477C537.849 89.5213 538.939 98.7063 535.551 106.695L508.895 169.539C505.507 177.527 498.145 183.127 489.542 184.262L394.78 196.754C389.06 197.508 383.258 196.22 378.395 193.115L286.025 134.151C280.257 130.469 276.292 124.543 275.089 117.807L261.57 42.0953Z" stroke="url(#paint22_linear_2079_744)"/>
<path opacity="0.507246" d="M253.695 46.4881C251.525 37.0714 255.094 27.2592 262.805 21.436L323.534 -24.4216C329.006 -28.5538 335.96 -30.2036 342.705 -28.9701L448.862 -9.55778C454.565 -8.51476 459.714 -5.48255 463.393 -1.00043L523.198 71.8689C528.689 78.5596 530.242 87.651 527.284 95.7853L504.149 159.403C501.19 167.537 494.16 173.507 485.654 175.107L393.01 192.536C387.312 193.608 381.418 192.624 376.377 189.76L282.549 136.445C276.587 133.057 272.318 127.326 270.779 120.643L253.695 46.4881Z" stroke="url(#paint23_linear_2079_744)"/>
<path opacity="0.521739" d="M246.251 50.798C243.63 41.5465 246.663 31.6169 254.006 25.4089L311.502 -23.1974C316.75 -27.6338 323.619 -29.6624 330.435 -28.7884L435.82 -15.2748C441.601 -14.5335 446.928 -11.7556 450.845 -7.43988L513.319 61.3909C519.121 67.7833 521.131 76.7575 518.609 85.0138L499 149.212C496.479 157.468 489.798 163.788 481.414 165.847L391.143 188.024C385.483 189.415 379.513 188.742 374.304 186.126L279.354 138.451C273.213 135.367 268.649 129.846 266.776 123.235L246.251 50.798Z" stroke="url(#paint24_linear_2079_744)"/>
<path opacity="0.536232" d="M239.229 55.0011C236.167 45.9369 238.662 35.9196 245.617 29.35L299.763 -21.7935C304.769 -26.5223 311.534 -28.9258 318.402 -28.4154L422.69 -20.6651C428.533 -20.2309 434.027 -17.7172 438.175 -13.5799L503.063 51.1336C509.159 57.2135 511.617 66.0471 509.536 74.4018L493.451 138.989C491.371 147.343 485.057 153.993 476.821 156.503L389.162 183.226C383.558 184.934 377.527 184.578 372.163 182.221L276.42 140.155C270.116 137.385 265.268 132.089 263.064 125.565L239.229 55.0011Z" stroke="url(#paint25_linear_2079_744)"/>
<path opacity="0.550725" d="M232.618 59.0748C229.129 50.2191 231.084 40.1441 237.633 33.2368L288.323 -20.2277C293.072 -25.236 299.712 -28.0093 306.612 -27.8658L409.493 -25.7257C415.382 -25.6032 421.03 -23.3631 425.402 -19.4158L492.448 41.1172C498.821 46.8712 501.717 55.5415 500.081 63.9705L487.506 128.757C485.869 137.186 479.94 144.143 471.877 147.095L387.054 178.15C381.523 180.175 375.447 180.139 369.94 178.05L273.729 141.546C267.276 139.098 262.156 134.042 259.626 127.621L232.618 59.0748Z" stroke="url(#paint26_linear_2079_744)"/>
<path opacity="0.565217" d="M226.405 62.9965C222.502 54.37 223.919 44.2669 230.045 37.0471L277.189 -18.5186C281.663 -23.7927 288.159 -26.9297 295.072 -27.1552L396.246 -30.4556C402.166 -30.6487 407.955 -28.6911 412.542 -24.9451L481.49 31.3596C488.122 36.7753 491.446 45.2602 490.256 53.7393L481.167 118.538C479.978 127.017 474.448 134.26 466.582 137.643L384.804 172.805C379.363 175.145 373.259 175.434 367.621 173.62L271.259 142.612C264.675 140.493 259.293 135.69 256.442 129.388L226.405 62.9965Z" stroke="url(#paint27_linear_2079_744)"/>
<path opacity="0.57971" d="M220.576 66.7455C216.275 58.3679 217.156 48.2662 222.843 40.7598L266.363 -16.6842C270.549 -22.2095 276.88 -25.7029 283.786 -26.2986L382.97 -34.8541C388.904 -35.3659 394.82 -33.6991 399.614 -30.1653L470.21 21.8783C477.082 26.9443 480.821 35.2223 480.079 43.7275L474.442 108.355C473.701 116.86 468.585 124.366 460.94 128.166L382.4 167.202C377.067 169.853 370.951 170.47 365.196 168.939L268.99 143.342C262.291 141.559 256.661 137.023 253.495 130.856L220.576 66.7455Z" stroke="url(#paint28_linear_2079_744)"/>
<path opacity="0.594203" d="M215.118 70.3015C210.434 62.1915 210.783 52.1204 216.017 44.3541L255.849 -14.7431C259.732 -20.5041 265.879 -24.3457 272.759 -25.3118L369.682 -38.9221C375.613 -39.7549 381.644 -38.3865 386.634 -35.0753L458.625 12.689C465.718 17.3951 469.86 25.4455 469.565 33.9527L467.338 98.2288C467.043 106.736 462.354 114.48 454.952 118.684L379.828 161.351C374.62 164.308 368.509 165.256 362.65 164.015L266.901 143.728C260.104 142.288 254.239 138.03 250.764 132.014L215.118 70.3015Z" stroke="url(#paint29_linear_2079_744)"/>
<path opacity="0.608696" d="M210.014 73.6457C204.963 65.821 204.786 55.8093 209.556 47.8105L245.65 -12.7134C249.216 -18.6938 255.159 -22.8742 261.993 -24.2098L356.402 -42.661C362.314 -43.8164 368.444 -42.7534 373.622 -39.675L446.756 3.80662C454.051 8.14352 458.582 15.9465 458.732 24.4316L459.862 88.1802C460.012 96.6653 455.761 104.624 448.625 109.217L377.077 155.262C372.012 158.522 365.923 159.802 359.974 158.857L264.97 143.763C258.093 142.67 252.006 138.703 248.23 132.853L210.014 73.6457Z" stroke="url(#paint30_linear_2079_744)"/>
<path opacity="0.623188" d="M205.248 76.76C199.848 69.2372 199.152 59.3133 203.447 51.1101L235.765 -10.6135C239.003 -16.7963 244.723 -21.305 251.491 -23.0082L343.148 -46.0737C349.024 -47.5524 355.239 -46.8013 360.594 -43.9653L434.625 -4.75569C442.101 -0.796094 447.006 6.74037 447.598 15.1796L452.024 78.2292C452.616 86.6683 448.813 94.816 441.963 99.7813L374.136 148.949C369.23 152.505 363.18 154.117 357.155 153.474L263.175 143.439C256.236 142.699 249.941 139.033 245.872 133.363L205.248 76.76Z" stroke="url(#paint31_linear_2079_744)"/>
<path opacity="0.637681" d="M200.802 79.6277C195.072 72.4226 193.865 62.6141 197.677 54.235L226.196 -8.46159C229.092 -14.8289 234.572 -19.6546 241.255 -21.7224L329.937 -49.164C335.761 -50.9659 342.046 -50.5323 347.567 -47.948L422.253 -12.9858C429.891 -9.41054 435.153 -2.15874 436.182 6.21098L443.835 68.3951C444.865 76.7648 441.518 85.0759 434.975 90.3962L370.993 142.422C366.264 146.268 360.271 148.213 354.185 147.876L261.495 142.754C254.51 142.368 248.024 139.015 243.67 133.54L200.802 79.6277Z" stroke="url(#paint32_linear_2079_744)"/>
<path opacity="0.652174" d="M196.657 82.2332C190.617 75.3603 188.91 65.6944 192.231 57.1683L216.941 -6.27547C219.485 -12.8089 224.707 -17.939 231.284 -20.3674L316.789 -51.9366C322.542 -54.0607 328.883 -53.9499 334.559 -51.6259L409.662 -20.8731C417.44 -17.6881 423.043 -10.7381 424.504 -2.46111L435.305 58.6963C436.767 66.9733 433.883 75.4219 427.667 81.0785L367.64 135.696C363.104 139.823 357.185 142.099 351.052 142.074L259.906 141.702C252.895 141.673 246.232 138.642 241.603 133.376L196.657 82.2332Z" stroke="url(#paint33_linear_2079_744)"/>
<path opacity="0.666667" d="M192.796 84.5622C186.465 78.0349 184.269 68.5377 187.094 59.894L207.997 -4.07296C210.18 -10.7533 215.127 -16.1745 221.58 -18.9585L303.72 -54.3973C309.387 -56.842 315.767 -57.0583 321.586 -55.0028L396.873 -28.4085C404.772 -25.6185 410.697 -18.9866 412.584 -10.8251L426.447 49.1504C428.334 57.3119 425.92 65.8715 420.047 71.8447L364.068 128.782C359.741 133.182 353.913 135.788 347.749 136.078L258.388 140.282C251.368 140.612 244.544 137.912 239.651 132.867L192.796 84.5622Z" stroke="url(#paint34_linear_2079_744)"/>
<path opacity="0.681159" d="M189.198 86.6015C182.596 80.4319 179.925 71.1291 182.25 62.3971L199.362 -1.87146C201.175 -8.67895 205.83 -14.3768 212.139 -17.5105L290.748 -56.5529C296.31 -59.3156 302.714 -59.8627 308.665 -58.0835L383.912 -35.5843C391.909 -33.1929 398.139 -26.8941 400.442 -18.8706L417.275 39.7739C419.578 47.7975 417.638 56.4416 412.126 62.7106L360.267 121.694C356.166 126.358 350.447 129.291 344.266 129.899L256.917 138.492C249.907 139.182 242.938 136.82 237.791 132.01L189.198 86.6015Z" stroke="url(#paint35_linear_2079_744)"/>
<path opacity="0.695652" d="M185.843 88.3397C178.991 82.5389 175.861 73.455 177.684 64.6643L191.033 0.312281C192.467 -6.60207 196.815 -12.5613 202.962 -16.0374L277.89 -58.4108C283.331 -61.488 289.743 -62.3689 295.812 -60.8731L370.8 -42.3937C378.876 -40.4035 385.391 -34.4517 388.101 -26.588L407.803 30.583C410.513 38.4467 409.049 47.1484 403.914 53.6916L356.232 114.446C352.373 119.364 346.78 122.62 340.598 123.549L255.473 136.334C248.49 137.382 241.394 135.367 236.004 130.804L185.843 88.3397Z" stroke="url(#paint36_linear_2079_744)"/>
<path opacity="0.710145" d="M182.71 89.7661C175.629 84.3439 172.054 75.5023 173.376 66.6825L183.003 2.46134C184.052 -4.5391 188.078 -10.7435 194.043 -14.554L265.16 -59.9798C270.463 -63.3672 276.866 -64.5842 283.042 -63.3786L357.56 -48.8321C365.693 -47.2444 372.473 -41.6527 375.579 -33.97L398.045 21.5917C401.151 29.2744 400.164 38.0068 395.419 44.8014L351.954 107.053C348.352 112.212 342.902 115.788 336.735 117.039L254.032 133.808C247.094 135.214 239.888 133.552 234.267 129.248L182.71 89.7661Z" stroke="url(#paint37_linear_2079_744)"/>
<path opacity="0.724638" d="M179.778 90.8717C172.49 85.8366 168.488 77.2599 169.31 68.4403L175.267 4.55968C175.926 -2.50559 179.616 -8.93819 185.382 -13.074L252.575 -61.2691C257.723 -64.9617 264.102 -66.5164 270.371 -65.607L344.217 -54.8961C352.387 -53.711 359.41 -48.4911 362.901 -41.0099L388.017 12.8138C391.508 20.2949 390.997 29.0312 386.657 36.0539L347.429 99.5284C344.099 104.918 338.81 108.807 332.673 110.381L252.573 130.918C245.7 132.68 238.399 131.376 232.562 127.342L179.778 90.8717Z" stroke="url(#paint38_linear_2079_744)"/>
<path opacity="0.73913" d="M177.025 91.6493C169.552 87.0085 165.141 78.718 165.468 69.9279L167.819 6.5922C168.083 -0.51634 171.423 -7.15926 176.972 -11.6103L240.15 -62.2886C245.127 -66.2803 251.464 -68.1736 257.814 -67.5659L330.793 -60.583C338.978 -59.7997 346.225 -54.9619 350.088 -47.7022L377.736 4.26231C381.599 11.522 381.561 20.2353 377.637 27.4619L342.652 91.8875C339.607 97.4937 334.496 101.691 328.406 103.588L251.075 127.668C244.283 129.783 236.908 128.841 230.865 125.088L177.025 91.6493Z" stroke="url(#paint39_linear_2079_744)"/>
<path opacity="0.753623" d="M174.429 92.0917C166.795 87.8511 161.994 79.8671 161.83 71.1353L160.65 8.54285C160.516 1.41297 163.495 -5.42158 168.809 -10.1767L227.899 -63.05C232.687 -67.3341 238.966 -69.566 245.384 -69.2652L317.311 -65.8929C325.493 -65.5094 332.941 -61.0631 337.161 -54.0439L367.218 -4.05221C371.438 2.96703 371.871 11.6308 368.373 19.0363L337.618 84.1443C334.873 89.9534 329.957 94.4522 323.928 96.6716L249.517 124.063C242.825 126.526 235.392 125.952 229.158 122.489L174.429 92.0917Z" stroke="url(#paint40_linear_2079_744)"/>
<path opacity="0.768116" d="M171.97 92.1948C164.195 88.3593 159.026 80.7005 158.378 72.0554L153.753 10.3982C153.219 3.26921 155.824 -3.73769 160.887 -8.78501L215.836 -63.5642C220.419 -68.133 226.623 -70.703 233.094 -70.7133L303.796 -70.8259C311.952 -70.8389 319.58 -66.7922 324.143 -60.0316L356.479 -12.1186C361.042 -5.35806 361.941 3.22981 358.878 10.7889L332.323 76.3146C329.893 82.312 325.188 87.1042 319.237 89.6451L247.879 120.11C241.304 122.917 233.831 122.713 227.42 119.55L171.97 92.1948Z" stroke="url(#paint41_linear_2079_744)"/>
<path opacity="0.782609" d="M169.624 91.9542C161.731 88.5271 156.215 81.2111 155.092 72.6806L147.119 12.1435C146.183 5.03778 148.406 -2.12145 153.201 -7.44798L203.973 -63.8445C208.335 -68.6895 214.448 -71.5963 220.959 -71.9216L290.27 -75.3849C298.381 -75.7902 306.166 -72.1498 311.055 -65.6652L345.539 -19.9287C350.429 -13.4441 351.787 -4.95808 349.166 2.72857L326.767 68.4123C324.663 74.5825 320.186 79.6597 314.328 82.5202L246.14 115.817C239.699 118.962 232.205 119.129 225.631 116.274L169.624 91.9542Z" stroke="url(#paint42_linear_2079_744)"/>
<path opacity="0.797101" d="M167.37 91.3682C159.382 88.3517 153.542 81.3947 151.953 73.006L140.738 13.7661C139.401 6.70622 141.231 -0.584612 145.743 -6.17656L192.323 -63.9034C196.447 -69.0152 202.452 -72.2567 208.989 -72.9003L276.755 -79.5728C284.802 -80.3651 292.721 -77.1364 297.92 -70.944L334.416 -27.4739C339.615 -21.2816 341.423 -12.9229 339.25 -5.1351L320.947 60.4531C319.181 66.7798 314.949 72.1326 309.2 75.3101L244.281 111.193C237.993 114.669 230.495 115.209 223.773 112.67L167.37 91.3682Z" stroke="url(#paint43_linear_2079_744)"/>
<path opacity="0.811594" d="M165.185 90.436C157.125 87.8309 150.983 81.2476 148.942 73.0271L134.598 15.2536C132.862 8.2621 134.291 0.860908 138.505 -4.98175L180.895 -63.7546C184.768 -69.1232 190.647 -72.6966 197.196 -73.6612L263.274 -83.3946C271.237 -84.5675 279.267 -81.7547 284.758 -75.8699L323.126 -34.7477C328.616 -28.8629 330.867 -20.6566 329.145 -12.7943L314.861 52.4516C313.446 58.9178 309.474 64.536 303.85 68.0272L242.284 106.247C236.164 110.047 228.681 110.96 221.827 108.744L165.185 90.436Z" stroke="url(#paint44_linear_2079_744)"/>
<path opacity="0.826087" d="M163.049 89.158C154.939 86.9639 148.519 80.7677 146.039 72.741L128.691 16.5943C126.559 9.69378 127.58 2.20406 131.482 -3.87378L169.703 -63.4123C173.307 -69.0267 179.045 -72.9284 185.592 -74.2161L249.849 -86.8562C257.709 -88.4024 265.828 -86.0084 271.592 -80.4453L311.69 -41.7443C317.454 -36.1812 320.134 -28.1518 318.867 -20.2419L308.512 44.423C307.457 51.0108 303.761 56.8835 298.278 60.6844L240.131 100.991C234.195 105.106 226.747 106.392 219.775 104.506L163.049 89.158Z" stroke="url(#paint45_linear_2079_744)"/>
<path opacity="0.84058" d="M160.939 87.5359C152.802 85.7511 146.129 79.9537 143.225 72.1455L123.003 17.7771C120.479 10.9901 121.086 3.43414 124.662 -2.86252L158.753 -62.8914C162.075 -68.7399 167.655 -72.9657 174.184 -74.5781L236.5 -89.9653C244.239 -91.8763 252.424 -89.9027 258.441 -84.6744L300.125 -48.4595C306.142 -43.2313 309.24 -35.4023 308.429 -27.4721L301.898 36.3818C301.214 43.0727 297.809 49.1881 292.482 53.294L237.804 95.4372C232.069 99.8577 224.672 101.515 217.599 99.9634L160.939 87.5359Z" stroke="url(#paint46_linear_2079_744)"/>
<path opacity="0.855072" d="M158.834 85.5728C150.691 84.1944 143.79 78.806 140.479 71.2399L117.523 18.7919C114.612 12.1409 114.801 4.54136 118.039 -1.95696L148.056 -62.2071C151.08 -68.2771 156.485 -72.8221 162.984 -74.76L223.247 -92.7305C230.848 -94.997 239.076 -93.4439 245.327 -88.5625L288.449 -54.8902C294.701 -50.0088 298.202 -42.4032 297.846 -34.4797L295.022 28.3426C294.718 35.1174 291.619 41.4629 286.463 45.8685L235.288 89.5976C229.768 94.314 222.441 96.3396 215.283 95.1279L158.834 85.5728Z" stroke="url(#paint47_linear_2079_744)"/>
<path opacity="0.869565" d="M156.715 83.2732C148.588 82.297 141.485 77.3263 137.784 70.0248L112.239 19.6296C108.948 13.1368 108.715 5.5167 111.602 -1.16542L137.619 -61.3749C140.332 -67.6531 145.545 -72.5115 151.999 -74.7755L210.112 -95.1614C217.558 -97.7732 225.805 -96.6394 232.27 -92.1156L276.684 -61.0343C283.148 -56.5104 287.038 -49.1502 287.135 -41.2606L287.887 20.3198C287.97 27.1586 285.192 33.721 280.222 38.4202L232.567 83.4865C227.278 88.488 220.039 90.8787 212.811 90.0107L156.715 83.2732Z" stroke="url(#paint48_linear_2079_744)"/>
<path opacity="0.884058" d="M154.559 80.6425C146.469 80.0633 139.189 75.5173 135.118 68.5017L107.137 20.2815C103.474 13.9689 102.816 6.35168 105.342 -0.495669L127.448 -60.4107C129.836 -66.883 134.842 -72.0486 141.236 -74.6384L197.112 -97.2689C204.386 -100.215 212.631 -99.4982 219.287 -95.3414L264.844 -66.8909C271.501 -62.7341 275.763 -55.6403 276.308 -47.8116L280.494 12.3278C280.973 19.2099 278.529 25.9751 273.761 30.9612L229.625 77.1186C224.581 82.3936 217.448 85.1452 210.168 84.624L154.559 80.6425Z" stroke="url(#paint49_linear_2079_744)"/>
<path opacity="0.898551" d="M152.349 77.6876C144.316 77.4988 136.886 73.383 132.466 66.6732L102.204 20.7401C98.1782 14.6292 97.0946 7.03849 99.25 0.0451908L117.55 -59.331C119.6 -65.9826 124.383 -71.4482 130.703 -74.3631L184.267 -99.0652C191.353 -102.333 199.573 -102.03 206.399 -98.2485L252.951 -72.4605C259.778 -68.679 264.394 -61.8716 265.382 -54.1307L272.849 4.38011C273.731 11.2844 271.633 18.2376 267.082 23.5033L226.451 70.5091C221.665 76.0454 214.655 79.1527 207.34 78.9806L152.349 77.6876Z" stroke="url(#paint50_linear_2079_744)"/>
<path opacity="0.913043" d="M150.064 74.4167C142.109 74.6105 134.556 70.9289 129.807 64.5434L97.4272 20.9988C93.0488 15.1108 91.5399 7.57051 93.3153 0.451122L107.93 -58.152C109.629 -64.9672 114.172 -70.7251 120.405 -73.9638L171.593 -100.563C178.477 -104.14 186.649 -104.245 193.624 -100.846L241.022 -77.7442C247.996 -74.3449 252.948 -67.843 254.372 -60.2162L264.956 -3.5092C266.245 3.39543 264.509 10.5211 260.188 16.0585L223.031 63.6744C218.517 69.459 211.648 72.916 204.312 73.0947L150.064 74.4167Z" stroke="url(#paint51_linear_2079_744)"/>
<path opacity="0.927536" d="M147.687 70.8382C139.829 71.4061 132.178 68.1607 127.125 62.1167L92.7919 21.0514C88.0729 15.4072 86.1402 7.94109 87.5278 0.716066L98.5908 -56.8907C99.9279 -63.8532 104.215 -69.8951 110.346 -73.4558L159.106 -101.776C165.775 -105.65 173.878 -106.157 180.978 -103.146L229.075 -82.7449C236.174 -79.7335 241.442 -73.5549 243.292 -66.0681L256.821 -11.3273C258.522 -4.44475 257.158 2.83722 253.082 8.63777L219.353 56.631C215.123 62.6503 208.412 66.45 201.074 66.9803L147.687 70.8382Z" stroke="url(#paint52_linear_2079_744)"/>
<path opacity="0.942029" d="M145.199 66.9627C137.458 67.8946 129.735 65.0862 124.401 59.3991L88.2845 20.8933C83.238 15.5129 80.8843 8.14503 81.877 0.835395L89.5366 -55.5638C90.4999 -62.6565 94.5167 -68.9732 100.531 -72.8537L146.822 -102.72C153.262 -106.875 161.276 -107.777 168.478 -105.158L217.126 -87.4661C224.329 -84.8468 229.891 -79.008 232.157 -71.6868L248.449 -19.0612C250.565 -12.2236 249.586 -4.80218 245.768 1.25235L215.409 49.3964C211.474 55.6361 204.937 59.7708 197.613 60.6526L145.199 66.9627Z" stroke="url(#paint53_linear_2079_744)"/>
<path opacity="0.956522" d="M142.584 62.8011C134.977 64.0864 127.209 61.7138 121.619 56.3977L83.8908 20.5203C78.5309 15.4233 75.7605 8.17767 76.3526 0.80491L80.7691 -54.1881C81.3477 -61.3932 85.0785 -67.9751 90.9632 -72.1726L134.756 -103.41C140.955 -107.832 148.858 -109.12 156.14 -106.895L205.194 -91.9125C212.476 -89.6882 218.31 -84.2044 220.981 -77.0735L239.846 -26.6982C242.381 -19.929 241.798 -12.3858 238.252 -6.08695L211.187 41.9885C207.559 48.4338 201.213 52.895 193.92 54.1272L142.584 62.8011Z" stroke="url(#paint54_linear_2079_744)"/>
<path opacity="0.971014" d="M139.826 58.3654C132.371 59.9921 124.584 58.0528 118.763 53.1198L79.597 19.9291C73.9391 15.1344 70.7575 8.03483 70.9443 0.620873L72.2897 -52.7808C72.4736 -60.08 75.9035 -66.9167 81.6446 -71.428L122.921 -103.862C128.868 -108.535 136.64 -110.199 143.979 -108.372L193.295 -96.09C200.634 -94.2622 206.717 -89.1472 209.778 -82.2308L231.022 -34.2266C233.977 -27.5497 233.799 -19.9029 230.538 -13.3701L206.681 34.4253C203.369 41.0609 197.23 45.839 189.984 47.4202L139.826 58.3654Z" stroke="url(#paint55_linear_2079_744)"/>
<path opacity="0.985507" d="M136.91 53.6684C129.623 55.6239 121.843 54.1136 115.817 49.5743L75.3882 19.1175C69.4489 14.6431 65.8631 7.71341 65.641 0.280595L64.0981 -51.3588C63.8778 -58.7328 66.992 -65.8135 72.5759 -70.6347L111.328 -104.094C117.013 -109.002 124.635 -111.032 132.008 -109.601L181.444 -100.005C188.817 -98.5738 195.126 -93.84 198.561 -87.1615L221.982 -41.6347C225.357 -35.0746 225.596 -27.343 222.633 -20.5869L201.884 26.7255C198.897 33.5355 192.979 38.6205 185.797 40.548L136.91 53.6684Z" stroke="url(#paint56_linear_2079_744)"/>
<path d="M133.821 48.7239C126.719 50.9944 118.97 49.9074 112.766 45.7707L71.2503 18.084C65.0472 13.9472 61.0655 7.21088 60.4321 -0.21813L56.1936 -49.9391C55.5603 -57.3681 58.3444 -64.6812 63.7578 -69.8083L99.9885 -104.123C105.402 -109.25 112.855 -111.633 120.239 -110.597L169.657 -103.665C177.04 -102.63 183.55 -98.288 187.344 -91.8695L212.736 -48.9115C216.53 -42.4929 217.195 -34.6961 214.542 -27.728L196.788 18.9081C194.135 25.8762 188.454 31.2571 181.352 33.5276L133.821 48.7239Z" stroke="url(#paint57_linear_2079_744)"/>
</g>
<defs>
<radialGradient id="paint0_radial_2079_744" cx="0" cy="0" r="1" gradientUnits="userSpaceOnUse" gradientTransform="translate(424 158) rotate(-159.563) scale(452.482 594.543)">
<stop stop-color="#9158DB" stop-opacity="0.1"/>
<stop offset="1" stop-color="white" stop-opacity="0"/>
</radialGradient>
<linearGradient id="paint1_linear_2079_744" x1="541.779" y1="-35.0076" x2="569.48" y2="359.607" gradientUnits="userSpaceOnUse">
<stop offset="0.0001" stop-color="white" stop-opacity="0"/>
<stop offset="1" stop-color="#9158DB"/>
</linearGradient>
<linearGradient id="paint2_linear_2079_744" x1="524.56" y1="-35.5149" x2="572.398" y2="353.233" gradientUnits="userSpaceOnUse">
<stop offset="0.0001" stop-color="white" stop-opacity="0"/>
<stop offset="1" stop-color="#9158DB"/>
</linearGradient>
<linearGradient id="paint3_linear_2079_744" x1="507.6" y1="-35.5328" x2="575.039" y2="346.333" gradientUnits="userSpaceOnUse">
<stop offset="0.0001" stop-color="white" stop-opacity="0"/>
<stop offset="1" stop-color="#9158DB"/>
</linearGradient>
<linearGradient id="paint4_linear_2079_744" x1="490.923" y1="-35.0804" x2="577.376" y2="338.928" gradientUnits="userSpaceOnUse">
<stop offset="0.0001" stop-color="white" stop-opacity="0"/>
<stop offset="1" stop-color="#9158DB"/>
</linearGradient>
<linearGradient id="paint5_linear_2079_744" x1="474.553" y1="-34.1784" x2="579.383" y2="331.039" gradientUnits="userSpaceOnUse">
<stop offset="0.0001" stop-color="white" stop-opacity="0"/>
<stop offset="1" stop-color="#9158DB"/>
</linearGradient>
<linearGradient id="paint6_linear_2079_744" x1="458.509" y1="-32.8482" x2="581.038" y2="322.691" gradientUnits="userSpaceOnUse">
<stop offset="0.0001" stop-color="white" stop-opacity="0"/>
<stop offset="1" stop-color="#9158DB"/>
</linearGradient>
<linearGradient id="paint7_linear_2079_744" x1="442.814" y1="-31.1127" x2="582.318" y2="313.906" gradientUnits="userSpaceOnUse">
<stop offset="0.0001" stop-color="white" stop-opacity="0"/>
<stop offset="1" stop-color="#9158DB"/>
</linearGradient>
<linearGradient id="paint8_linear_2079_744" x1="427.486" y1="-28.9952" x2="583.205" y2="304.711" gradientUnits="userSpaceOnUse">
<stop offset="0.0001" stop-color="white" stop-opacity="0"/>
<stop offset="1" stop-color="#9158DB"/>
</linearGradient>
<linearGradient id="paint9_linear_2079_744" x1="412.542" y1="-26.5202" x2="583.678" y2="295.131" gradientUnits="userSpaceOnUse">
<stop offset="0.0001" stop-color="white" stop-opacity="0"/>
<stop offset="1" stop-color="#9158DB"/>
</linearGradient>
<linearGradient id="paint10_linear_2079_744" x1="397.998" y1="-23.7128" x2="583.721" y2="285.194" gradientUnits="userSpaceOnUse">
<stop offset="0.0001" stop-color="white" stop-opacity="0"/>
<stop offset="1" stop-color="#9158DB"/>
</linearGradient>
<linearGradient id="paint11_linear_2079_744" x1="383.869" y1="-20.5989" x2="583.32" y2="274.928" gradientUnits="userSpaceOnUse">
<stop offset="0.0001" stop-color="white" stop-opacity="0"/>
<stop offset="1" stop-color="#9158DB"/>
</linearGradient>
<linearGradient id="paint12_linear_2079_744" x1="370.166" y1="-17.205" x2="582.459" y2="264.361" gradientUnits="userSpaceOnUse">
<stop offset="0.0001" stop-color="white" stop-opacity="0"/>
<stop offset="1" stop-color="#9158DB"/>
</linearGradient>
<linearGradient id="paint13_linear_2079_744" x1="356.9" y1="-13.5575" x2="581.128" y2="253.521" gradientUnits="userSpaceOnUse">
<stop offset="0.0001" stop-color="white" stop-opacity="0"/>
<stop offset="1" stop-color="#9158DB"/>
</linearGradient>
<linearGradient id="paint14_linear_2079_744" x1="344.082" y1="-9.68415" x2="579.316" y2="242.438" gradientUnits="userSpaceOnUse">
<stop offset="0.0001" stop-color="white" stop-opacity="0"/>
<stop offset="1" stop-color="#9158DB"/>
</linearGradient>
<linearGradient id="paint15_linear_2079_744" x1="331.718" y1="-5.61181" x2="577.015" y2="231.141" gradientUnits="userSpaceOnUse">
<stop offset="0.0001" stop-color="white" stop-opacity="0"/>
<stop offset="1" stop-color="#9158DB"/>
</linearGradient>
<linearGradient id="paint16_linear_2079_744" x1="319.816" y1="-1.36875" x2="574.219" y2="219.661" gradientUnits="userSpaceOnUse">
<stop offset="0.0001" stop-color="white" stop-opacity="0"/>
<stop offset="1" stop-color="#9158DB"/>
</linearGradient>
<linearGradient id="paint17_linear_2079_744" x1="308.378" y1="3.01755" x2="570.923" y2="208.026" gradientUnits="userSpaceOnUse">
<stop offset="0.0001" stop-color="white" stop-opacity="0"/>
<stop offset="1" stop-color="#9158DB"/>
</linearGradient>
<linearGradient id="paint18_linear_2079_744" x1="297.409" y1="7.51945" x2="567.124" y2="196.268" gradientUnits="userSpaceOnUse">
<stop offset="0.0001" stop-color="white" stop-opacity="0"/>
<stop offset="1" stop-color="#9158DB"/>
</linearGradient>
<linearGradient id="paint19_linear_2079_744" x1="286.908" y1="12.1094" x2="562.82" y2="184.415" gradientUnits="userSpaceOnUse">
<stop offset="0.0001" stop-color="white" stop-opacity="0"/>
<stop offset="1" stop-color="#9158DB"/>
</linearGradient>
<linearGradient id="paint20_linear_2079_744" x1="276.877" y1="16.7597" x2="558.012" y2="172.497" gradientUnits="userSpaceOnUse">
<stop offset="0.0001" stop-color="white" stop-opacity="0"/>
<stop offset="1" stop-color="#9158DB"/>
</linearGradient>
<linearGradient id="paint21_linear_2079_744" x1="267.312" y1="21.4434" x2="552.702" y2="160.543" gradientUnits="userSpaceOnUse">
<stop offset="0.0001" stop-color="white" stop-opacity="0"/>
<stop offset="1" stop-color="#9158DB"/>
</linearGradient>
<linearGradient id="paint22_linear_2079_744" x1="258.212" y1="26.1342" x2="546.895" y2="148.582" gradientUnits="userSpaceOnUse">
<stop offset="0.0001" stop-color="white" stop-opacity="0"/>
<stop offset="1" stop-color="#9158DB"/>
</linearGradient>
<linearGradient id="paint23_linear_2079_744" x1="249.568" y1="30.8049" x2="540.595" y2="136.641" gradientUnits="userSpaceOnUse">
<stop offset="0.0001" stop-color="white" stop-opacity="0"/>
<stop offset="1" stop-color="#9158DB"/>
</linearGradient>
<linearGradient id="paint24_linear_2079_744" x1="241.377" y1="35.4305" x2="533.809" y2="124.75" gradientUnits="userSpaceOnUse">
<stop offset="0.0001" stop-color="white" stop-opacity="0"/>
<stop offset="1" stop-color="#9158DB"/>
</linearGradient>
<linearGradient id="paint25_linear_2079_744" x1="233.629" y1="39.9855" x2="526.546" y2="112.934" gradientUnits="userSpaceOnUse">
<stop offset="0.0001" stop-color="white" stop-opacity="0"/>
<stop offset="1" stop-color="#9158DB"/>
</linearGradient>
<linearGradient id="paint26_linear_2079_744" x1="226.317" y1="44.446" x2="518.816" y2="101.221" gradientUnits="userSpaceOnUse">
<stop offset="0.0001" stop-color="white" stop-opacity="0"/>
<stop offset="1" stop-color="#9158DB"/>
</linearGradient>
<linearGradient id="paint27_linear_2079_744" x1="219.428" y1="48.7878" x2="510.63" y2="89.634" gradientUnits="userSpaceOnUse">
<stop offset="0.0001" stop-color="white" stop-opacity="0"/>
<stop offset="1" stop-color="#9158DB"/>
</linearGradient>
<linearGradient id="paint28_linear_2079_744" x1="212.951" y1="52.9887" x2="502.002" y2="78.1992" gradientUnits="userSpaceOnUse">
<stop offset="0.0001" stop-color="white" stop-opacity="0"/>
<stop offset="1" stop-color="#9158DB"/>
</linearGradient>
<linearGradient id="paint29_linear_2079_744" x1="206.873" y1="57.0265" x2="492.944" y2="66.9395" gradientUnits="userSpaceOnUse">
<stop offset="0.0001" stop-color="white" stop-opacity="0"/>
<stop offset="1" stop-color="#9158DB"/>
</linearGradient>
<linearGradient id="paint30_linear_2079_744" x1="201.179" y1="60.8806" x2="483.473" y2="55.8774" gradientUnits="userSpaceOnUse">
<stop offset="0.0001" stop-color="white" stop-opacity="0"/>
<stop offset="1" stop-color="#9158DB"/>
</linearGradient>
<linearGradient id="paint31_linear_2079_744" x1="195.855" y1="64.5311" x2="473.605" y2="45.0341" gradientUnits="userSpaceOnUse">
<stop offset="0.0001" stop-color="white" stop-opacity="0"/>
<stop offset="1" stop-color="#9158DB"/>
</linearGradient>
<linearGradient id="paint32_linear_2079_744" x1="190.885" y1="67.9594" x2="463.357" y2="34.4298" gradientUnits="userSpaceOnUse">
<stop offset="0.0001" stop-color="white" stop-opacity="0"/>
<stop offset="1" stop-color="#9158DB"/>
</linearGradient>
<linearGradient id="paint33_linear_2079_744" x1="186.25" y1="71.148" x2="452.748" y2="24.0833" gradientUnits="userSpaceOnUse">
<stop offset="0.0001" stop-color="white" stop-opacity="0"/>
<stop offset="1" stop-color="#9158DB"/>
</linearGradient>
<linearGradient id="paint34_linear_2079_744" x1="181.932" y1="74.0803" x2="441.798" y2="14.0121" gradientUnits="userSpaceOnUse">
<stop offset="0.0001" stop-color="white" stop-opacity="0"/>
<stop offset="1" stop-color="#9158DB"/>
</linearGradient>
<linearGradient id="paint35_linear_2079_744" x1="177.914" y1="76.7412" x2="430.526" y2="4.23242" gradientUnits="userSpaceOnUse">
<stop offset="0.0001" stop-color="white" stop-opacity="0"/>
<stop offset="1" stop-color="#9158DB"/>
</linearGradient>
<linearGradient id="paint36_linear_2079_744" x1="174.175" y1="79.1172" x2="418.954" y2="-5.24053" gradientUnits="userSpaceOnUse">
<stop offset="0.0001" stop-color="white" stop-opacity="0"/>
<stop offset="1" stop-color="#9158DB"/>
</linearGradient>
<linearGradient id="paint37_linear_2079_744" x1="170.695" y1="81.1953" x2="407.103" y2="-14.3937" gradientUnits="userSpaceOnUse">
<stop offset="0.0001" stop-color="white" stop-opacity="0"/>
<stop offset="1" stop-color="#9158DB"/>
</linearGradient>
<linearGradient id="paint38_linear_2079_744" x1="167.454" y1="82.9646" x2="394.997" y2="-23.2148" gradientUnits="userSpaceOnUse">
<stop offset="0.0001" stop-color="white" stop-opacity="0"/>
<stop offset="1" stop-color="#9158DB"/>
</linearGradient>
<linearGradient id="paint39_linear_2079_744" x1="164.43" y1="84.4154" x2="382.656" y2="-31.6929" gradientUnits="userSpaceOnUse">
<stop offset="0.0001" stop-color="white" stop-opacity="0"/>
<stop offset="1" stop-color="#9158DB"/>
</linearGradient>
<linearGradient id="paint40_linear_2079_744" x1="161.601" y1="85.5385" x2="370.105" y2="-39.8195" gradientUnits="userSpaceOnUse">
<stop offset="0.0001" stop-color="white" stop-opacity="0"/>
<stop offset="1" stop-color="#9158DB"/>
</linearGradient>
<linearGradient id="paint41_linear_2079_744" x1="158.947" y1="86.3277" x2="357.367" y2="-47.5863" gradientUnits="userSpaceOnUse">
<stop offset="0.0001" stop-color="white" stop-opacity="0"/>
<stop offset="1" stop-color="#9158DB"/>
</linearGradient>
<linearGradient id="paint42_linear_2079_744" x1="156.444" y1="86.7762" x2="344.466" y2="-54.9878" gradientUnits="userSpaceOnUse">
<stop offset="0.0001" stop-color="white" stop-opacity="0"/>
<stop offset="1" stop-color="#9158DB"/>
</linearGradient>
<linearGradient id="paint43_linear_2079_744" x1="154.071" y1="86.8804" x2="331.426" y2="-62.0187" gradientUnits="userSpaceOnUse">
<stop offset="0.0001" stop-color="white" stop-opacity="0"/>
<stop offset="1" stop-color="#9158DB"/>
</linearGradient>
<linearGradient id="paint44_linear_2079_744" x1="151.806" y1="86.637" x2="318.269" y2="-68.6761" gradientUnits="userSpaceOnUse">
<stop offset="0.0001" stop-color="white" stop-opacity="0"/>
<stop offset="1" stop-color="#9158DB"/>
</linearGradient>
<linearGradient id="paint45_linear_2079_744" x1="149.626" y1="86.0445" x2="305.021" y2="-74.9579" gradientUnits="userSpaceOnUse">
<stop offset="0.0001" stop-color="white" stop-opacity="0"/>
<stop offset="1" stop-color="#9158DB"/>
</linearGradient>
<linearGradient id="paint46_linear_2079_744" x1="147.51" y1="85.1024" x2="291.705" y2="-80.8641" gradientUnits="userSpaceOnUse">
<stop offset="0.0001" stop-color="white" stop-opacity="0"/>
<stop offset="1" stop-color="#9158DB"/>
</linearGradient>
<linearGradient id="paint47_linear_2079_744" x1="145.436" y1="83.8119" x2="278.343" y2="-86.3958" gradientUnits="userSpaceOnUse">
<stop offset="0.0001" stop-color="white" stop-opacity="0"/>
<stop offset="1" stop-color="#9158DB"/>
</linearGradient>
<linearGradient id="paint48_linear_2079_744" x1="143.382" y1="82.1754" x2="264.96" y2="-91.5555" gradientUnits="userSpaceOnUse">
<stop offset="0.0001" stop-color="white" stop-opacity="0"/>
<stop offset="1" stop-color="#9158DB"/>
</linearGradient>
<linearGradient id="paint49_linear_2079_744" x1="141.327" y1="80.1964" x2="251.577" y2="-96.347" gradientUnits="userSpaceOnUse">
<stop offset="0.0001" stop-color="white" stop-opacity="0"/>
<stop offset="1" stop-color="#9158DB"/>
</linearGradient>
<linearGradient id="paint50_linear_2079_744" x1="139.25" y1="77.8798" x2="238.218" y2="-100.776" gradientUnits="userSpaceOnUse">
<stop offset="0.0001" stop-color="white" stop-opacity="0"/>
<stop offset="1" stop-color="#9158DB"/>
</linearGradient>
<linearGradient id="paint51_linear_2079_744" x1="137.132" y1="75.2319" x2="224.903" y2="-104.848" gradientUnits="userSpaceOnUse">
<stop offset="0.0001" stop-color="white" stop-opacity="0"/>
<stop offset="1" stop-color="#9158DB"/>
</linearGradient>
<linearGradient id="paint52_linear_2079_744" x1="134.953" y1="72.2597" x2="211.654" y2="-108.572" gradientUnits="userSpaceOnUse">
<stop offset="0.0001" stop-color="white" stop-opacity="0"/>
<stop offset="1" stop-color="#9158DB"/>
</linearGradient>
<linearGradient id="paint53_linear_2079_744" x1="132.694" y1="68.9717" x2="198.491" y2="-111.956" gradientUnits="userSpaceOnUse">
<stop offset="0.0001" stop-color="white" stop-opacity="0"/>
<stop offset="1" stop-color="#9158DB"/>
</linearGradient>
<linearGradient id="paint54_linear_2079_744" x1="130.337" y1="65.3776" x2="185.434" y2="-115.011" gradientUnits="userSpaceOnUse">
<stop offset="0.0001" stop-color="white" stop-opacity="0"/>
<stop offset="1" stop-color="#9158DB"/>
</linearGradient>
<linearGradient id="paint55_linear_2079_744" x1="127.864" y1="61.4875" x2="172.501" y2="-117.749" gradientUnits="userSpaceOnUse">
<stop offset="0.0001" stop-color="white" stop-opacity="0"/>
<stop offset="1" stop-color="#9158DB"/>
</linearGradient>
<linearGradient id="paint56_linear_2079_744" x1="125.259" y1="57.313" x2="159.71" y2="-120.18" gradientUnits="userSpaceOnUse">
<stop offset="0.0001" stop-color="white" stop-opacity="0"/>
<stop offset="1" stop-color="#9158DB"/>
</linearGradient>
<linearGradient id="paint57_linear_2079_744" x1="122.505" y1="52.8664" x2="147.078" y2="-122.319" gradientUnits="userSpaceOnUse">
<stop offset="0.0001" stop-color="white" stop-opacity="0"/>
<stop offset="1" stop-color="#9158DB"/>
</linearGradient>
<clipPath id="clip0_2079_744">
<rect width="422" height="156" fill="white" transform="translate(1 1)"/>
</clipPath>
</defs>
</svg>
