<svg width="424" height="340" viewBox="0 0 424 340" fill="none" xmlns="http://www.w3.org/2000/svg">
<g clip-path="url(#clip0_2079_739)">
<rect width="424" height="340" rx="10" fill="url(#paint0_radial_2079_739)"/>
<rect width="424" height="340" rx="10" fill="#9158DB"/>
<rect width="424" height="340" rx="10" fill="url(#paint1_radial_2079_739)"/>
<path opacity="0.0144928" d="M-160.827 -63.8008C-168.189 -71.8647 -179.998 -74.0837 -189.785 -69.2419L-329.451 -0.145219C-335.239 2.71809 -339.662 7.75051 -341.759 13.8577L-417.838 235.421C-419.487 240.224 -419.603 245.42 -418.17 250.292L-361.249 443.772C-358.651 452.605 -351.319 459.236 -342.27 460.936L-211.187 485.566C-202.137 487.267 -192.899 483.75 -187.271 476.462L-64.0035 316.839C-60.8997 312.82 -59.1215 307.935 -58.9148 302.861L-49.3816 68.7948C-49.1189 62.3429 -51.4138 56.0482 -55.7674 51.2794L-160.827 -63.8008Z" stroke="url(#paint2_linear_2079_739)"/>
<path opacity="0.0289855" d="M-136.319 -53.8075C-143.243 -62.2121 -154.884 -65.0373 -164.891 -60.7419L-306.982 0.250045C-312.925 2.80081 -317.618 7.59751 -320.038 13.5943L-406.869 228.741C-408.775 233.464 -409.162 238.664 -407.975 243.618L-361.421 437.965C-359.279 446.908 -352.31 453.898 -343.373 456.067L-214.593 487.321C-205.657 489.49 -196.259 486.472 -190.256 479.506L-59.7933 328.12C-56.4682 324.261 -54.4283 319.463 -53.9574 314.391L-32.5068 83.3768C-31.9089 76.9378 -33.881 70.5235 -37.9931 65.5326L-136.319 -53.8075Z" stroke="url(#paint3_linear_2079_739)"/>
<path opacity="0.0434783" d="M-112.288 -43.1415C-118.76 -51.8628 -130.202 -55.2827 -140.398 -51.5436L-284.452 1.28172C-290.532 3.51145 -295.483 8.05802 -298.22 13.9273L-395.342 222.145C-397.501 226.775 -398.159 231.965 -397.224 236.987L-360.971 431.653C-359.289 440.681 -352.7 448.011 -343.901 450.641L-217.755 488.347C-208.956 490.977 -199.425 488.465 -193.065 481.841L-55.9303 339.002C-52.392 335.316 -50.0944 330.617 -49.3589 325.561L-16.2833 98.1998C-15.3509 91.7909 -16.9941 85.2735 -20.8535 80.0727L-112.288 -43.1415Z" stroke="url(#paint4_linear_2079_739)"/>
<path opacity="0.057971" d="M-88.77 -31.8356C-94.7749 -40.8491 -105.986 -44.8501 -116.34 -41.6756L-261.895 2.94716C-268.096 4.8483 -273.291 9.1309 -276.339 14.856L-383.266 215.662C-385.674 220.186 -386.604 225.351 -385.923 230.43L-359.877 424.873C-358.66 433.963 -352.467 441.612 -343.829 444.695L-220.636 488.663C-211.999 491.746 -202.363 489.746 -195.665 483.481L-52.3918 349.469C-48.6491 345.968 -46.0984 341.382 -45.0987 336.356L-0.720352 113.225C0.544898 106.864 -0.764099 100.26 -4.36033 94.8623L-88.77 -31.8356Z" stroke="url(#paint5_linear_2079_739)"/>
<path opacity="0.0724638" d="M-65.7938 -19.9247C-71.3189 -29.2048 -82.2691 -33.7723 -92.751 -31.1689L-239.346 5.24141C-245.65 6.80729 -251.075 10.8128 -254.427 16.3773L-370.651 209.322C-373.303 213.726 -374.504 218.852 -374.081 223.976L-358.12 417.667C-357.368 426.794 -351.588 434.741 -343.135 438.266L-223.202 488.292C-214.749 491.818 -205.035 490.335 -198.02 484.447L-49.154 359.508C-45.2162 356.203 -42.4177 351.743 -41.1549 346.759L14.1755 128.415C15.7712 122.118 14.8008 115.445 11.4776 109.863L-65.7938 -19.9247Z" stroke="url(#paint6_linear_2079_739)"/>
<path opacity="0.0869565" d="M-43.3882 -7.44385C-48.4219 -16.9648 -59.0829 -22.0823 -69.66 -20.0547L-216.838 8.1585C-223.228 9.38337 -228.868 13.0994 -232.515 18.4873L-357.509 203.153C-360.4 207.424 -361.869 212.498 -361.708 217.653L-355.682 410.074C-355.396 419.215 -350.042 427.436 -341.797 431.394L-225.417 487.258C-217.172 491.215 -207.409 490.251 -200.097 484.757L-46.1921 369.105C-42.0692 366.006 -39.029 361.686 -37.5048 356.759L28.4001 143.73C30.3229 137.515 29.6947 130.79 26.6538 125.038L-43.3882 -7.44385Z" stroke="url(#paint7_linear_2079_739)"/>
<path opacity="0.101449" d="M-21.5773 5.57055C-26.1094 -4.16493 -36.4532 -9.81436 -47.0937 -8.36559L-194.402 11.6912C-200.859 12.5703 -206.699 15.9853 -210.632 21.1809L-343.851 197.183C-346.974 201.308 -348.71 206.316 -348.811 211.489L-352.546 402.136C-352.725 411.267 -347.81 419.74 -339.795 424.118L-227.249 485.586C-219.233 489.964 -209.448 489.52 -201.862 484.434L-43.4791 378.25C-39.1815 375.369 -35.9065 371.201 -34.1232 366.344L41.9536 159.134C44.1994 153.017 43.916 146.257 41.1659 140.35L-21.5773 5.57055Z" stroke="url(#paint8_linear_2079_739)"/>
<path opacity="0.115942" d="M-0.38719 19.0795C-4.40909 9.15626 -14.409 2.99423 -25.081 3.86297L-172.074 15.8288C-178.578 16.3583 -184.603 19.4613 -188.812 24.4496L-329.694 191.437C-333.041 195.405 -335.042 200.333 -335.407 205.511L-348.702 393.895C-349.344 402.992 -344.88 411.693 -337.115 416.478L-228.667 483.304C-220.903 488.088 -211.124 488.164 -203.287 483.501L-40.9916 386.932C-36.5306 384.278 -33.028 380.275 -30.989 375.502L54.8338 174.586C57.3975 168.584 57.4606 161.807 55.0092 155.759L-0.38719 19.0795Z" stroke="url(#paint9_linear_2079_739)"/>
<path opacity="0.130435" d="M20.1629 33.0444C16.6585 22.9606 7.02816 16.3067 -3.64331 16.596L-149.881 20.5604C-156.415 20.7375 -162.608 23.5186 -167.081 28.2849L-315.051 185.944C-318.615 189.741 -320.877 194.576 -321.507 199.746L-344.136 385.393C-345.238 394.433 -341.235 403.338 -333.743 408.514L-229.643 480.44C-222.151 485.617 -212.405 486.21 -204.34 481.982L-38.7016 395.144C-34.0889 392.726 -30.3668 388.9 -28.0756 384.223L67.0453 190.049C69.921 184.179 70.3316 177.403 68.1858 171.229L20.1629 33.0444Z" stroke="url(#paint10_linear_2079_739)"/>
<path opacity="0.144928" d="M40.0534 47.4251C37.0722 37.2081 27.8358 30.0844 17.1966 29.7966L-127.855 25.8727C-134.399 25.6957 -140.743 28.1456 -145.47 32.6759L-299.941 180.726C-303.714 184.342 -306.231 189.069 -307.126 194.218L-338.842 376.673C-340.4 385.631 -336.867 394.716 -329.667 400.269L-230.148 477.024C-222.948 482.577 -213.265 483.686 -204.996 479.904L-36.5835 402.878C-31.8312 400.704 -27.8984 397.068 -25.3595 392.501L78.592 205.486C81.7729 199.764 82.531 193.006 80.6971 186.721L40.0534 47.4251Z" stroke="url(#paint11_linear_2079_739)"/>
<path opacity="0.15942" d="M59.2679 62.1819C56.8144 51.8592 47.995 44.2888 37.4196 43.428L-106.025 31.7521C-112.561 31.2201 -119.038 33.3306 -124.005 37.6115L-284.381 175.809C-288.353 179.232 -291.123 183.839 -292.282 188.953L-332.814 367.777C-334.821 376.632 -331.767 385.87 -324.878 391.784L-230.159 473.087C-223.27 479.001 -213.675 480.62 -205.227 477.294L-34.6105 410.129C-29.7313 408.208 -25.5971 404.773 -22.8156 400.328L89.4809 220.861C92.9595 215.302 94.0641 208.58 92.5477 202.2L59.2679 62.1819Z" stroke="url(#paint12_linear_2079_739)"/>
<path opacity="0.173913" d="M77.7921 77.2731C75.869 66.8722 67.4884 58.8798 57.0081 57.4518L-84.4193 38.1821C-90.9278 37.2954 -97.5198 39.0592 -102.716 43.0778L-268.391 171.214C-272.554 174.433 -275.569 178.907 -276.991 183.973L-326.05 358.749C-328.5 367.477 -325.93 376.844 -319.37 383.1L-229.651 468.663C-223.091 474.919 -213.613 477.042 -205.011 474.181L-32.7564 416.893C-27.7634 415.233 -23.4377 412.009 -20.4194 407.699L99.7203 236.136C103.488 230.755 104.938 224.087 103.743 217.628L77.7921 77.2731Z" stroke="url(#paint13_linear_2079_739)"/>
<path opacity="0.188406" d="M95.6148 92.6566C94.2236 82.2053 86.3019 73.8163 75.9475 71.8287L-63.0655 45.1451C-69.527 43.9049 -76.2159 45.3156 -81.6261 49.0598L-251.992 166.963C-256.334 169.968 -259.589 174.295 -261.272 179.3L-318.548 349.63C-321.432 358.209 -319.353 367.679 -313.139 374.259L-228.604 463.783C-222.39 470.363 -213.054 472.982 -204.325 470.593L-30.9941 423.168C-25.9009 421.774 -21.3942 418.772 -18.1455 414.609L109.321 251.276C113.369 246.089 115.161 239.492 114.293 232.97L95.6148 92.6566Z" stroke="url(#paint14_linear_2079_739)"/>
<path opacity="0.202899" d="M112.727 108.292C111.867 97.8177 104.423 89.0584 94.2251 86.5206L-41.9893 52.6235C-48.3847 51.032 -55.1517 52.0842 -60.762 55.5426L-235.206 163.076C-239.717 165.857 -243.205 170.025 -245.146 174.956L-310.31 340.463C-313.62 348.871 -312.034 358.418 -306.182 365.304L-226.998 458.482C-221.146 465.368 -211.98 468.474 -203.148 466.563L-29.2973 428.952C-24.1177 427.831 -19.4412 425.062 -15.969 421.058L118.297 266.246C122.615 261.267 124.745 254.759 124.206 248.19L112.727 108.292Z" stroke="url(#paint15_linear_2079_739)"/>
<path opacity="0.217391" d="M129.121 124.136C128.792 113.666 121.843 104.564 111.83 101.487L-21.2154 60.5964C-27.5258 58.657 -34.3518 59.3463 -40.1471 62.5081L-218.054 159.572C-222.723 162.119 -226.436 166.117 -228.633 170.961L-301.34 331.289C-305.066 339.505 -303.975 349.104 -298.501 356.274L-224.816 452.796C-219.342 459.966 -210.37 463.549 -201.463 462.12L-27.6395 434.245C-22.388 433.403 -17.5531 430.875 -13.8652 427.043L126.661 281.013C131.238 276.256 133.703 269.853 133.495 263.255L129.121 124.136Z" stroke="url(#paint16_linear_2079_739)"/>
<path opacity="0.231884" d="M144.793 140.146C144.991 129.709 138.553 120.292 128.755 116.688L-0.767615 69.0429C-6.97404 66.7598 -13.8398 67.0827 -19.8045 69.9381L-200.561 156.468C-205.376 158.773 -209.307 162.587 -211.755 167.331L-291.646 322.149C-295.776 330.153 -295.182 339.777 -290.099 347.211L-222.044 446.758C-216.962 454.193 -208.21 458.24 -199.253 457.297L-25.9948 439.05C-20.6859 438.491 -15.7049 436.213 -11.8094 432.563L134.43 295.543C139.256 291.022 142.048 284.742 142.174 278.13L144.793 140.146Z" stroke="url(#paint17_linear_2079_739)"/>
<path opacity="0.246377" d="M159.741 156.283C160.462 145.904 154.55 136.201 144.995 132.084L19.3329 77.9411C13.2491 75.3199 6.36318 75.2739 0.244968 77.8137L-182.751 153.78C-187.7 155.834 -191.839 159.454 -194.534 164.085L-281.235 313.085C-285.757 320.856 -285.659 330.479 -280.98 338.156L-218.669 440.407C-213.99 448.084 -205.482 452.582 -196.503 452.125L-24.3366 443.37C-18.9853 443.097 -13.8707 441.078 -9.77638 437.622L141.622 309.806C146.684 305.533 149.8 299.392 150.259 292.783L159.741 156.283Z" stroke="url(#paint18_linear_2079_739)"/>
<path opacity="0.26087" d="M173.967 172.503C175.205 162.209 169.83 152.25 160.545 147.637L39.0651 87.2684C33.1224 84.3153 26.2359 83.8991 19.9808 86.115L-164.649 151.523C-169.719 153.319 -174.057 156.734 -176.994 161.24L-270.119 304.135C-275.019 311.654 -275.416 321.251 -271.153 329.149L-214.679 433.777C-210.416 441.675 -202.175 446.61 -193.2 446.64L-22.6396 447.208C-17.2609 447.226 -12.0259 445.474 -7.7421 442.221L148.258 323.771C153.543 319.758 156.974 313.773 157.767 307.185L173.967 172.503Z" stroke="url(#paint19_linear_2079_739)"/>
<path opacity="0.275362" d="M187.472 188.765C189.221 178.583 184.394 168.398 175.406 163.305L58.4105 97.0004C52.627 93.7227 45.7598 92.9359 39.3848 94.8206L-146.28 149.71C-151.458 151.241 -155.985 154.439 -159.158 158.808L-258.31 295.338C-263.574 302.588 -264.462 312.132 -260.625 320.228L-210.065 426.906C-206.228 435.002 -198.279 440.358 -189.334 440.873L-20.878 450.572C-15.4875 450.883 -10.1454 449.404 -5.68205 446.365L154.358 337.41C159.854 333.669 163.593 327.855 164.717 321.303L187.472 188.765Z" stroke="url(#paint20_linear_2079_739)"/>
<path opacity="0.289855" d="M200.263 205.03C202.512 194.984 198.243 184.604 189.576 179.049L77.3504 107.112C71.7438 103.518 64.9157 102.361 58.4382 103.908L-127.671 148.352C-132.944 149.611 -137.65 152.583 -141.052 156.803L-245.824 286.733C-251.437 293.694 -252.812 303.161 -249.41 311.431L-204.823 419.831C-201.421 428.101 -193.784 433.861 -184.897 434.858L-19.0283 453.468C-13.6414 454.073 -8.2061 452.873 -3.57362 450.058L159.946 350.693C165.637 347.235 169.675 341.609 171.131 335.11L200.263 205.03Z" stroke="url(#paint21_linear_2079_739)"/>
<path opacity="0.304348" d="M212.345 221.256C215.086 211.373 211.382 200.828 203.061 194.832L95.8692 117.578C90.4567 113.677 83.6875 112.152 77.1253 113.356L-108.849 147.46C-114.203 148.442 -119.076 151.178 -122.702 155.237L-232.678 278.354C-238.625 285.011 -240.48 294.375 -237.521 302.797L-198.948 412.588C-195.989 421.009 -188.684 427.155 -179.881 428.63L-17.0659 455.905C-11.6983 456.804 -6.18415 455.89 -1.39343 453.308L165.045 363.597C170.917 360.431 175.245 355.008 177.029 348.579L212.345 221.256Z" stroke="url(#paint22_linear_2079_739)"/>
<path opacity="0.318841" d="M223.73 237.406C226.952 227.709 223.817 217.031 215.866 210.614L113.952 128.372C108.751 124.175 102.06 122.285 95.4315 123.14L-89.8413 147.043C-95.2608 147.742 -100.291 150.233 -104.132 154.119L-218.892 270.238C-225.155 276.575 -227.484 285.812 -224.975 294.36L-192.436 405.214C-189.927 413.762 -182.975 420.275 -174.281 422.221L-14.9671 457.892C-9.63472 459.086 -4.0562 458.463 0.881449 456.122L169.68 376.096C175.72 373.232 180.327 368.026 182.435 361.683L223.73 237.406Z" stroke="url(#paint23_linear_2079_739)"/>
<path opacity="0.333333" d="M234.428 253.439C238.118 243.953 235.558 233.173 227.997 226.358L131.586 139.467C126.612 134.984 120.02 132.733 113.343 133.236L-70.6751 147.105C-76.1465 147.518 -81.3211 149.755 -85.3698 153.458L-204.487 262.417C-211.048 268.418 -213.843 277.504 -211.788 286.155L-185.29 397.744C-183.235 406.395 -176.655 413.254 -168.096 415.665L-12.71 459.439C-7.42857 460.927 -1.8006 460.599 3.27213 458.508L173.88 388.166C180.07 385.613 184.947 380.638 187.374 374.398L234.428 253.439Z" stroke="url(#paint24_linear_2079_739)"/>
<path opacity="0.347826" d="M244.454 269.321C248.599 260.067 246.616 249.216 239.465 242.027L148.761 150.837C144.03 146.08 137.555 143.472 130.848 143.62L-51.3775 147.654C-56.8862 147.776 -62.1929 149.752 -66.4405 153.261L-189.485 254.925C-196.326 260.577 -199.576 269.487 -197.98 278.217L-177.509 390.216C-175.913 398.945 -169.722 406.13 -161.323 408.997L-10.2716 460.56C-5.05712 462.34 0.605237 462.311 5.80084 460.476L177.671 399.788C183.997 397.554 189.13 392.824 191.873 386.701L244.454 269.321Z" stroke="url(#paint25_linear_2079_739)"/>
<path opacity="0.362319" d="M253.824 285.014C258.409 276.015 257.003 265.125 250.282 257.586L165.466 162.453C160.993 157.436 154.655 154.477 147.937 154.269L-31.9763 148.694C-37.5071 148.522 -42.9331 150.228 -47.3707 153.534L-173.91 247.791C-181.013 253.082 -184.707 261.794 -183.573 270.577L-169.098 382.665C-167.964 391.448 -162.177 398.936 -153.964 402.248L-7.63072 461.267C-2.49891 463.337 3.18239 463.609 8.48823 462.038L181.083 410.941C187.528 409.033 192.906 404.561 195.958 398.572L253.824 285.014Z" stroke="url(#paint26_linear_2079_739)"/>
<path opacity="0.376812" d="M262.554 300.483C267.564 291.76 266.734 280.862 260.46 272.999L181.692 174.288C177.492 169.024 171.31 165.721 164.6 165.155L-12.5005 150.225C-18.0383 149.759 -23.5703 151.188 -28.1883 154.28L-157.79 241.045C-165.134 245.962 -169.261 254.453 -168.589 263.266L-160.064 375.125C-159.392 383.938 -154.026 391.705 -146.022 395.452L-4.76814 461.575C0.265122 463.931 5.94991 464.506 11.353 463.205L184.145 421.609C190.692 420.032 196.302 415.831 199.656 409.992L262.554 300.483Z" stroke="url(#paint27_linear_2079_739)"/>
<path opacity="0.391304" d="M270.666 315.696C276.084 307.269 275.826 296.394 270.015 288.234L197.434 186.313C193.52 180.818 187.512 177.179 180.829 176.256L7.02325 152.251C1.49383 151.487 -4.13064 152.634 -8.91912 155.503L-141.15 234.715C-148.716 239.247 -153.262 247.496 -153.053 256.313L-150.413 367.632C-150.204 376.449 -145.272 384.473 -137.5 388.642L-1.66349 461.498C3.25557 464.136 8.9281 465.016 14.4151 463.991L186.888 431.775C193.52 430.536 199.348 426.616 202.997 420.941L270.666 315.696Z" stroke="url(#paint28_linear_2079_739)"/>
<path opacity="0.405797" d="M278.18 330.619C283.987 322.508 284.298 311.686 278.964 303.256L212.685 198.502C209.071 192.789 203.256 188.824 196.618 187.544L26.5665 154.768C21.0609 153.706 15.3579 154.566 10.4095 157.202L-124.021 228.825C-131.788 232.963 -136.739 240.949 -136.991 249.746L-140.157 360.218C-140.409 369.015 -135.924 377.271 -128.407 381.847L1.70099 461.052C6.49031 463.967 12.1347 465.152 17.6921 464.408L189.342 441.425C196.042 440.527 202.074 436.901 206.01 431.405L278.18 330.619Z" stroke="url(#paint29_linear_2079_739)"/>
<path opacity="0.42029" d="M285.119 345.223C291.298 337.446 292.17 326.707 287.326 318.035L227.445 210.825C224.142 204.911 218.538 200.629 211.964 198.995L46.1028 157.774C40.6365 156.416 34.8692 156.982 29.7717 159.378L-106.432 223.398C-114.379 227.134 -119.719 234.836 -120.429 243.589L-129.306 352.916C-130.016 361.668 -125.989 370.132 -118.748 375.1L5.34352 460.254C9.98775 463.441 15.5882 464.93 21.202 464.471L191.541 450.547C198.292 449.995 204.513 446.673 208.727 441.369L285.119 345.223Z" stroke="url(#paint30_linear_2079_739)"/>
<path opacity="0.434783" d="M291.508 359.479C298.039 352.053 299.465 341.427 295.122 332.542L241.71 223.255C238.73 217.157 233.353 212.569 226.863 210.584L65.6046 161.267C60.1934 159.612 54.3761 159.882 49.1409 162.029L-88.413 218.458C-96.5186 221.784 -102.232 229.184 -103.397 237.867L-117.872 345.759C-119.037 354.442 -115.477 363.087 -108.535 368.431L9.28026 459.122C13.7642 462.574 19.3048 464.367 24.9608 464.197L193.516 459.131C200.3 458.928 206.695 455.919 211.177 450.822L291.508 359.479Z" stroke="url(#paint31_linear_2079_739)"/>
<path opacity="0.449275" d="M297.372 373.36C304.235 366.3 306.204 355.817 302.372 346.747L255.479 235.764C252.832 229.499 247.701 224.617 241.312 222.285L85.0448 165.241C79.7041 163.291 73.8518 163.26 68.4905 165.152L-69.9981 214.024C-78.2408 216.932 -84.3095 224.012 -85.9236 232.603L-105.873 338.775C-107.487 347.366 -104.402 356.166 -97.7778 361.868L13.5259 457.675C17.8348 461.384 23.2995 463.479 28.9835 463.601L195.299 467.17C202.098 467.316 208.652 464.629 213.392 459.753L297.372 373.36Z" stroke="url(#paint32_linear_2079_739)"/>
<path opacity="0.463768" d="M302.738 386.839C309.912 380.16 312.414 369.848 309.1 360.624L268.755 248.323C266.451 241.91 261.579 236.746 255.312 234.072L104.397 169.687C99.1422 167.446 93.2696 167.11 87.7943 168.74L-51.22 210.111C-59.578 212.598 -65.9839 219.34 -68.0405 227.815L-93.3246 331.995C-95.3812 340.469 -92.7786 349.398 -86.4906 355.439L18.0943 455.931C22.2136 459.889 27.5865 462.283 33.2839 462.699L196.923 474.655C203.719 475.152 210.416 472.795 215.403 468.152L302.738 386.839Z" stroke="url(#paint33_linear_2079_739)"/>
<path opacity="0.478261" d="M307.636 399.894C315.099 393.61 318.122 383.497 315.332 374.148L281.54 260.908C279.587 254.364 274.992 248.933 268.863 245.922L123.636 174.6C118.483 172.069 112.606 171.428 107.029 172.789L-32.111 206.737C-40.5622 208.799 -47.2862 215.188 -49.7775 223.523L-80.2431 325.447C-82.7344 333.781 -80.6193 342.812 -74.686 349.174L23.0002 453.91C26.9156 458.108 32.1809 460.798 37.8771 461.51L198.422 481.585C205.198 482.432 212.02 480.413 217.244 476.014L307.636 399.894Z" stroke="url(#paint34_linear_2079_739)"/>
<path opacity="0.492754" d="M312.095 412.503C319.825 406.625 323.354 396.738 321.092 387.295L293.839 273.49C292.245 266.835 287.941 261.15 281.968 257.811L142.737 179.968C137.701 177.153 131.834 176.205 126.168 177.291L-12.7064 203.916C-21.2287 205.549 -28.2509 211.569 -31.1678 219.742L-66.6493 319.157C-69.5661 327.329 -67.9424 336.435 -62.3804 343.096L28.2541 451.633C31.9519 456.061 37.0938 459.043 42.774 460.052L199.829 487.955C206.566 489.152 213.497 487.477 218.944 483.335L312.095 412.503Z" stroke="url(#paint35_linear_2079_739)"/>
<path opacity="0.507246" d="M316.145 424.645C324.119 419.186 328.138 409.55 326.407 400.043L305.656 286.043C304.428 279.297 300.429 273.374 294.631 269.713L161.675 185.781C156.772 182.686 150.93 181.43 145.188 182.236L6.95882 201.657C-1.61244 202.861 -8.91221 208.499 -12.2443 216.487L-52.564 313.151C-55.8961 321.139 -54.7659 330.293 -49.5908 337.231L33.8669 449.12C37.3337 453.768 42.3366 457.036 47.9859 458.342L201.176 493.765C207.857 495.31 214.879 493.984 220.537 490.11L316.145 424.645Z" stroke="url(#paint36_linear_2079_739)"/>
<path opacity="0.521739" d="M319.818 436.304C328.012 431.272 332.505 421.912 331.306 412.371L317 298.542C316.144 291.724 312.463 285.579 306.856 281.606L180.426 192.026C175.671 188.656 169.87 187.093 164.065 187.615L26.8498 199.971C18.2517 200.745 10.6956 205.987 6.95982 213.77L-38.0091 307.453C-41.7449 315.235 -41.109 324.41 -36.3353 331.603L39.8481 446.393C43.071 451.249 47.9195 454.797 53.523 456.4L202.496 499.017C209.102 500.907 216.199 499.935 222.055 496.339L319.818 436.304Z" stroke="url(#paint37_linear_2079_739)"/>
<path opacity="0.536232" d="M323.145 447.463C331.536 442.867 336.485 433.807 335.816 424.263L327.88 310.962C327.399 304.092 324.049 297.742 318.65 293.467L198.969 198.69C194.376 195.053 188.632 193.182 182.777 193.417L46.9316 198.865C38.3287 199.21 30.5383 204.045 26.4114 211.602L-23.007 302.085C-27.134 309.641 -26.9917 318.809 -22.6322 326.233L46.2066 443.472C49.1732 448.525 53.8522 452.347 59.395 454.245L203.821 503.714C210.336 505.945 217.49 505.332 223.529 502.024L323.145 447.463Z" stroke="url(#paint38_linear_2079_739)"/>
<path opacity="0.550725" d="M326.16 458.109C334.725 453.956 340.109 445.219 339.968 435.701L338.304 323.279C338.202 316.378 335.194 309.84 330.02 305.273L217.281 205.759C212.865 201.861 207.193 199.685 201.302 199.628L67.1686 198.344C58.5828 198.261 50.5804 202.68 46.076 209.99L-7.58222 297.068C-12.0866 304.378 -12.4356 313.512 -8.50215 321.144L52.9491 440.381C55.6476 445.616 60.142 449.705 65.6092 451.897L205.184 507.861C211.59 510.429 218.782 510.177 224.992 507.166L326.16 458.109Z" stroke="url(#paint39_linear_2079_739)"/>
<path opacity="0.565217" d="M328.896 468.229C337.609 464.525 343.408 456.131 343.791 446.671L348.284 335.468C348.563 328.557 345.908 321.85 340.975 317.003L235.341 213.216C231.116 209.065 225.531 206.585 219.619 206.235L87.5245 198.409C78.9774 197.903 70.7859 201.895 65.9188 208.939L8.23941 292.42C3.37232 299.465 2.53578 308.539 6.03294 316.354L60.0808 437.139C62.4998 442.545 66.7951 446.892 72.1718 449.375L206.616 511.464C212.895 514.364 220.107 514.475 226.473 511.769L328.896 468.229Z" stroke="url(#paint40_linear_2079_739)"/>
<path opacity="0.57971" d="M331.385 477.814C340.223 474.563 346.416 466.533 347.315 457.159L357.832 347.509C358.493 340.608 356.201 333.751 351.523 328.635L253.129 221.044C249.109 216.65 243.627 213.869 237.707 213.223L107.965 199.063C99.4775 198.137 91.1203 201.695 85.9063 208.456L24.4326 288.161C19.2186 294.921 17.8998 303.908 20.9517 311.882L67.6069 433.771C69.7358 439.332 73.8176 443.928 79.0891 446.699L208.147 514.534C214.283 517.759 221.498 518.234 228.003 515.841L331.385 477.814Z" stroke="url(#paint41_linear_2079_739)"/>
<path opacity="0.594203" d="M333.662 486.856C342.601 484.061 349.164 476.414 350.572 467.155L366.96 359.378C368.005 352.509 366.084 345.52 361.676 340.15L270.625 229.226C266.826 224.597 261.462 221.52 255.547 220.576L128.453 200.304C120.047 198.963 111.548 202.081 106.004 208.54L40.9702 284.304C35.4259 290.764 33.6316 299.637 36.2309 307.743L75.53 430.297C77.3588 436 81.2132 440.836 86.3649 443.89L209.807 517.079C215.783 520.622 222.982 521.461 229.613 519.388L333.662 486.856Z" stroke="url(#paint42_linear_2079_739)"/>
<path opacity="0.608696" d="M335.761 495.35C344.776 493.013 351.687 485.767 353.594 476.651L375.685 371.056C377.111 364.24 375.57 357.14 371.446 351.529L287.815 237.743C284.247 232.889 279.017 229.52 273.122 228.278L148.957 202.128C140.653 200.379 132.035 203.052 126.178 209.194L57.826 280.866C51.9691 287.007 49.7075 295.742 51.8481 303.954L83.8536 426.741C85.373 432.57 88.9865 437.635 94.0039 440.968L211.626 519.112C217.426 522.965 224.592 524.169 231.332 522.421L335.761 495.35Z" stroke="url(#paint43_linear_2079_739)"/>
<path opacity="0.623188" d="M337.715 503.292C346.782 501.413 354.015 494.583 356.41 485.639L384.021 382.523C385.826 375.781 384.67 368.59 380.844 362.753L304.678 246.574C301.356 241.507 296.274 237.85 290.414 236.311L169.44 204.531C161.257 202.381 152.545 204.605 146.394 210.413L74.9703 277.857C68.8193 283.665 66.1 292.236 67.7774 300.528L92.5766 423.124C93.778 429.062 97.1375 434.346 102.006 437.952L213.632 520.647C219.24 524.802 226.353 526.367 233.187 524.951L337.715 503.292Z" stroke="url(#paint44_linear_2079_739)"/>
<path opacity="0.637681" d="M339.559 510.681C348.654 509.259 356.185 502.86 359.055 494.113L391.984 393.76C394.165 387.113 393.401 379.852 389.885 373.805L321.202 255.7C318.138 250.431 313.219 246.493 307.407 244.656L189.87 207.504C181.829 204.962 173.047 206.735 166.621 212.196L92.377 275.289C85.9511 280.75 82.7852 289.131 83.9964 297.477L101.701 419.468C102.576 425.5 105.669 430.989 110.375 434.864L215.853 521.699C221.254 526.145 228.297 528.071 235.208 526.99L339.559 510.681Z" stroke="url(#paint45_linear_2079_739)"/>
<path opacity="0.652174" d="M341.326 517.516C350.424 516.55 358.226 510.594 361.557 502.072L399.592 404.75C402.144 398.22 401.777 390.909 398.582 384.668L337.371 265.099C334.577 259.64 329.836 255.428 324.086 253.294L210.213 211.039C202.333 208.115 193.504 209.435 186.823 214.535L110.016 273.17C103.335 278.27 99.7352 286.439 100.479 294.811L111.223 415.795C111.766 421.904 114.58 427.587 119.109 431.722L218.314 522.285C223.493 527.012 230.448 529.294 237.42 528.553L341.326 517.516Z" stroke="url(#paint46_linear_2079_739)"/>
<path opacity="0.666667" d="M343.048 523.802C352.127 523.287 360.174 517.786 363.949 509.513L406.863 415.478C409.781 409.084 409.812 401.745 406.95 395.327L353.174 274.75C350.66 269.114 346.112 264.634 340.438 262.206L230.438 215.125C222.737 211.829 213.886 212.695 206.971 217.423L127.859 271.507C120.944 276.235 116.924 284.168 117.2 292.54L121.141 412.127C121.345 418.295 123.868 424.159 128.208 428.547L221.041 522.422C225.983 527.42 232.833 530.054 239.849 529.656L343.048 523.802Z" stroke="url(#paint47_linear_2079_739)"/>
<path opacity="0.681159" d="M344.759 529.541C353.795 529.472 362.059 524.436 366.262 516.436L413.815 425.926C417.091 419.69 417.525 412.345 415.005 405.767L368.598 284.629C366.376 278.829 362.034 274.09 356.451 271.369L250.514 219.747C243.01 216.091 234.16 216.506 227.032 220.85L145.878 270.306C138.75 274.65 134.324 282.324 134.134 290.67L131.452 408.484C131.311 414.694 133.533 420.725 137.669 425.358L224.058 522.131C228.749 527.386 235.476 530.368 242.52 530.314L344.759 529.541Z" stroke="url(#paint48_linear_2079_739)"/>
<path opacity="0.695652" d="M346.49 534.74C355.46 535.113 363.915 530.549 368.527 522.846L420.468 436.084C424.095 430.025 424.932 422.696 422.763 415.975L383.633 294.714C381.713 288.765 377.592 283.774 372.113 280.765L270.41 224.893C263.12 220.888 254.296 220.855 246.976 224.806L164.043 269.57C156.724 273.521 151.909 280.915 151.256 289.207L142.15 404.889C141.659 411.121 143.57 417.305 147.489 422.174L227.386 521.432C231.814 526.932 238.4 530.255 245.456 530.548L346.49 534.74Z" stroke="url(#paint49_linear_2079_739)"/>
<path opacity="0.710145" d="M348.274 539.408C357.155 540.213 365.773 536.129 370.774 528.744L426.842 445.936C430.81 440.074 432.05 432.783 430.241 425.939L398.271 304.98C396.663 298.897 392.776 293.665 387.415 290.369L290.098 230.545C283.038 226.205 274.263 225.728 266.774 229.277L182.327 269.301C174.838 272.85 169.651 279.944 168.541 288.156L153.229 401.36C152.386 407.596 153.974 413.917 157.665 419.014L231.048 520.345C235.2 526.079 241.628 529.736 248.678 530.375L348.274 539.408Z" stroke="url(#paint50_linear_2079_739)"/>
<path opacity="0.724638" d="M350.14 543.554C358.912 544.785 367.665 541.184 373.032 534.138L432.957 455.473C437.257 449.828 438.898 442.596 437.456 435.649L412.504 315.406C411.217 309.203 407.577 303.739 402.348 300.163L309.55 236.686C302.736 232.025 294.033 231.109 286.398 234.25L200.7 269.499C193.065 272.639 187.525 279.414 185.963 287.52L164.683 397.919C163.484 404.14 164.741 410.583 168.191 415.897L235.063 518.897C238.927 524.848 245.182 528.832 252.209 529.818L350.14 543.554Z" stroke="url(#paint51_linear_2079_739)"/>
<path opacity="0.73913" d="M352.117 547.19C360.758 548.835 369.617 545.723 375.33 539.034L438.832 464.684C443.452 459.275 445.493 452.125 444.425 445.092L426.326 325.966C425.367 319.659 421.987 313.974 416.903 310.121L328.738 243.296C322.185 238.328 313.576 236.98 305.818 239.706L219.133 270.162C211.375 272.887 205.501 279.324 203.495 287.298L176.501 394.583C174.945 400.769 175.863 407.319 179.06 412.84L239.448 517.108C243.013 523.264 249.077 527.566 256.065 528.897L352.117 547.19Z" stroke="url(#paint52_linear_2079_739)"/>
<path opacity="0.753623" d="M354.236 550.329C362.725 552.379 371.664 549.756 377.698 543.442L444.493 473.56C449.42 468.405 451.857 461.359 451.167 454.262L439.733 336.636C439.111 330.241 436.003 324.347 431.077 320.222L347.64 250.354C341.361 245.096 332.87 243.323 325.011 245.63L237.602 271.287C229.743 273.594 223.557 279.675 221.115 287.493L188.678 391.373C186.763 397.505 187.334 404.145 190.267 409.861L244.222 515.005C247.478 521.35 253.336 525.961 260.268 527.635L354.236 550.329Z" stroke="url(#paint53_linear_2079_739)"/>
<path opacity="0.768116" d="M356.521 552.986C364.839 555.429 373.829 553.294 380.161 547.373L449.956 482.095C455.177 477.212 458.005 470.292 457.698 463.149L452.72 347.392C452.442 340.926 449.617 334.834 444.863 330.444L366.23 257.839C360.238 252.306 351.885 250.118 343.949 252.002L256.075 272.869C248.139 274.754 241.662 280.464 238.797 288.1L201.2 388.305C198.927 394.364 199.143 401.076 201.802 406.976L249.398 512.613C252.334 519.131 257.971 524.041 264.831 526.056L356.521 552.986Z" stroke="url(#paint54_linear_2079_739)"/>
<path opacity="0.782609" d="M359.003 555.178C367.131 558.001 376.144 556.354 382.748 550.838L455.246 490.282C460.747 485.688 463.96 478.915 464.039 471.749L465.288 358.209C465.36 351.69 462.831 345.412 458.26 340.763L384.489 265.727C378.795 259.936 370.602 257.342 362.613 258.803L274.53 274.903C266.541 276.363 259.795 281.687 256.518 289.118L214.06 385.399C211.43 391.363 211.285 398.131 213.658 404.202L254.991 509.959C257.6 516.634 263.001 521.832 269.771 524.184L359.003 555.178Z" stroke="url(#paint55_linear_2079_739)"/>
<path opacity="0.797101" d="M361.704 556.922C369.623 560.111 378.632 558.948 385.482 553.851L460.383 498.117C466.148 493.828 469.739 487.224 470.206 480.054L477.434 369.063C477.861 362.508 475.638 356.057 471.264 351.157L402.393 273.993C397.009 267.961 388.996 264.974 380.977 266.009L292.938 277.379C284.919 278.414 277.927 283.339 274.253 290.541L227.243 382.669C224.257 388.52 223.746 395.324 225.824 401.555L261.012 507.068C263.285 513.885 268.436 519.36 275.101 522.044L361.704 556.922Z" stroke="url(#paint56_linear_2079_739)"/>
<path opacity="0.811594" d="M364.648 558.237C372.342 561.778 381.32 561.094 388.389 556.428L465.39 505.596C471.402 501.627 475.363 495.213 476.219 488.061L489.161 379.93C489.947 373.358 488.041 366.747 483.876 361.602L419.925 282.613C414.861 276.358 407.047 272.989 399.022 273.6L311.275 280.288C303.25 280.9 296.037 285.414 291.979 292.364L240.738 380.133C237.4 385.849 236.518 392.673 238.292 399.05L267.471 503.97C269.401 510.911 274.288 516.65 280.832 519.662L364.648 558.237Z" stroke="url(#paint57_linear_2079_739)"/>
<path opacity="0.826087" d="M367.857 559.144C375.31 563.021 384.23 562.81 391.49 558.583L470.287 512.716C476.529 509.082 480.85 502.88 482.095 495.766L500.469 390.785C501.619 384.214 500.039 377.457 496.095 372.076L437.068 291.559C432.332 285.099 424.736 281.362 416.728 281.551L329.517 283.619C321.509 283.809 314.099 287.902 309.674 294.58L254.53 377.804C250.845 383.366 249.587 390.19 251.048 396.7L274.377 500.691C275.958 507.738 280.568 513.729 286.975 517.062L367.857 559.144Z" stroke="url(#paint58_linear_2079_739)"/>
<path opacity="0.84058" d="M371.353 559.664C378.549 563.862 387.385 564.115 394.81 560.336L475.097 519.478C481.551 516.193 486.221 510.222 487.854 503.168L511.364 401.606C512.88 395.054 511.637 388.166 507.924 382.557L453.807 300.806C449.407 294.158 442.048 290.068 434.079 289.839L347.641 287.362C339.672 287.134 332.091 290.796 327.318 297.18L268.607 375.699C264.579 381.085 262.943 387.89 264.082 394.519L281.736 497.26C282.963 504.397 287.283 510.625 293.538 514.274L371.353 559.664Z" stroke="url(#paint59_linear_2079_739)"/>
<path opacity="0.855072" d="M375.155 559.82C382.08 564.321 390.807 565.029 398.367 561.705L479.84 525.88C486.486 522.958 491.494 517.239 493.512 510.265L521.848 412.369C523.734 405.854 522.835 398.85 519.366 393.023L470.127 310.323C466.07 303.508 458.964 299.079 451.059 298.438L365.623 291.501C357.718 290.859 349.991 294.084 344.887 300.155L282.953 373.829C278.589 379.02 276.572 385.787 277.382 392.52L289.554 493.705C290.422 500.914 294.441 507.366 300.529 511.322L375.155 559.82Z" stroke="url(#paint60_linear_2079_739)"/>
<path opacity="0.869565" d="M379.282 559.636C385.923 564.421 394.515 565.574 402.183 562.708L484.538 531.926C491.357 529.378 496.689 523.929 499.09 517.057L531.931 423.05C534.187 416.593 533.641 409.487 530.426 403.451L486.019 320.085C482.309 313.121 475.473 308.37 467.653 307.321L383.445 296.023C375.625 294.973 367.778 297.754 362.364 303.494L297.553 372.207C292.861 377.182 290.461 383.892 290.935 390.715L297.835 490.055C298.34 497.317 302.047 503.978 307.953 508.234L379.282 559.636Z" stroke="url(#paint61_linear_2079_739)"/>
<path opacity="0.884058" d="M383.746 559.135C390.092 564.187 398.526 565.772 406.273 563.367L489.211 537.618C496.181 535.454 501.824 530.295 504.602 523.546L541.617 433.626C544.243 427.247 544.058 420.056 541.107 413.82L501.469 330.06C498.113 322.967 491.561 317.911 483.848 316.462L401.084 300.91C393.371 299.461 385.431 301.794 379.728 307.185L312.391 370.845C307.377 375.584 304.595 382.217 304.726 389.115L306.578 486.338C306.717 493.635 310.102 500.49 315.811 505.037L383.746 559.135Z" stroke="url(#paint62_linear_2079_739)"/>
<path opacity="0.898551" d="M388.567 558.343C394.605 563.644 402.859 565.647 410.655 563.704L493.88 542.96C500.98 541.19 506.918 536.339 510.068 529.733L550.918 444.077C553.914 437.795 554.097 430.535 551.42 424.11L516.474 340.222C513.473 333.018 507.219 327.675 499.636 325.834L418.523 306.148C410.939 304.308 402.932 306.19 396.963 311.217L327.451 369.753C322.127 374.237 318.961 380.773 318.744 387.73L315.785 482.582C315.557 489.896 318.611 496.93 324.11 501.757L388.567 558.343Z" stroke="url(#paint63_linear_2079_739)"/>
<path opacity="0.913043" d="M393.754 557.285C399.476 562.815 407.527 565.222 415.345 563.739L498.563 547.956C505.772 546.589 511.989 542.063 515.504 535.622L559.841 454.381C563.206 448.216 563.763 440.903 561.37 434.299L531.024 350.539C528.381 343.244 522.439 337.632 515.005 335.41L435.743 311.718C428.309 309.496 420.263 310.927 414.05 315.575L342.715 368.942C337.091 373.149 333.543 379.568 332.973 386.569L325.454 478.815C324.858 486.128 327.571 493.324 332.847 498.423L393.754 557.285Z" stroke="url(#paint64_linear_2079_739)"/>
<path opacity="0.927536" d="M399.319 555.988C404.716 561.727 412.543 564.521 420.354 563.496L503.281 552.613C510.576 551.656 517.054 547.472 520.926 541.216L568.399 464.516C572.13 458.488 573.067 451.139 570.968 444.367L545.115 360.981C542.832 353.615 537.213 347.754 529.95 345.162L452.729 317.601C445.466 315.009 437.406 315.988 430.974 320.244L358.168 368.418C352.255 372.33 348.327 378.612 347.398 385.64L335.581 475.065C334.617 482.359 336.982 489.7 342.022 495.059L399.319 555.988Z" stroke="url(#paint65_linear_2079_739)"/>
<path opacity="0.942029" d="M405.272 554.479C410.336 560.408 417.921 563.571 425.697 562.999L508.053 556.94C515.409 556.399 522.131 552.571 526.351 546.521L576.603 474.465C580.698 468.594 582.02 461.226 580.222 454.297L558.747 371.521C556.822 364.103 551.537 358.012 544.464 355.062L469.466 323.779C462.393 320.829 454.346 321.359 447.72 325.211L373.79 368.192C367.602 371.789 363.297 377.913 362.006 384.953L346.161 471.361C344.83 478.617 346.84 486.086 351.632 491.695L405.272 554.479Z" stroke="url(#paint66_linear_2079_739)"/>
<path opacity="0.956522" d="M411.619 552.784C416.346 558.881 423.668 562.396 431.381 562.271L512.894 560.943C520.29 560.822 527.235 557.367 531.792 551.541L584.467 484.206C588.92 478.512 590.633 471.143 589.145 464.069L571.917 382.128C570.35 374.676 565.408 368.377 558.543 365.082L485.94 330.231C479.075 326.936 471.069 327.02 464.275 330.458L389.564 368.267C383.115 371.531 378.436 377.477 376.779 384.513L357.187 467.728C355.492 474.928 357.14 482.508 361.672 488.353L411.619 552.784Z" stroke="url(#paint67_linear_2079_739)"/>
<path opacity="0.971014" d="M418.368 550.931C422.751 557.177 429.794 561.023 437.418 561.336L517.824 564.632C525.234 564.935 532.383 561.866 537.267 556.285L592.004 493.721C596.812 488.226 598.918 480.873 597.749 473.666L584.627 392.772C583.416 385.307 578.824 378.819 572.186 375.193L502.139 336.936C495.501 333.311 487.561 332.954 480.625 335.97L405.473 368.651C398.777 371.563 393.729 377.31 391.704 384.325L368.651 464.193C366.594 471.318 367.876 478.992 372.136 485.062L418.368 550.931Z" stroke="url(#paint68_linear_2079_739)"/>
<path opacity="0.985507" d="M425.521 548.947C429.558 555.32 436.306 559.478 443.813 560.218L522.859 568.016C530.259 568.746 537.591 566.076 542.788 560.757L599.231 502.994C604.387 497.717 606.891 490.398 606.047 483.069L596.88 403.425C596.021 395.964 591.787 389.309 585.393 385.369L518.052 343.873C511.658 339.933 503.81 339.143 496.76 341.731L421.497 369.348C414.571 371.89 409.159 377.417 406.764 384.394L380.543 460.781C378.129 467.814 379.039 475.563 383.019 481.845L425.521 548.947Z" stroke="url(#paint69_linear_2079_739)"/>
<path d="M433.082 546.858C436.769 553.338 443.207 557.786 450.573 558.943L528.014 571.108C535.379 572.265 542.871 570.005 548.368 564.968L606.163 512.007C611.66 506.97 614.564 499.703 614.053 492.265L608.68 414.059C608.169 406.62 604.299 399.819 598.165 395.581L533.671 351.021C527.537 346.782 519.806 345.568 512.668 347.722L437.618 370.362C430.48 372.515 424.711 377.802 421.944 384.725L392.852 457.518C390.085 464.441 390.621 472.248 394.309 478.728L433.082 546.858Z" stroke="url(#paint70_linear_2079_739)"/>
</g>
<defs>
<radialGradient id="paint0_radial_2079_739" cx="0" cy="0" r="1" gradientUnits="userSpaceOnUse" gradientTransform="rotate(38.7257) scale(543.485 905.265)">
<stop stop-color="#9158DB" stop-opacity="0.1"/>
<stop offset="1" stop-color="white" stop-opacity="0"/>
</radialGradient>
<radialGradient id="paint1_radial_2079_739" cx="0" cy="0" r="1" gradientUnits="userSpaceOnUse" gradientTransform="translate(424 340) rotate(-141.274) scale(543.485 650.112)">
<stop stop-color="white" stop-opacity="0.35"/>
<stop offset="1" stop-color="white" stop-opacity="0"/>
</radialGradient>
<linearGradient id="paint2_linear_2079_739" x1="-173.143" y1="-78.033" x2="-286.312" y2="524.257" gradientUnits="userSpaceOnUse">
<stop offset="0.0001" stop-color="white" stop-opacity="0"/>
<stop offset="1" stop-color="white"/>
</linearGradient>
<linearGradient id="paint3_linear_2079_739" x1="-147.857" y1="-68.5979" x2="-291.116" y2="521.687" gradientUnits="userSpaceOnUse">
<stop offset="0.0001" stop-color="white" stop-opacity="0"/>
<stop offset="1" stop-color="white"/>
</linearGradient>
<linearGradient id="paint4_linear_2079_739" x1="-123.024" y1="-58.4473" x2="-295.431" y2="518.349" gradientUnits="userSpaceOnUse">
<stop offset="0.0001" stop-color="white" stop-opacity="0"/>
<stop offset="1" stop-color="white"/>
</linearGradient>
<linearGradient id="paint5_linear_2079_739" x1="-98.6803" y1="-47.6127" x2="-299.22" y2="514.276" gradientUnits="userSpaceOnUse">
<stop offset="0.0001" stop-color="white" stop-opacity="0"/>
<stop offset="1" stop-color="white"/>
</linearGradient>
<linearGradient id="paint6_linear_2079_739" x1="-74.8588" y1="-36.128" x2="-302.449" y2="509.503" gradientUnits="userSpaceOnUse">
<stop offset="0.0001" stop-color="white" stop-opacity="0"/>
<stop offset="1" stop-color="white"/>
</linearGradient>
<linearGradient id="paint7_linear_2079_739" x1="-51.5904" y1="-24.0277" x2="-305.084" y2="504.068" gradientUnits="userSpaceOnUse">
<stop offset="0.0001" stop-color="white" stop-opacity="0"/>
<stop offset="1" stop-color="white"/>
</linearGradient>
<linearGradient id="paint8_linear_2079_739" x1="-28.9014" y1="-11.3472" x2="-307.093" y2="498.011" gradientUnits="userSpaceOnUse">
<stop offset="0.0001" stop-color="white" stop-opacity="0"/>
<stop offset="1" stop-color="white"/>
</linearGradient>
<linearGradient id="paint9_linear_2079_739" x1="-6.82074" y1="1.87486" x2="-308.452" y2="491.371" gradientUnits="userSpaceOnUse">
<stop offset="0.0001" stop-color="white" stop-opacity="0"/>
<stop offset="1" stop-color="white"/>
</linearGradient>
<linearGradient id="paint10_linear_2079_739" x1="14.63" y1="15.6004" x2="-309.131" y2="484.189" gradientUnits="userSpaceOnUse">
<stop offset="0.0001" stop-color="white" stop-opacity="0"/>
<stop offset="1" stop-color="white"/>
</linearGradient>
<linearGradient id="paint11_linear_2079_739" x1="35.4285" y1="29.7896" x2="-309.11" y2="476.509" gradientUnits="userSpaceOnUse">
<stop offset="0.0001" stop-color="white" stop-opacity="0"/>
<stop offset="1" stop-color="white"/>
</linearGradient>
<linearGradient id="paint12_linear_2079_739" x1="55.556" y1="44.4026" x2="-308.366" y2="468.374" gradientUnits="userSpaceOnUse">
<stop offset="0.0001" stop-color="white" stop-opacity="0"/>
<stop offset="1" stop-color="white"/>
</linearGradient>
<linearGradient id="paint13_linear_2079_739" x1="74.9956" y1="59.398" x2="-306.884" y2="459.828" gradientUnits="userSpaceOnUse">
<stop offset="0.0001" stop-color="white" stop-opacity="0"/>
<stop offset="1" stop-color="white"/>
</linearGradient>
<linearGradient id="paint14_linear_2079_739" x1="93.7334" y1="74.7336" x2="-304.647" y2="450.915" gradientUnits="userSpaceOnUse">
<stop offset="0.0001" stop-color="white" stop-opacity="0"/>
<stop offset="1" stop-color="white"/>
</linearGradient>
<linearGradient id="paint15_linear_2079_739" x1="111.758" y1="90.3683" x2="-301.643" y2="441.682" gradientUnits="userSpaceOnUse">
<stop offset="0.0001" stop-color="white" stop-opacity="0"/>
<stop offset="1" stop-color="white"/>
</linearGradient>
<linearGradient id="paint16_linear_2079_739" x1="129.059" y1="106.259" x2="-297.862" y2="432.173" gradientUnits="userSpaceOnUse">
<stop offset="0.0001" stop-color="white" stop-opacity="0"/>
<stop offset="1" stop-color="white"/>
</linearGradient>
<linearGradient id="paint17_linear_2079_739" x1="145.63" y1="122.363" x2="-293.298" y2="422.434" gradientUnits="userSpaceOnUse">
<stop offset="0.0001" stop-color="white" stop-opacity="0"/>
<stop offset="1" stop-color="white"/>
</linearGradient>
<linearGradient id="paint18_linear_2079_739" x1="161.468" y1="138.638" x2="-287.944" y2="412.511" gradientUnits="userSpaceOnUse">
<stop offset="0.0001" stop-color="white" stop-opacity="0"/>
<stop offset="1" stop-color="white"/>
</linearGradient>
<linearGradient id="paint19_linear_2079_739" x1="176.57" y1="155.042" x2="-281.799" y2="402.451" gradientUnits="userSpaceOnUse">
<stop offset="0.0001" stop-color="white" stop-opacity="0"/>
<stop offset="1" stop-color="white"/>
</linearGradient>
<linearGradient id="paint20_linear_2079_739" x1="190.938" y1="171.533" x2="-274.864" y2="392.297" gradientUnits="userSpaceOnUse">
<stop offset="0.0001" stop-color="white" stop-opacity="0"/>
<stop offset="1" stop-color="white"/>
</linearGradient>
<linearGradient id="paint21_linear_2079_739" x1="204.573" y1="188.068" x2="-267.142" y2="382.094" gradientUnits="userSpaceOnUse">
<stop offset="0.0001" stop-color="white" stop-opacity="0"/>
<stop offset="1" stop-color="white"/>
</linearGradient>
<linearGradient id="paint22_linear_2079_739" x1="217.482" y1="204.608" x2="-258.639" y2="371.888" gradientUnits="userSpaceOnUse">
<stop offset="0.0001" stop-color="white" stop-opacity="0"/>
<stop offset="1" stop-color="white"/>
</linearGradient>
<linearGradient id="paint23_linear_2079_739" x1="229.671" y1="221.112" x2="-249.362" y2="361.721" gradientUnits="userSpaceOnUse">
<stop offset="0.0001" stop-color="white" stop-opacity="0"/>
<stop offset="1" stop-color="white"/>
</linearGradient>
<linearGradient id="paint24_linear_2079_739" x1="241.15" y1="237.539" x2="-239.323" y2="351.634" gradientUnits="userSpaceOnUse">
<stop offset="0.0001" stop-color="white" stop-opacity="0"/>
<stop offset="1" stop-color="white"/>
</linearGradient>
<linearGradient id="paint25_linear_2079_739" x1="251.931" y1="253.851" x2="-228.533" y2="341.672" gradientUnits="userSpaceOnUse">
<stop offset="0.0001" stop-color="white" stop-opacity="0"/>
<stop offset="1" stop-color="white"/>
</linearGradient>
<linearGradient id="paint26_linear_2079_739" x1="262.03" y1="270.011" x2="-217.008" y2="331.873" gradientUnits="userSpaceOnUse">
<stop offset="0.0001" stop-color="white" stop-opacity="0"/>
<stop offset="1" stop-color="white"/>
</linearGradient>
<linearGradient id="paint27_linear_2079_739" x1="271.46" y1="285.983" x2="-204.766" y2="322.278" gradientUnits="userSpaceOnUse">
<stop offset="0.0001" stop-color="white" stop-opacity="0"/>
<stop offset="1" stop-color="white"/>
</linearGradient>
<linearGradient id="paint28_linear_2079_739" x1="280.24" y1="301.73" x2="-191.825" y2="312.923" gradientUnits="userSpaceOnUse">
<stop offset="0.0001" stop-color="white" stop-opacity="0"/>
<stop offset="1" stop-color="white"/>
</linearGradient>
<linearGradient id="paint29_linear_2079_739" x1="288.39" y1="317.219" x2="-178.207" y2="303.846" gradientUnits="userSpaceOnUse">
<stop offset="0.0001" stop-color="white" stop-opacity="0"/>
<stop offset="1" stop-color="white"/>
</linearGradient>
<linearGradient id="paint30_linear_2079_739" x1="295.932" y1="332.417" x2="-163.935" y2="295.08" gradientUnits="userSpaceOnUse">
<stop offset="0.0001" stop-color="white" stop-opacity="0"/>
<stop offset="1" stop-color="white"/>
</linearGradient>
<linearGradient id="paint31_linear_2079_739" x1="302.889" y1="347.295" x2="-149.033" y2="286.661" gradientUnits="userSpaceOnUse">
<stop offset="0.0001" stop-color="white" stop-opacity="0"/>
<stop offset="1" stop-color="white"/>
</linearGradient>
<linearGradient id="paint32_linear_2079_739" x1="309.285" y1="361.822" x2="-133.529" y2="278.618" gradientUnits="userSpaceOnUse">
<stop offset="0.0001" stop-color="white" stop-opacity="0"/>
<stop offset="1" stop-color="white"/>
</linearGradient>
<linearGradient id="paint33_linear_2079_739" x1="315.145" y1="375.97" x2="-117.45" y2="270.981" gradientUnits="userSpaceOnUse">
<stop offset="0.0001" stop-color="white" stop-opacity="0"/>
<stop offset="1" stop-color="white"/>
</linearGradient>
<linearGradient id="paint34_linear_2079_739" x1="320.499" y1="389.716" x2="-100.826" y2="263.779" gradientUnits="userSpaceOnUse">
<stop offset="0.0001" stop-color="white" stop-opacity="0"/>
<stop offset="1" stop-color="white"/>
</linearGradient>
<linearGradient id="paint35_linear_2079_739" x1="325.375" y1="403.033" x2="-83.6877" y2="257.037" gradientUnits="userSpaceOnUse">
<stop offset="0.0001" stop-color="white" stop-opacity="0"/>
<stop offset="1" stop-color="white"/>
</linearGradient>
<linearGradient id="paint36_linear_2079_739" x1="329.802" y1="415.9" x2="-66.0673" y2="250.778" gradientUnits="userSpaceOnUse">
<stop offset="0.0001" stop-color="white" stop-opacity="0"/>
<stop offset="1" stop-color="white"/>
</linearGradient>
<linearGradient id="paint37_linear_2079_739" x1="333.811" y1="428.298" x2="-47.9979" y2="245.024" gradientUnits="userSpaceOnUse">
<stop offset="0.0001" stop-color="white" stop-opacity="0"/>
<stop offset="1" stop-color="white"/>
</linearGradient>
<linearGradient id="paint38_linear_2079_739" x1="337.434" y1="440.207" x2="-29.5126" y2="239.795" gradientUnits="userSpaceOnUse">
<stop offset="0.0001" stop-color="white" stop-opacity="0"/>
<stop offset="1" stop-color="white"/>
</linearGradient>
<linearGradient id="paint39_linear_2079_739" x1="340.704" y1="451.613" x2="-10.6467" y2="235.108" gradientUnits="userSpaceOnUse">
<stop offset="0.0001" stop-color="white" stop-opacity="0"/>
<stop offset="1" stop-color="white"/>
</linearGradient>
<linearGradient id="paint40_linear_2079_739" x1="343.651" y1="462.499" x2="8.5638" y2="230.978" gradientUnits="userSpaceOnUse">
<stop offset="0.0001" stop-color="white" stop-opacity="0"/>
<stop offset="1" stop-color="white"/>
</linearGradient>
<linearGradient id="paint41_linear_2079_739" x1="346.312" y1="472.856" x2="28.0836" y2="227.418" gradientUnits="userSpaceOnUse">
<stop offset="0.0001" stop-color="white" stop-opacity="0"/>
<stop offset="1" stop-color="white"/>
</linearGradient>
<linearGradient id="paint42_linear_2079_739" x1="348.719" y1="482.672" x2="47.8756" y2="224.439" gradientUnits="userSpaceOnUse">
<stop offset="0.0001" stop-color="white" stop-opacity="0"/>
<stop offset="1" stop-color="white"/>
</linearGradient>
<linearGradient id="paint43_linear_2079_739" x1="350.906" y1="491.941" x2="67.9047" y2="222.049" gradientUnits="userSpaceOnUse">
<stop offset="0.0001" stop-color="white" stop-opacity="0"/>
<stop offset="1" stop-color="white"/>
</linearGradient>
<linearGradient id="paint44_linear_2079_739" x1="352.907" y1="500.655" x2="88.1321" y2="220.255" gradientUnits="userSpaceOnUse">
<stop offset="0.0001" stop-color="white" stop-opacity="0"/>
<stop offset="1" stop-color="white"/>
</linearGradient>
<linearGradient id="paint45_linear_2079_739" x1="354.758" y1="508.811" x2="108.523" y2="219.06" gradientUnits="userSpaceOnUse">
<stop offset="0.0001" stop-color="white" stop-opacity="0"/>
<stop offset="1" stop-color="white"/>
</linearGradient>
<linearGradient id="paint46_linear_2079_739" x1="356.491" y1="516.408" x2="129.04" y2="218.466" gradientUnits="userSpaceOnUse">
<stop offset="0.0001" stop-color="white" stop-opacity="0"/>
<stop offset="1" stop-color="white"/>
</linearGradient>
<linearGradient id="paint47_linear_2079_739" x1="358.14" y1="523.447" x2="149.647" y2="218.474" gradientUnits="userSpaceOnUse">
<stop offset="0.0001" stop-color="white" stop-opacity="0"/>
<stop offset="1" stop-color="white"/>
</linearGradient>
<linearGradient id="paint48_linear_2079_739" x1="359.739" y1="529.927" x2="170.307" y2="219.08" gradientUnits="userSpaceOnUse">
<stop offset="0.0001" stop-color="white" stop-opacity="0"/>
<stop offset="1" stop-color="white"/>
</linearGradient>
<linearGradient id="paint49_linear_2079_739" x1="361.321" y1="535.856" x2="190.986" y2="220.281" gradientUnits="userSpaceOnUse">
<stop offset="0.0001" stop-color="white" stop-opacity="0"/>
<stop offset="1" stop-color="white"/>
</linearGradient>
<linearGradient id="paint50_linear_2079_739" x1="362.918" y1="541.238" x2="211.649" y2="222.068" gradientUnits="userSpaceOnUse">
<stop offset="0.0001" stop-color="white" stop-opacity="0"/>
<stop offset="1" stop-color="white"/>
</linearGradient>
<linearGradient id="paint51_linear_2079_739" x1="364.562" y1="546.082" x2="232.263" y2="224.435" gradientUnits="userSpaceOnUse">
<stop offset="0.0001" stop-color="white" stop-opacity="0"/>
<stop offset="1" stop-color="white"/>
</linearGradient>
<linearGradient id="paint52_linear_2079_739" x1="366.283" y1="550.397" x2="252.791" y2="227.37" gradientUnits="userSpaceOnUse">
<stop offset="0.0001" stop-color="white" stop-opacity="0"/>
<stop offset="1" stop-color="white"/>
</linearGradient>
<linearGradient id="paint53_linear_2079_739" x1="368.112" y1="554.195" x2="273.205" y2="230.861" gradientUnits="userSpaceOnUse">
<stop offset="0.0001" stop-color="white" stop-opacity="0"/>
<stop offset="1" stop-color="white"/>
</linearGradient>
<linearGradient id="paint54_linear_2079_739" x1="370.077" y1="557.489" x2="293.472" y2="234.893" gradientUnits="userSpaceOnUse">
<stop offset="0.0001" stop-color="white" stop-opacity="0"/>
<stop offset="1" stop-color="white"/>
</linearGradient>
<linearGradient id="paint55_linear_2079_739" x1="372.207" y1="560.293" x2="313.563" y2="239.452" gradientUnits="userSpaceOnUse">
<stop offset="0.0001" stop-color="white" stop-opacity="0"/>
<stop offset="1" stop-color="white"/>
</linearGradient>
<linearGradient id="paint56_linear_2079_739" x1="374.528" y1="562.625" x2="333.448" y2="244.518" gradientUnits="userSpaceOnUse">
<stop offset="0.0001" stop-color="white" stop-opacity="0"/>
<stop offset="1" stop-color="white"/>
</linearGradient>
<linearGradient id="paint57_linear_2079_739" x1="377.065" y1="564.502" x2="353.101" y2="250.074" gradientUnits="userSpaceOnUse">
<stop offset="0.0001" stop-color="white" stop-opacity="0"/>
<stop offset="1" stop-color="white"/>
</linearGradient>
<linearGradient id="paint58_linear_2079_739" x1="379.841" y1="565.942" x2="372.495" y2="256.099" gradientUnits="userSpaceOnUse">
<stop offset="0.0001" stop-color="white" stop-opacity="0"/>
<stop offset="1" stop-color="white"/>
</linearGradient>
<linearGradient id="paint59_linear_2079_739" x1="382.882" y1="566.968" x2="391.606" y2="262.571" gradientUnits="userSpaceOnUse">
<stop offset="0.0001" stop-color="white" stop-opacity="0"/>
<stop offset="1" stop-color="white"/>
</linearGradient>
<linearGradient id="paint60_linear_2079_739" x1="386.206" y1="567.598" x2="410.412" y2="269.467" gradientUnits="userSpaceOnUse">
<stop offset="0.0001" stop-color="white" stop-opacity="0"/>
<stop offset="1" stop-color="white"/>
</linearGradient>
<linearGradient id="paint61_linear_2079_739" x1="389.835" y1="567.857" x2="428.891" y2="276.762" gradientUnits="userSpaceOnUse">
<stop offset="0.0001" stop-color="white" stop-opacity="0"/>
<stop offset="1" stop-color="white"/>
</linearGradient>
<linearGradient id="paint62_linear_2079_739" x1="393.785" y1="567.768" x2="447.023" y2="284.431" gradientUnits="userSpaceOnUse">
<stop offset="0.0001" stop-color="white" stop-opacity="0"/>
<stop offset="1" stop-color="white"/>
</linearGradient>
<linearGradient id="paint63_linear_2079_739" x1="398.074" y1="567.355" x2="464.793" y2="292.449" gradientUnits="userSpaceOnUse">
<stop offset="0.0001" stop-color="white" stop-opacity="0"/>
<stop offset="1" stop-color="white"/>
</linearGradient>
<linearGradient id="paint64_linear_2079_739" x1="402.717" y1="566.643" x2="482.182" y2="300.788" gradientUnits="userSpaceOnUse">
<stop offset="0.0001" stop-color="white" stop-opacity="0"/>
<stop offset="1" stop-color="white"/>
</linearGradient>
<linearGradient id="paint65_linear_2079_739" x1="407.725" y1="565.657" x2="499.178" y2="309.42" gradientUnits="userSpaceOnUse">
<stop offset="0.0001" stop-color="white" stop-opacity="0"/>
<stop offset="1" stop-color="white"/>
</linearGradient>
<linearGradient id="paint66_linear_2079_739" x1="413.112" y1="564.426" x2="515.767" y2="318.318" gradientUnits="userSpaceOnUse">
<stop offset="0.0001" stop-color="white" stop-opacity="0"/>
<stop offset="1" stop-color="white"/>
</linearGradient>
<linearGradient id="paint67_linear_2079_739" x1="418.886" y1="562.974" x2="531.94" y2="327.452" gradientUnits="userSpaceOnUse">
<stop offset="0.0001" stop-color="white" stop-opacity="0"/>
<stop offset="1" stop-color="white"/>
</linearGradient>
<linearGradient id="paint68_linear_2079_739" x1="425.055" y1="561.329" x2="547.688" y2="336.794" gradientUnits="userSpaceOnUse">
<stop offset="0.0001" stop-color="white" stop-opacity="0"/>
<stop offset="1" stop-color="white"/>
</linearGradient>
<linearGradient id="paint69_linear_2079_739" x1="431.626" y1="559.518" x2="563.004" y2="346.314" gradientUnits="userSpaceOnUse">
<stop offset="0.0001" stop-color="white" stop-opacity="0"/>
<stop offset="1" stop-color="white"/>
</linearGradient>
<linearGradient id="paint70_linear_2079_739" x1="438.602" y1="557.569" x2="577.884" y2="355.982" gradientUnits="userSpaceOnUse">
<stop offset="0.0001" stop-color="white" stop-opacity="0"/>
<stop offset="1" stop-color="white"/>
</linearGradient>
<clipPath id="clip0_2079_739">
<rect width="424" height="340" rx="10" fill="white"/>
</clipPath>
</defs>
</svg>
