<svg width="76" height="70" viewBox="0 0 76 70" fill="none" xmlns="http://www.w3.org/2000/svg">
<path d="M2.07661 38.5008L1.59328 38.3727L2.07661 38.5008ZM15.5 12.4999L15.1877 12.1095L15.5 12.4999ZM52.5 2.49999L52.3726 2.98348L52.5 2.49999ZM75.1913 11.401C75.4465 11.2953 75.5676 11.0028 75.462 10.7477L73.7399 6.59019C73.6343 6.33507 73.3418 6.21391 73.0867 6.31958C72.8315 6.42526 72.7104 6.71774 72.8161 6.97286L74.3467 10.6684L70.6512 12.1991C70.3961 12.3047 70.2749 12.5972 70.3806 12.8524C70.4863 13.1075 70.7787 13.2286 71.0339 13.123L75.1913 11.401ZM7.10282 69.9999C7.10282 69.3673 6.95406 68.6374 6.72373 67.8388C6.49207 67.0356 6.16791 66.1303 5.79819 65.1405C5.05533 63.1518 4.12078 60.8006 3.30956 58.1136C1.69002 52.7492 0.58055 46.1002 2.55993 38.6288L1.59328 38.3727C-0.450845 46.0885 0.702795 52.9391 2.35224 58.4026C3.17551 61.1295 4.12693 63.5242 4.86141 65.4904C5.23035 66.4781 5.54271 67.3526 5.76289 68.116C5.98441 68.884 6.10282 69.5076 6.10282 69.9999H7.10282ZM2.55993 38.6288C2.76887 37.8402 4.24225 32.863 6.5965 27.3397C7.77323 24.579 9.16604 21.6913 10.726 19.1261C12.2895 16.5552 14.0032 14.3377 15.8123 12.8904L15.1877 12.1095C13.2468 13.6622 11.4612 15.9926 9.8716 18.6065C8.27854 21.2262 6.86462 24.1604 5.67658 26.9476C3.3013 32.5202 1.81298 37.5435 1.59328 38.3727L2.55993 38.6288ZM15.8123 12.8904C24.1444 6.22465 31.0069 3.16004 36.9051 2.04967C42.8005 0.939852 47.7793 1.77308 52.3726 2.98348L52.6274 2.01649C47.9646 0.787758 42.8216 -0.0816807 36.7201 1.06694C30.6215 2.21501 23.612 5.36995 15.1877 12.1095L15.8123 12.8904ZM52.3726 2.98348C58.9653 4.72076 70.2629 9.51793 74.8087 11.401L75.1914 10.4771C70.6845 8.6102 59.3037 3.7758 52.6274 2.01649L52.3726 2.98348Z" fill="url(#paint0_linear_2144_3555)"/>
<defs>
<linearGradient id="paint0_linear_2144_3555" x1="75.0004" y1="10.9392" x2="-3.83734" y2="27.5116" gradientUnits="userSpaceOnUse">
<stop stop-color="#9158DB"/>
<stop offset="1" stop-color="white"/>
</linearGradient>
</defs>
</svg>
