<svg width="77" height="96" viewBox="0 0 77 96" fill="none" xmlns="http://www.w3.org/2000/svg">
<path d="M31.4049 1.52071L31.5075 1.03135L31.4049 1.52071ZM59.6185 15.9071L60.0098 15.5958L59.6185 15.9071ZM76.2879 63.9283L75.7887 63.8998L76.2879 63.9283ZM71.6329 95.3923C71.794 95.6165 72.1065 95.6677 72.3307 95.5065L75.9849 92.8803C76.2091 92.7192 76.2603 92.4067 76.0991 92.1825C75.938 91.9583 75.6255 91.9071 75.4013 92.0683L72.1531 94.4027L69.8187 91.1545C69.6576 90.9302 69.3452 90.8791 69.1209 91.0403C68.8967 91.2014 68.8455 91.5138 69.0067 91.7381L71.6329 95.3923ZM1.09208 12.3302C1.74271 12.2411 2.45421 11.9344 3.20499 11.5178C3.96247 11.0974 4.803 10.54 5.71597 9.91234C7.55257 8.64974 9.70756 7.08621 12.2176 5.64124C17.2263 2.75792 23.5781 0.390519 31.3023 2.01007L31.5075 1.03135C23.4498 -0.65813 16.8404 1.82625 11.7187 4.77459C9.16369 6.24544 6.96127 7.84272 5.14946 9.08828C4.23824 9.71472 3.43181 10.2482 2.71974 10.6434C2.00097 11.0423 1.42033 11.2759 0.956403 11.3394L1.09208 12.3302ZM31.3023 2.01007C32.1165 2.18077 37.3123 3.47034 43.2112 5.86135C49.129 8.26003 55.6557 11.729 59.2273 16.2184L60.0098 15.5958C56.2662 10.8902 49.5267 7.34223 43.5868 4.93459C37.6281 2.51929 32.3747 1.21316 31.5075 1.03135L31.3023 2.01007ZM59.2273 16.2184C67.365 26.4472 71.6787 35.2231 73.8728 43.0009C76.0667 50.7781 76.1497 57.5858 75.7887 63.8998L76.7871 63.9569C77.1512 57.5873 77.0713 50.6561 74.8352 42.7294C72.5993 34.8033 68.2158 25.9104 60.0098 15.5958L59.2273 16.2184ZM75.7887 63.8998C75.271 72.9574 72.5785 88.7089 71.5455 95.0197L72.5323 95.1812C73.5601 88.9022 76.2655 73.0816 76.7871 63.9569L75.7887 63.8998Z" fill="url(#paint0_linear_2166_4952)"/>
<defs>
<linearGradient id="paint0_linear_2166_4952" x1="72.0388" y1="95.101" x2="29.3125" y2="-2.66224" gradientUnits="userSpaceOnUse">
<stop stop-color="#9158DB"/>
<stop offset="1" stop-color="white"/>
</linearGradient>
</defs>
</svg>
