<svg width="16" height="16" viewBox="0 0 16 16" fill="none" xmlns="http://www.w3.org/2000/svg">
<g clip-path="url(#clip0_2121_60)">
<path d="M0.937256 10.5C1.45376 11.9609 2.41008 13.226 3.67475 14.1213C4.93942 15.0166 6.45036 15.4983 7.99988 15.5C9.54921 15.498 11.0599 15.0163 12.3244 14.121C13.5888 13.2257 14.545 11.9607 15.0614 10.5H0.937256Z" fill="#E74C3C"/>
<path d="M0.938469 5.5C0.651341 6.30237 0.503062 7.14781 0.5 8C0.502711 8.85213 0.65062 9.69756 0.937375 10.5H15.0616C15.3487 9.69763 15.4969 8.85219 15.5 8C15.4973 7.14787 15.3494 6.30244 15.0626 5.5H0.938469Z" fill="#2B4896"/>
<path d="M8.00001 0.5C6.45068 0.50197 4.93998 0.983714 3.67552 1.87903C2.41107 2.77434 1.45492 4.03928 0.938477 5.5H15.0626C14.5461 4.0391 13.5898 2.77404 12.3251 1.87871C11.0605 0.983384 9.54952 0.501745 8.00001 0.5Z" fill="white"/>
</g>
<defs>
<clipPath id="clip0_2121_60">
<rect width="16" height="16" fill="white"/>
</clipPath>
</defs>
</svg>
