<svg width="28" height="28" viewBox="0 0 28 28" fill="none" xmlns="http://www.w3.org/2000/svg">
<g clip-path="url(#clip0_2093_709)">
<path d="M27.9918 0H0.00820313C0.00367266 0 0 0.00367266 0 0.00820313V27.9918C0 27.9963 0.00367266 28 0.00820313 28H27.9918C27.9963 28 28 27.9963 28 27.9918V0.00820313C28 0.00367266 27.9963 0 27.9918 0Z" fill="#37AEE2"/>
<path d="M10.8828 22.0938C10.2812 22.0938 10.3359 21.875 10.1719 21.3281L8.42188 15.5859L21.8203 7.71094" fill="#C8DAEA"/>
<path d="M10.8828 22.0938C11.2656 22.0938 11.4844 21.875 11.7578 21.6562L14.2188 19.3047L11.1562 17.4453" fill="#A9C9DD"/>
<path d="M11.1565 17.4453L18.5393 22.8594C19.3049 23.3516 19.9611 23.0781 20.1799 22.0937L23.1877 7.98437C23.4611 6.78125 22.6955 6.23437 21.8752 6.61718L4.32052 13.3984C3.17208 13.8359 3.17208 14.5469 4.10177 14.8203L8.64083 16.2422L19.0315 9.625C19.5236 9.35156 19.9611 9.46093 19.633 9.84375" fill="#F6FBFE"/>
</g>
<defs>
<clipPath id="clip0_2093_709">
<rect width="28" height="28" rx="3" fill="white"/>
</clipPath>
</defs>
</svg>
