<svg width="226" height="75" viewBox="0 0 226 75" fill="none" xmlns="http://www.w3.org/2000/svg">
<path d="M87.5943 54.6128L87.4522 54.1334L87.5943 54.6128ZM225.398 4.3032C225.565 4.08362 225.523 3.76987 225.303 3.60242L221.725 0.873637C221.505 0.706186 221.192 0.748442 221.024 0.968021C220.857 1.1876 220.899 1.50135 221.119 1.6688L224.299 4.09438L221.874 7.27504C221.706 7.49461 221.748 7.80836 221.968 7.97581C222.188 8.14327 222.501 8.10101 222.669 7.88143L225.398 4.3032ZM0.913053 74.4404C1.38386 74.5236 2.09671 74.5144 2.97891 74.4447C3.8751 74.374 4.99089 74.2367 6.29164 74.0427C8.89393 73.6545 12.2608 73.0357 16.1387 72.2547C23.8959 70.6926 33.7199 68.4772 43.6069 66.1478C63.3759 61.4901 83.4273 56.369 87.7363 55.0922L87.4522 54.1334C83.174 55.4011 63.1486 60.5163 43.3776 65.1744C33.4945 67.5029 23.6827 69.7154 15.9413 71.2744C12.0699 72.054 8.72196 72.6691 6.14411 73.0536C4.85479 73.2459 3.7642 73.3797 2.90024 73.4478C2.0223 73.5171 1.42125 73.5147 1.08695 73.4557L0.913053 74.4404ZM87.7363 55.0922C108.906 48.8195 126.66 39.27 141.252 30.7332C148.56 26.4584 155.047 22.4544 160.802 19.2217C166.557 15.9894 171.52 13.5648 175.748 12.4449L175.492 11.4782C171.132 12.6331 166.075 15.1134 160.313 18.3498C154.551 21.5859 148.022 25.6145 140.748 29.87C126.177 38.3937 108.506 47.8951 87.4522 54.1334L87.7363 55.0922ZM175.748 12.4449C201.301 5.67636 210.934 6.39891 225.067 4.49553L224.933 3.50447C210.916 5.39231 201.124 4.68871 175.492 11.4782L175.748 12.4449Z" fill="url(#paint0_linear_2144_3551)"/>
<defs>
<linearGradient id="paint0_linear_2144_3551" x1="225" y1="4.56867" x2="15.2509" y2="97.6305" gradientUnits="userSpaceOnUse">
<stop stop-color="#9158DB"/>
<stop offset="1" stop-color="white"/>
</linearGradient>
</defs>
</svg>
